<?xml version="1.0" standalone="no"?>
<!DOCTYPE svg PUBLIC "-//W3C//DTD SVG 1.1//EN" "http://www.w3.org/Graphics/SVG/1.1/DTD/svg11.dtd" >
<svg xmlns="http://www.w3.org/2000/svg" xmlns:xlink="http://www.w3.org/1999/xlink" version="1.1">
<metadata>
Created by FontForge 20190801 at Fri Aug 11 23:47:09 2017
 By www-data
(c) 2015-2017 Apple Inc. All rights reserved.
</metadata>
<defs>
<font id="SFCashTextCondensedSemibold" horiz-adv-x="0" >
  <font-face 
    font-family="SFCashTextCondensedSemibold"
    font-weight="600"
    font-stretch="normal"
    units-per-em="2048"
    panose-1="0 0 0 0 0 0 0 0 0 0"
    ascent="1638"
    descent="-410"
    x-height="1094"
    cap-height="1443"
    bbox="-493 -528 2239 2217"
    underline-thickness="178"
    underline-position="-285"
    unicode-range="U+0020-FB02"
  />
<missing-glyph horiz-adv-x="1670" 
d="M100 -494v227h1470v-227h-1470zM100 -51v227h1470v-227h-1470zM100 393v227h1470v-227h-1470zM100 836v227h1470v-227h-1470zM100 1280v227h1470v-227h-1470zM100 1723v227h1470v-227h-1470z" />
    <glyph glyph-name=".notdef" horiz-adv-x="1670" 
d="M100 -494v227h1470v-227h-1470zM100 -51v227h1470v-227h-1470zM100 393v227h1470v-227h-1470zM100 836v227h1470v-227h-1470zM100 1280v227h1470v-227h-1470zM100 1723v227h1470v-227h-1470z" />
    <glyph glyph-name="glyph1" 
 />
    <glyph glyph-name="nonmarkingreturn" 
 />
    <glyph glyph-name="space" unicode=" " horiz-adv-x="437" 
 />
    <glyph glyph-name="exclam" unicode="!" horiz-adv-x="605" 
d="M168 1443h269l-22 -969h-225zM303 -22q-68 0 -111 41.5t-43 106.5t43.5 106.5t110.5 41.5t110 -41.5t43 -106.5t-43 -106.5t-110 -41.5z" />
    <glyph glyph-name="quotedbl" unicode="&#x22;" horiz-adv-x="803" 
d="M328 884h-217v559h217v-559zM692 884h-217v559h217v-559z" />
    <glyph glyph-name="numbersign" unicode="#" horiz-adv-x="1085" 
d="M523 0l63 393h-203l-63 -393h-191l62 393h-179l36 190h173l47 294h-184l32 189h181l61 377h191l-60 -377h203l60 377h193l-61 -377h187l-34 -189h-182l-48 -294h192l-31 -190h-190l-62 -393h-193zM402 570h220l51 320h-221z" />
    <glyph glyph-name="dollar" unicode="$" horiz-adv-x="1133" 
d="M575 835l128 -36q146 -46 208 -115t62 -188q0 -130 -85 -215.5t-229 -107.5v-173h-184v173q-147 21 -227 107t-88 228h249q13 -153 165 -153q65 0 105.5 30.5t40.5 81.5q-1 50 -30.5 79.5t-109.5 56.5l-131 38q-136 44 -202 120t-66 199t79 205t215 104v174h184v-173
q141 -22 215 -109t76 -228h-234q-5 75 -43 114.5t-106 39.5q-64 0 -102 -30t-38 -81q0 -49 34 -81.5t114 -59.5z" />
    <glyph glyph-name="percent" unicode="%" horiz-adv-x="1580" 
d="M350 741q-132 0 -205 93t-73 267q0 175 73.5 268t204.5 93t204.5 -93t73.5 -267q0 -175 -73 -268t-205 -93zM350 894q45 0 67 48.5t22 159.5q0 112 -21.5 159.5t-67.5 47.5t-67.5 -47.5t-21.5 -159.5q0 -111 22 -159.5t67 -48.5zM535 0h-214l407 788l323 655h214
l-380 -727zM1231 -19q-132 0 -205.5 93.5t-73.5 267.5t73.5 267t205.5 93q131 0 204.5 -93t73.5 -267q0 -175 -73 -268t-205 -93zM1231 134q45 0 67 48.5t22 159.5q0 112 -21.5 159.5t-67.5 47.5t-68 -47.5t-22 -159.5q0 -111 22 -159.5t68 -48.5z" />
    <glyph glyph-name="ampersand" unicode="&#x26;" horiz-adv-x="1234" 
d="M935 0l-76 100q-136 -126 -356 -126q-193 0 -305.5 109t-112.5 294q0 131 56.5 224t186.5 175q9 3 27 15q-82 109 -115 183.5t-33 158.5q0 146 94 239t243 93q148 0 238 -90t90 -238q0 -114 -56 -201.5t-189 -178.5l230 -307q38 116 38 294v57h205v-65q0 -284 -99 -467
l208 -269h-274zM445 631q-68 -54 -96 -108.5t-28 -128.5q0 -104 55 -164.5t152 -60.5q64 0 120 24t92 70l-276 379q-2 -1 -9.5 -5.5t-9.5 -5.5zM522 895q80 56 111.5 107.5t31.5 121.5q0 74 -32.5 118t-87.5 44q-56 0 -89.5 -45t-33.5 -120q0 -55 21.5 -102.5t78.5 -123.5z
" />
    <glyph glyph-name="quotesingle" unicode="'" horiz-adv-x="439" 
d="M328 884h-217v559h217v-559z" />
    <glyph glyph-name="parenleft" unicode="(" horiz-adv-x="683" 
d="M141 601q0 520 254 868h229q-93 -129 -156.5 -368.5t-63.5 -497.5q0 -257 59.5 -489t159.5 -402h-232q-113 153 -181.5 386.5t-68.5 502.5z" />
    <glyph glyph-name="parenright" unicode=")" horiz-adv-x="683" 
d="M542 601q0 -268 -68.5 -501.5t-180.5 -387.5h-233q100 170 159.5 402t59.5 489q0 258 -63.5 497.5t-156.5 368.5h229q254 -346 254 -868z" />
    <glyph glyph-name="asterisk" unicode="*" horiz-adv-x="1019" 
d="M755 836l-192 157l33 -260h-172l32 260l-191 -157l-87 139l230 122l-230 124l87 137l193 -160l-34 263h172l-35 -263l194 160l87 -137l-230 -124l230 -122z" />
    <glyph glyph-name="plus" unicode="+" horiz-adv-x="1133" 
d="M680 464v-413h-227v413h-314v224h314v407h227v-407h314v-224h-314z" />
    <glyph glyph-name="comma" unicode="," horiz-adv-x="550" 
d="M291 -307h-184l59 548h252z" />
    <glyph glyph-name="hyphen" unicode="-" horiz-adv-x="755" 
d="M639 475h-523v224h523v-224z" />
    <glyph glyph-name="hyphen" unicode="&#x2011;" horiz-adv-x="755" 
d="M639 475h-523v224h523v-224z" />
    <glyph glyph-name="period" unicode="." horiz-adv-x="550" 
d="M275 -15q-65 0 -108.5 43t-43.5 106q0 64 43.5 107t108.5 43q66 0 109.5 -42.5t43.5 -107.5q0 -63 -43.5 -106t-109.5 -43z" />
    <glyph glyph-name="slash" unicode="/" horiz-adv-x="651" 
d="M252 -308h-237l361 1778h240z" />
    <glyph glyph-name="zero" unicode="0" horiz-adv-x="1142" 
d="M571 -29q-227 0 -348.5 194t-121.5 557q0 362 122 556t348 194t348 -193.5t122 -556.5t-121.5 -557t-348.5 -194zM571 190q203 0 203 532q0 531 -203 531t-203 -530q0 -533 203 -533z" />
    <glyph glyph-name="one" unicode="1" horiz-adv-x="860" 
d="M395 0v1176h-10l-285 -226v258l295 235h263v-1443h-263z" />
    <glyph glyph-name="two" unicode="2" horiz-adv-x="1048" 
d="M94 1014q0 209 115.5 333.5t315.5 124.5q193 0 305 -108t112 -292q0 -130 -63 -254t-225 -324l-216 -271v-10h512v-213h-841v179l344 431q138 180 183 269t45 181q0 90 -43 142t-123 52q-86 0 -132 -64t-46 -176v-3h-243v3z" />
    <glyph glyph-name="three" unicode="3" horiz-adv-x="1110" 
d="M405 640v200h129q86 0 135 57t49 156q0 95 -45 148t-129 53t-131 -56t-52 -161h-242q6 206 119.5 320.5t312.5 114.5q189 0 304.5 -104t115.5 -278q0 -132 -62.5 -221t-162.5 -113v-10q119 -17 191 -107.5t72 -238.5q0 -194 -126 -311.5t-331 -117.5q-208 0 -327.5 117
t-127.5 321h252q6 -103 58.5 -160.5t141.5 -57.5t142 61t53 165q0 110 -54 166.5t-154 56.5h-131z" />
    <glyph glyph-name="four" unicode="4" horiz-adv-x="1142" 
d="M656 0v280h-565v218q7 17 75.5 172.5t113 255t118 252.5t133.5 265h376v-953h146v-210h-146v-280h-251zM321 497v-9h341v754h-9q-61 -122 -178.5 -395.5t-153.5 -349.5z" />
    <glyph glyph-name="five" unicode="5" horiz-adv-x="1083" 
d="M553 -29q-190 0 -307 120t-121 316h241q10 -101 60 -159t128 -58q88 0 137.5 75.5t49.5 208.5q0 132 -49.5 207t-137.5 75q-124 0 -178 -140h-230l47 827h730v-214h-523l-24 -408h10q75 140 246 140q164 0 262.5 -130.5t98.5 -349.5q0 -237 -118 -373.5t-322 -136.5z" />
    <glyph glyph-name="six" unicode="6" horiz-adv-x="1126" 
d="M582 -29q-253 0 -374 221q-107 185 -107 513q0 372 124 569.5t354 197.5q176 0 289.5 -104t136.5 -286h-255q-13 78 -57 125t-114 47q-111 0 -170.5 -134.5t-58.5 -378.5h9q34 102 111 156t183 54q170 0 272 -130t101 -345q0 -228 -122 -366.5t-322 -138.5zM580 190
q85 0 137.5 76.5t52.5 201.5q0 128 -51.5 203t-138.5 75t-139 -74.5t-52 -199.5q0 -127 52.5 -204.5t138.5 -77.5z" />
    <glyph glyph-name="seven" unicode="7" horiz-adv-x="1006" 
d="M168 0l489 1224v9h-577v210h836v-221l-481 -1222h-267z" />
    <glyph glyph-name="eight" unicode="8" horiz-adv-x="1155" 
d="M577 -29q-219 0 -347.5 115t-128.5 308q0 139 71 234t195 124v10q-103 28 -163 114t-60 206q0 174 119 282t314 108t314 -108t119 -283q0 -119 -59.5 -205t-162.5 -114v-10q124 -28 195 -123t71 -235q0 -193 -129.5 -308t-347.5 -115zM577 185q93 0 146.5 62t53.5 170
q0 107 -53.5 167.5t-146.5 60.5t-147 -61t-54 -167q0 -108 54 -170t147 -62zM577 841q80 0 126 56t46 153q0 98 -46 153.5t-126 55.5t-126 -55.5t-46 -153.5q0 -97 46 -153t126 -56z" />
    <glyph glyph-name="nine" unicode="9" horiz-adv-x="1126" 
d="M774 698h-5q-34 -101 -111 -153t-183 -52q-170 0 -272 129.5t-102 343.5q1 229 122.5 367.5t321.5 138.5q134 0 233.5 -67t157.5 -196q90 -178 90 -470q0 -383 -122 -575t-352 -192q-173 0 -290 104.5t-139 285.5h254q16 -84 62 -129t114 -45q110 0 168 124t57 373
q-3 13 -4 13zM547 698q87 0 139 74t52 198q0 128 -52 205.5t-138 77.5t-138.5 -77t-52.5 -202q0 -127 51.5 -201.5t138.5 -74.5z" />
    <glyph glyph-name="colon" unicode=":" horiz-adv-x="550" 
d="M275 -15q-65 0 -108.5 43t-43.5 106q0 64 43.5 107t108.5 43q66 0 109.5 -42.5t43.5 -107.5q0 -63 -43.5 -106t-109.5 -43zM275 692q-65 0 -108.5 42.5t-43.5 106.5t43.5 107t108.5 43q66 0 109.5 -42.5t43.5 -107.5q0 -64 -43.5 -106.5t-109.5 -42.5z" />
    <glyph glyph-name="semicolon" unicode=";" horiz-adv-x="550" 
d="M275 692q-65 0 -108.5 42.5t-43.5 106.5t43.5 107t108.5 43q66 0 109.5 -42.5t43.5 -107.5q0 -64 -43.5 -106.5t-109.5 -42.5zM287 -307h-188l62 548h252z" />
    <glyph glyph-name="less" unicode="&#x3c;" horiz-adv-x="1133" 
d="M971 908l-532 -324v-10l532 -316v-256l-802 475v194l802 491v-254z" />
    <glyph glyph-name="equal" unicode="=" horiz-adv-x="1133" 
d="M984 243h-835v216h835v-216zM984 693h-835v217h835v-217z" />
    <glyph glyph-name="greater" unicode="&#x3e;" horiz-adv-x="1133" 
d="M162 908v254l802 -490v-194l-802 -476v256l533 314v10z" />
    <glyph glyph-name="question" unicode="?" horiz-adv-x="949" 
d="M71 1046q2 187 106.5 298t292.5 111q180 0 285.5 -97.5t105.5 -262.5q0 -106 -41 -184t-129 -157q-85 -77 -113.5 -128t-28.5 -123v-53h-226l-1 66q-7 103 26.5 176t120.5 155q76 74 102 122t26 119q0 76 -37 116.5t-106 40.5t-107 -51t-41 -148h-235zM442 -22
q-67 0 -110 41.5t-43 106.5t43 106.5t110 41.5t110.5 -41.5t43.5 -106.5t-43 -106.5t-111 -41.5z" />
    <glyph glyph-name="at" unicode="@" horiz-adv-x="1543" 
d="M773 854q-126 0 -126 -250q0 -249 125 -249q64 0 96.5 64t32.5 185q0 120 -32.5 185t-95.5 65zM798 1445q308 0 487 -200t179 -543q0 -246 -87 -384t-244 -138q-81 0 -134 43t-67 120h-12q-48 -157 -197 -157q-131 0 -205.5 114t-74.5 309q0 189 73 300t200 111
q68 0 118.5 -37.5t73.5 -105.5h11v122h179v-555q0 -110 74 -110q64 0 98 92.5t34 265.5q0 281 -134.5 443.5t-373.5 162.5q-249 0 -394.5 -188.5t-145.5 -505.5q0 -326 147 -501.5t416 -175.5q144 0 215 38v-148q-98 -40 -229 -40q-332 0 -521 218t-189 615
q0 384 191.5 609.5t511.5 225.5z" />
    <glyph glyph-name="A" unicode="A" horiz-adv-x="1217" 
d="M878 0l-83 334h-388l-80 -334h-269l387 1443h327l386 -1443h-280zM592 1168l-141 -629h300l-146 629h-13z" />
    <glyph glyph-name="B" unicode="B" horiz-adv-x="1145" 
d="M637 0h-506v1443h501q184 0 284 -95t100 -265q0 -124 -65 -210t-171 -107v-12q127 -15 204.5 -106t77.5 -238q0 -195 -112 -302.5t-313 -107.5zM395 1240v-404h145q217 0 217 205q0 98 -49 148.5t-141 50.5h-172zM395 203h174q223 0 223 227q0 114 -57 168.5t-177 54.5
h-163v-450z" />
    <glyph glyph-name="C" unicode="C" horiz-adv-x="1199" 
d="M625 -29q-257 0 -393.5 192t-136.5 559t136 558.5t393 191.5q220 0 347.5 -137.5t139.5 -387.5h-255q-13 148 -72.5 224.5t-158.5 76.5q-129 0 -194.5 -133.5t-65.5 -391.5q0 -261 65.5 -394.5t194.5 -133.5q204 0 232 281h255q-15 -242 -140.5 -373.5t-346.5 -131.5z
" />
    <glyph glyph-name="D" unicode="D" horiz-adv-x="1228" 
d="M131 1443h448q273 0 413.5 -179.5t140.5 -536.5q0 -361 -140.5 -544t-413.5 -183h-448v1443zM395 1222v-1000h148q164 0 242 123t78 380q0 497 -320 497h-148z" />
    <glyph glyph-name="E" unicode="E" horiz-adv-x="1006" 
d="M903 220v-220h-772v1443h772v-220h-508v-387h479v-208h-479v-408h508z" />
    <glyph glyph-name="F" unicode="F" horiz-adv-x="975" 
d="M395 0h-264v1443h765v-220h-501v-425h456v-212h-456v-586z" />
    <glyph glyph-name="G" unicode="G" horiz-adv-x="1241" 
d="M1148 595q0 -301 -129.5 -462.5t-373.5 -161.5q-266 0 -408 194.5t-142 560.5q0 361 140.5 553.5t400.5 192.5q219 0 348.5 -127t151.5 -359h-261q-42 262 -239 262q-272 0 -272 -520q0 -262 71.5 -397.5t211.5 -135.5q117 0 180 88t65 246v35h-254v199h510v-168z" />
    <glyph glyph-name="H" unicode="H" horiz-adv-x="1280" 
d="M1148 0h-263v624h-490v-624h-264v1443h264v-599h490v599h263v-1443z" />
    <glyph glyph-name="I" unicode="I" horiz-adv-x="526" 
d="M395 0h-264v1443h264v-1443z" />
    <glyph glyph-name="J" unicode="J" horiz-adv-x="998" 
d="M60 449h254q5 -249 151 -249q72 0 106.5 57.5t34.5 176.5v1009h264v-1006q0 -226 -103.5 -346t-294.5 -120q-199 0 -306.5 126t-105.5 352z" />
    <glyph glyph-name="K" unicode="K" horiz-adv-x="1165" 
d="M395 0h-264v1443h264v-625h11l410 625h283l-423 -633l449 -810h-293l-337 614l-100 -143v-471z" />
    <glyph glyph-name="L" unicode="L" horiz-adv-x="932" 
d="M864 221v-221h-733v1443h264v-1222h469z" />
    <glyph glyph-name="M" unicode="M" horiz-adv-x="1502" 
d="M1371 0h-238v1025h-12l-279 -1002h-183l-278 1002h-12v-1025h-238v1443h330l285 -1032h11l286 1032h328v-1443z" />
    <glyph glyph-name="N" unicode="N" horiz-adv-x="1260" 
d="M368 0h-237v1443h271l480 -1004h9v1004h237v-1443h-270l-480 1005h-10v-1005z" />
    <glyph glyph-name="O" unicode="O" horiz-adv-x="1269" 
d="M635 1472q260 0 399.5 -194.5t139.5 -556.5t-139.5 -556t-399.5 -194q-261 0 -400.5 194t-139.5 556q0 361 140 556t400 195zM635 1247q-131 0 -200.5 -133t-69.5 -393q0 -261 69 -393t201 -132q131 0 200 132t69 393t-68.5 393.5t-200.5 132.5z" />
    <glyph glyph-name="P" unicode="P" horiz-adv-x="1115" 
d="M131 1443h480q199 0 311.5 -130.5t112.5 -356.5q0 -223 -117 -354t-322 -131h-201v-471h-264v1443zM395 1230v-548h153q219 0 219 274t-218 274h-154z" />
    <glyph glyph-name="Q" unicode="Q" horiz-adv-x="1269" 
d="M635 -29q-261 0 -400.5 193.5t-139.5 556.5q0 361 140 556t400 195q259 0 399 -194.5t140 -556.5q0 -401 -169 -590l137 -276h-235l-78 152q-91 -36 -194 -36zM639 198q56 0 91 17l-129 246h196l46 -91q62 93 62 351q0 260 -69 392t-201 132q-133 0 -202 -132t-69 -392
q0 -258 70 -390.5t205 -132.5z" />
    <glyph glyph-name="R" unicode="R" horiz-adv-x="1129" 
d="M395 561v-561h-264v1443h459q220 0 333 -112.5t113 -326.5q0 -140 -59 -246t-167 -153l258 -605h-288l-226 561h-159zM395 1232v-473h166q104 0 154.5 58t50.5 178q0 237 -202 237h-169z" />
    <glyph glyph-name="S" unicode="S" horiz-adv-x="1102" 
d="M91 405h253q8 -105 64.5 -162t153.5 -57q90 0 141.5 48.5t51.5 132.5q0 73 -46 123t-158 100l-133 58q-157 68 -230 165.5t-73 247.5q0 186 120 298.5t324 112.5q203 0 317.5 -114.5t118.5 -312.5h-246q-6 103 -55 158.5t-136 55.5q-86 0 -133 -46t-47 -128
q0 -72 46.5 -123.5t155.5 -101.5l110 -45q181 -80 254 -172.5t72 -246.5q0 -195 -123 -309.5t-340 -114.5q-219 0 -338 112.5t-124 320.5z" />
    <glyph glyph-name="T" unicode="T" horiz-adv-x="1061" 
d="M662 0h-263v1223h-331v220h925v-220h-331v-1223z" />
    <glyph glyph-name="U" unicode="U" horiz-adv-x="1237" 
d="M393 1443v-940q0 -304 225 -304q226 0 226 304v940h264v-955q0 -246 -127.5 -381.5t-362.5 -135.5q-234 0 -361.5 135.5t-127.5 381.5v955h264z" />
    <glyph glyph-name="V" unicode="V" horiz-adv-x="1201" 
d="M769 0h-334l-377 1443h284l257 -1145h9l256 1145h279z" />
    <glyph glyph-name="W" unicode="W" horiz-adv-x="1663" 
d="M826 1070l-198 -1070h-283l-276 1443h269l162 -1084h11l192 1084h257l194 -1084h11l161 1084h268l-276 -1443h-282l-199 1070h-11z" />
    <glyph glyph-name="X" unicode="X" horiz-adv-x="1216" 
d="M71 0l367 729v5l-365 709h298l240 -517h11l240 517h283l-383 -718v-5l381 -720h-289l-251 503h-13l-245 -503h-274z" />
    <glyph glyph-name="Y" unicode="Y" horiz-adv-x="1162" 
d="M711 0h-264v540l-389 903h278l240 -632h10l246 632h272l-392 -903z" />
    <glyph glyph-name="Z" unicode="Z" horiz-adv-x="1096" 
d="M100 0v178l576 1034v11h-564v220h867v-178l-574 -1034v-11h591v-220h-896z" />
    <glyph glyph-name="bracketleft" unicode="[" horiz-adv-x="691" 
d="M155 1470h474v-188h-229v-1359h235v-187h-480v1734z" />
    <glyph glyph-name="backslash" unicode="\" horiz-adv-x="651" 
d="M378 -308l-363 1778h242l359 -1778h-238z" />
    <glyph glyph-name="bracketright" unicode="]" horiz-adv-x="691" 
d="M536 1470v-1734h-479v187h234v1359h-229v188h474z" />
    <glyph glyph-name="asciicircum" unicode="^" horiz-adv-x="830" 
d="M408 1219l-141 -427h-212l241 628h240l239 -628h-216l-137 427h-14z" />
    <glyph glyph-name="underscore" unicode="_" horiz-adv-x="749" 
d="M753 -296h-757v188h757v-188z" />
    <glyph glyph-name="grave" unicode="`" horiz-adv-x="866" 
d="M647 1246h-212l-195 320h235z" />
    <glyph glyph-name="a" unicode="a" horiz-adv-x="993" 
d="M466 179q73 0 118.5 50t45.5 134v136l-137 -19q-83 -14 -123.5 -51t-40.5 -107t36.5 -106.5t100.5 -36.5zM371 -14q-131 0 -212.5 85t-81.5 232q0 145 91 228t283 111l179 23v92q0 76 -35.5 114.5t-101.5 38.5q-131 0 -150 -138h-232q7 156 111.5 248t280.5 92
q184 0 280.5 -89.5t96.5 -260.5v-762h-248v131h-10q-31 -67 -98 -106t-153 -39z" />
    <glyph glyph-name="b" unicode="b" horiz-adv-x="1082" 
d="M643 -13q-95 0 -161 44t-98 124h-10v-155h-252v1470h255v-530h10q31 80 97 124.5t160 44.5q170 0 261 -144.5t91 -415.5q0 -272 -91.5 -417t-261.5 -145zM556 899q-180 0 -180 -351t180 -351q179 0 179 352q0 350 -179 350z" />
    <glyph glyph-name="c" unicode="c" horiz-adv-x="976" 
d="M904 710h-235q-18 195 -152 195q-173 0 -173 -357q0 -359 173 -359q68 0 105.5 44.5t46.5 144.5h235q-9 -193 -109.5 -294.5t-278.5 -101.5q-210 0 -320 142.5t-110 423.5q0 277 110 420.5t319 143.5q176 0 278 -106.5t111 -295.5z" />
    <glyph glyph-name="d" unicode="d" horiz-adv-x="1082" 
d="M439 -13q-170 0 -261.5 145.5t-91.5 416.5q0 270 91.5 415t261.5 145q94 0 159.5 -44t96.5 -125h10v530h255v-1470h-252v155h-10q-32 -79 -98.5 -123.5t-160.5 -44.5zM526 899q-179 0 -179 -350q0 -352 179 -352q180 0 180 351t-180 351z" />
    <glyph glyph-name="e" unicode="e" horiz-adv-x="999" 
d="M511 914q-161 0 -173 -260h340q-7 260 -167 260zM678 325h232q-23 -167 -126.5 -255t-270.5 -88q-208 0 -317.5 142t-109.5 419q0 276 110 422.5t312 146.5q198 0 305 -139t107 -405v-82h-585v-15q1 -144 48 -217.5t135 -73.5q132 0 160 145z" />
    <glyph glyph-name="f" unicode="f" horiz-adv-x="689" 
d="M189 0v894h-139v197h139v91q0 162 73 234.5t236 72.5q79 0 136 -11v-186q-27 6 -73 6q-66 0 -94.5 -29t-28.5 -96v-82h189v-197h-183v-894h-255z" />
    <glyph glyph-name="g" unicode="g" horiz-adv-x="1078" 
d="M525 218q180 0 180 340q0 341 -180 341q-179 0 -179 -340q0 -341 179 -341zM525 -373q-182 0 -286.5 80t-114.5 219h241q24 -115 166 -115q89 0 131 52t42 171v145h-10q-67 -167 -256 -167q-170 0 -261.5 142t-91.5 405q0 265 92 407.5t262 142.5q94 0 160.5 -44.5
t98.5 -127.5h9v157h252v-1059q0 -408 -434 -408z" />
    <glyph glyph-name="h" unicode="h" horiz-adv-x="1055" 
d="M122 0v1470h254v-533h9q33 82 102 127.5t165 45.5q143 0 217 -89.5t74 -257.5v-763h-255v711q0 185 -146 185q-79 0 -122 -53t-43 -151v-692h-255z" />
    <glyph glyph-name="i" unicode="i" horiz-adv-x="494" 
d="M119 0v1094h255v-1094h-255zM247 1251q-64 0 -105 38.5t-41 97.5t41 97.5t105 38.5q65 0 105.5 -38.5t40.5 -97.5t-40.5 -97.5t-105.5 -38.5z" />
    <glyph glyph-name="j" unicode="j" horiz-adv-x="494" 
d="M247 1251q-64 0 -105 38.5t-41 97.5t41 97.5t105 38.5q65 0 105.5 -38.5t40.5 -97.5t-40.5 -97.5t-105.5 -38.5zM374 1094v-1119q0 -175 -81.5 -253t-235.5 -78q-47 0 -70 5v182l31 -1q57 0 79 30t22 102v1132h255z" />
    <glyph glyph-name="k" unicode="k" horiz-adv-x="1014" 
d="M386 650l310 444h271l-338 -469l359 -625h-281l-262 456l-68 -98v-358h-255v1470h255v-820h9z" />
    <glyph glyph-name="l" unicode="l" horiz-adv-x="499" 
d="M122 0v1470h255v-1470h-255z" />
    <glyph glyph-name="m" unicode="m" horiz-adv-x="1561" 
d="M119 0v1094h248v-157h10q33 83 99.5 128.5t158.5 45.5q195 0 251 -174h10q36 82 107 128t167 46q136 0 207.5 -86t71.5 -246v-779h-255v725q0 88 -33 130.5t-102 42.5q-71 0 -110 -49.5t-39 -140.5v-708h-252v731q0 167 -135 167q-70 0 -109.5 -51.5t-39.5 -143.5v-703
h-255z" />
    <glyph glyph-name="n" unicode="n" horiz-adv-x="1048" 
d="M119 0v1094h248v-156h10q33 82 102 127.5t166 45.5q144 0 217.5 -89.5t73.5 -257.5v-764h-254v712q0 94 -36 139.5t-111 45.5q-77 0 -119 -53t-42 -151v-693h-255z" />
    <glyph glyph-name="o" unicode="o" horiz-adv-x="1053" 
d="M526 -18q-213 0 -326.5 143t-113.5 422q0 276 114.5 420.5t325.5 144.5q212 0 326.5 -144t114.5 -421q0 -279 -113.5 -422t-327.5 -143zM526 186q92 0 136.5 88t44.5 273q0 184 -44.5 272.5t-136.5 88.5q-180 0 -180 -361q0 -185 44 -273t136 -88z" />
    <glyph glyph-name="p" unicode="p" horiz-adv-x="1078" 
d="M639 1109q171 0 262.5 -144.5t91.5 -415.5q0 -272 -91.5 -417t-261.5 -145q-95 0 -160.5 43.5t-96.5 122.5h-9v-501h-255v1442h252v-156h9q33 82 99 126.5t160 44.5zM552 197q179 0 179 352q0 350 -179 350t-180 -351q1 -351 180 -351z" />
    <glyph glyph-name="q" unicode="q" horiz-adv-x="1078" 
d="M439 1109q94 0 160.5 -45t98.5 -126h9v156h252v-1428h-255v487h-9q-66 -166 -257 -166q-170 0 -261 145t-91 417q0 270 91.5 415t261.5 145zM525 197q181 0 181 351t-180 351q-179 0 -179 -350q0 -352 178 -352z" />
    <glyph glyph-name="r" unicode="r" horiz-adv-x="728" 
d="M119 0v1094h248v-175h9q46 189 220 189q49 0 82 -11v-232q-37 15 -100 15q-99 0 -152 -65.5t-53 -187.5v-627h-254z" />
    <glyph glyph-name="s" unicode="s" horiz-adv-x="963" 
d="M104 790q0 146 105 234t277 88q181 0 275.5 -87t99.5 -252h-234q-12 150 -143 150q-60 0 -97 -31.5t-37 -85.5q0 -50 33 -82t111 -60l125 -38q144 -49 204.5 -118t60.5 -190q0 -154 -111 -245t-290 -91q-190 0 -290 87t-110 253h248q18 -151 158 -151q62 0 102 32t40 85
q-1 51 -30 80.5t-105 57.5l-127 41q-138 47 -201.5 122t-63.5 201z" />
    <glyph glyph-name="t" unicode="t" horiz-adv-x="689" 
d="M185 1347h255v-256h184v-197h-184v-563q0 -74 27.5 -106.5t89.5 -32.5q42 0 67 4v-193q-50 -10 -124 -10q-172 0 -243.5 67t-71.5 228v606h-134v197h134v256z" />
    <glyph glyph-name="u" unicode="u" horiz-adv-x="1049" 
d="M930 1094v-1094h-248v149h-9q-69 -163 -264 -163q-140 0 -218.5 90t-78.5 255v763h255v-710q0 -94 35 -139.5t109 -45.5q77 0 120 48.5t45 141.5v705h254z" />
    <glyph glyph-name="v" unicode="v" horiz-adv-x="967" 
d="M925 1094l-276 -1094h-330l-277 1094h261l177 -856h10l176 856h259z" />
    <glyph glyph-name="w" unicode="w" horiz-adv-x="1441" 
d="M1393 1094l-222 -1094h-299l-148 815h-9l-148 -815h-296l-223 1094h251l132 -839h9l150 839h263l151 -839h9l131 839h249z" />
    <glyph glyph-name="x" unicode="x" horiz-adv-x="989" 
d="M491 383h-6l-175 -383h-257l280 546l-281 548h279l168 -375h5l167 375h266l-280 -540l280 -554h-269z" />
    <glyph glyph-name="y" unicode="y" horiz-adv-x="1006" 
d="M225 -367q-56 0 -91 5v187q12 -3 57 -3q128 0 153 115q0 1 2.5 29t0.5 36l-303 1092h273l187 -885h11l183 885h264l-285 -1043q-41 -156 -96.5 -245.5t-140 -131t-215.5 -41.5z" />
    <glyph glyph-name="z" unicode="z" horiz-adv-x="924" 
d="M92 0v157l438 726v9h-429v202h719v-170l-425 -713v-9h436v-202h-739z" />
    <glyph glyph-name="braceleft" unicode="{" horiz-adv-x="731" 
d="M297 591q96 -10 142.5 -70.5t46.5 -173.5v-279q0 -119 32 -164t121 -45h35v-188h-83q-188 0 -268 86t-80 284v235q0 118 -33.5 162.5t-121.5 45.5v245q88 0 121.5 45t33.5 164v212q0 194 80 278.5t268 84.5h83v-188h-35q-90 0 -121.5 -45t-31.5 -164v-258
q0 -112 -45.5 -169t-143.5 -69v-29z" />
    <glyph glyph-name="bar" unicode="|" horiz-adv-x="610" 
d="M425 -307h-241v1777h241v-1777z" />
    <glyph glyph-name="braceright" unicode="}" horiz-adv-x="731" 
d="M433 591v29q-98 12 -143 69t-45 169v258q0 119 -31.5 164t-121.5 45h-35v188h82q189 0 269 -84t80 -279v-212q0 -119 33.5 -164t121.5 -45v-245q-88 -1 -121.5 -45.5t-33.5 -162.5v-235q0 -198 -80.5 -284t-268.5 -86h-82v188h35q89 0 121 45t32 164v279q0 223 188 244z
" />
    <glyph glyph-name="asciitilde" unicode="~" horiz-adv-x="1055" 
d="M710 466q-38 0 -70.5 9.5t-62.5 31t-48.5 39t-51.5 51.5q-34 35 -55.5 50.5t-45.5 15.5q-42 0 -62 -42.5t-21 -133.5h-193q-6 106 18.5 195t83.5 146t144 57q38 0 70 -9.5t61.5 -30.5t49 -39t49.5 -50q34 -36 56.5 -52t46.5 -16q43 0 62.5 42t20.5 133h193
q7 -105 -18 -194t-84 -146t-143 -57z" />
    <glyph glyph-name="nonbreakingspace" unicode="&#xa0;" horiz-adv-x="401" 
 />
    <glyph glyph-name="exclamdown" unicode="&#xa1;" horiz-adv-x="594" 
d="M163 -328l23 969h224l22 -969h-269zM298 841q-67 0 -110.5 42t-43.5 106q0 65 43.5 106.5t110.5 41.5t110 -41.5t43 -106.5t-43 -106.5t-110 -41.5z" />
    <glyph glyph-name="cent" unicode="&#xa2;" horiz-adv-x="1133" 
d="M959 871h-230q-17 199 -153 199q-167 0 -167 -349q0 -348 168 -348q68 0 105.5 46t46.5 146h230q-7 -168 -85 -268t-216 -123v-174h-184v177q-157 32 -240 169t-83 375q0 234 83.5 373t239.5 172v177h184v-175q138 -25 216.5 -129.5t84.5 -267.5z" />
    <glyph glyph-name="sterling" unicode="&#xa3;" horiz-adv-x="1133" 
d="M452 217h567v-217h-906v205q111 25 175 115t64 219q0 53 -9 102h-226v185h177q-47 149 -47 251q0 191 115 293t330 102q174 0 275 -52v-207q-89 49 -227 49q-231 0 -231 -215q0 -90 35 -221h318v-185h-274q9 -49 9 -102q0 -106 -39 -187t-106 -125v-10z" />
    <glyph glyph-name="currency" unicode="&#xa4;" horiz-adv-x="1133" 
d="M402 651q0 -118 45.5 -181t119.5 -63t120 63t46 181t-46 181t-120 63t-119.5 -63t-45.5 -181zM1014 1032l-125 -145q54 -102 54 -236q0 -133 -55 -237l126 -144l-151 -141l-118 135q-81 -45 -178 -45q-99 0 -179 46l-117 -136l-151 141l126 145q-54 102 -54 236
q0 131 53 234l-125 147l151 140l116 -135q83 47 180 47q99 0 180 -46l116 134z" />
    <glyph glyph-name="yen" unicode="&#xa5;" horiz-adv-x="1133" 
d="M911 232h-214v-232h-264v232h-214v155h214v146h-214v155h162l-331 755h277l234 -605h11l240 605h272l-333 -755h160v-155h-214v-146h214v-155z" />
    <glyph glyph-name="brokenbar" unicode="&#xa6;" horiz-adv-x="610" 
d="M426 778h-242v692h242v-692zM426 -306h-242v691h242v-691z" />
    <glyph glyph-name="section" unicode="&#xa7;" horiz-adv-x="1199" 
d="M586 427l54 -17q54 10 87 52t33 101q0 64 -34.5 105t-111.5 69l-54 17q-53 -10 -86.5 -52.5t-33.5 -100.5q0 -63 35 -104.5t111 -69.5zM596 -274q-162 0 -260.5 86t-105.5 233h222q6 -64 45 -99.5t100 -35.5q62 0 96.5 36t34.5 100q0 60 -33.5 95.5t-116.5 65.5l-98 34
q-138 51 -200 122t-62 182q0 94 52 165t147 102v10q-96 49 -140 115.5t-44 165.5q0 153 99.5 243.5t270.5 90.5q158 0 255 -84.5t105 -231.5h-221q-6 63 -42.5 97.5t-96.5 34.5q-62 0 -97 -35.5t-35 -99.5q0 -59 33.5 -94.5t118.5 -67.5l96 -33q137 -51 199.5 -123.5
t62.5 -183.5q0 -94 -55.5 -169t-149.5 -101v-9q99 -45 144.5 -110t45.5 -166q0 -153 -100 -244t-270 -91z" />
    <glyph glyph-name="dieresis" unicode="&#xa8;" horiz-adv-x="889" 
d="M260 1238q-56 0 -93 37.5t-37 91.5q0 55 37 92t93 37q55 0 92.5 -37t37.5 -92q0 -54 -37.5 -91.5t-92.5 -37.5zM628 1238q-55 0 -92.5 37.5t-37.5 91.5q0 55 37.5 92t92.5 37q56 0 93.5 -37t37.5 -92q0 -54 -37.5 -91.5t-93.5 -37.5z" />
    <glyph glyph-name="copyright" unicode="&#xa9;" horiz-adv-x="1423" 
d="M711 -147q-191 0 -341.5 97t-235.5 277.5t-85 415.5q1 359 185.5 574.5t476.5 215.5q144 0 266 -56t209.5 -157t137 -249.5t49.5 -327.5q0 -235 -85 -415.5t-235.5 -277.5t-341.5 -97zM711 7q220 0 359.5 173.5t139.5 462.5q0 293 -139 464.5t-360 171.5t-359.5 -172
t-138.5 -464q0 -289 139.5 -462.5t358.5 -173.5zM1007 759h-163q-8 67 -39 105t-80 38q-133 0 -133 -257q0 -261 133 -261q101 0 119 137h163q-11 -133 -85.5 -208.5t-197.5 -75.5q-149 0 -229 105t-80 303q0 195 80 299.5t227 104.5q122 0 198 -79t87 -211z" />
    <glyph glyph-name="a.sups" unicode="&#xaa;" horiz-adv-x="701" 
d="M333 855q44 0 70.5 28t26.5 77v84l-75 -8q-104 -17 -104 -96q0 -41 21.5 -63t60.5 -22zM257 715q-87 0 -140.5 56t-53.5 152q0 196 259 227l108 11v57q0 90 -83 90q-79 0 -90 -86h-172q5 111 75.5 172.5t194.5 61.5q129 0 195.5 -58t66.5 -171v-503h-187v82h-6
q-20 -42 -64 -66.5t-103 -24.5z" />
    <glyph glyph-name="guillemotleft" unicode="&#xab;" horiz-adv-x="1170" 
d="M347 572v-12l275 -411h-233l-273 412v8l277 413h229zM779 572v-12l275 -411h-234l-272 412v8l277 413h229z" />
    <glyph glyph-name="logicalnot" unicode="&#xac;" horiz-adv-x="1133" 
d="M984 693v-618h-227v400h-607v218h834z" />
    <glyph glyph-name="registered" unicode="&#xae;" horiz-adv-x="1030" 
d="M515 530q-195 0 -321 140.5t-126 362.5q0 221 126.5 362t320.5 141q195 0 321 -140.5t126 -362.5t-126 -362.5t-321 -140.5zM515 651q140 0 228 104.5t88 277.5q0 172 -88 276.5t-228 104.5t-228 -104.5t-88 -276.5q0 -173 88 -277.5t228 -104.5zM449 806h-104v470h203
q69 0 110.5 -40.5t41.5 -107.5q0 -109 -87 -140l103 -182h-123l-85 164h-59v-164zM449 1182v-125h76q64 0 64 63q0 62 -65 62h-75z" />
    <glyph glyph-name="macron" unicode="&#xaf;" horiz-adv-x="843" 
d="M702 1449v-142h-561v142h561z" />
    <glyph glyph-name="degree" unicode="&#xb0;" horiz-adv-x="748" 
d="M374 789q-130 0 -211.5 86t-81.5 227q0 142 81.5 227t211.5 85t211.5 -85t81.5 -227q0 -141 -82 -227t-211 -86zM374 955q57 0 89.5 38.5t32.5 108.5q0 71 -32.5 109.5t-89.5 38.5q-56 0 -89.5 -38.5t-33.5 -109.5q0 -69 33.5 -108t89.5 -39z" />
    <glyph glyph-name="plusminus" unicode="&#xb1;" horiz-adv-x="1133" 
d="M968 74h-804v200h804v-200zM676 650v-261h-219v261h-293v192h293v260h219v-260h293v-192h-293z" />
    <glyph glyph-name="two.sups" unicode="&#xb2;" horiz-adv-x="711" 
d="M88 1467q2 111 73 178.5t193 67.5q120 0 189.5 -59t69.5 -161q0 -69 -39.5 -133.5t-139.5 -163.5l-99 -98v-6h281v-146h-517v129l193 202q80 84 106 125.5t26 83.5q0 36 -20 56.5t-57 20.5q-39 0 -61 -26.5t-23 -69.5v-3h-175v3z" />
    <glyph glyph-name="three.sups" unicode="&#xb3;" horiz-adv-x="745" 
d="M287 1264v132h74q89 0 89 84q0 40 -21.5 61.5t-61.5 21.5q-42 0 -65 -24t-24 -66h-174q1 112 72.5 176t194.5 64q120 0 189 -54t69 -149q0 -67 -36 -111.5t-98 -57.5v-9q72 -10 113.5 -55t41.5 -119q0 -105 -75.5 -166.5t-204.5 -61.5q-124 0 -198.5 64.5t-79.5 175.5
h183q1 -40 24.5 -63.5t67.5 -23.5q42 0 65 24t23 68q0 89 -95 89h-73z" />
    <glyph glyph-name="acute" unicode="&#xb4;" horiz-adv-x="866" 
d="M427 1246h-215l172 320h237z" />
    <glyph glyph-name="mugreek" unicode="&#xb5;" horiz-adv-x="1114" 
d="M119 -348v1442h253v-707q0 -95 34.5 -141.5t109.5 -46.5q78 0 120 53.5t42 144.5v697h253v-804q0 -56 16 -78t55 -22q16 0 46 6l7 -192q-50 -13 -118 -13q-97 0 -150 36t-75 119l-5 19h-9q-36 -179 -190 -179q-93 0 -127 66h-10v-400h-252z" />
    <glyph glyph-name="mugreek" unicode="&#x3bc;" horiz-adv-x="1114" 
d="M119 -348v1442h253v-707q0 -95 34.5 -141.5t109.5 -46.5q78 0 120 53.5t42 144.5v697h253v-804q0 -56 16 -78t55 -22q16 0 46 6l7 -192q-50 -13 -118 -13q-97 0 -150 36t-75 119l-5 19h-9q-36 -179 -190 -179q-93 0 -127 66h-10v-400h-252z" />
    <glyph glyph-name="paragraph" unicode="&#xb6;" horiz-adv-x="1199" 
d="M721 -243h-199v792h-15q-181 0 -294.5 124t-113.5 318q0 202 111.5 327t296.5 125h214v-1686zM860 -243v1686h200v-1686h-200z" />
    <glyph glyph-name="periodcentered" unicode="&#xb7;" horiz-adv-x="555" 
d="M277 461q-66 0 -109.5 43.5t-43.5 107.5q0 65 43.5 108t109.5 43q67 0 110.5 -43t43.5 -108q0 -64 -44 -107.5t-110 -43.5z" />
    <glyph glyph-name="cedilla" unicode="&#xb8;" horiz-adv-x="835" 
d="M302 -209v90l54 139h140v-20l-34 -91q159 -24 159 -176q1 -94 -62.5 -144.5t-170.5 -50.5q-76 0 -121 16v126q30 -14 89 -14q93 0 93 62q0 34 -24.5 48.5t-82.5 14.5h-40z" />
    <glyph glyph-name="one.sups" unicode="&#xb9;" horiz-adv-x="603" 
d="M262 946v581h-6l-160 -125v165l166 130h191v-751h-191z" />
    <glyph glyph-name="o.sups" unicode="&#xba;" horiz-adv-x="731" 
d="M365 711q-147 0 -224.5 94t-77.5 279q0 183 78.5 277.5t223.5 94.5q146 0 225 -94.5t79 -277.5q0 -186 -78 -279.5t-226 -93.5zM365 861q56 0 82 53.5t26 169.5q0 115 -26 168.5t-82 53.5q-55 0 -81 -53.5t-26 -168.5q0 -117 26 -170t81 -53z" />
    <glyph glyph-name="guillemotright" unicode="&#xbb;" horiz-adv-x="1170" 
d="M391 572l-275 410h229l277 -413v-8l-273 -412h-233l275 411v12zM823 572l-275 410h229l277 -413v-8l-273 -412h-233l275 411v12z" />
    <glyph glyph-name="onequarter" unicode="&#xbc;" horiz-adv-x="1669" 
d="M1136 279v-9h172v351h-8q-65 -119 -164 -342zM1302 0v129h-325v149q129 294 235 472h269v-477h79v-144h-79v-129h-179zM552 0h-214l407 788l323 655h214l-379 -727zM262 693v581h-6l-160 -125v164l166 130h191v-750h-191z" />
    <glyph glyph-name="onehalf" unicode="&#xbd;" horiz-adv-x="1730" 
d="M1094 517v4q2 111 73 178.5t193 67.5q120 0 189.5 -59t69.5 -161q0 -69 -39.5 -133.5t-139.5 -164.5l-99 -97v-6h281v-146h-517v129l193 202q79 84 105.5 125.5t26.5 82.5q0 37 -20 57t-57 20q-39 0 -61 -26t-23 -69v-4h-175zM552 0h-214l407 788l323 655h214l-379 -727z
M262 693v581h-6l-160 -125v164l166 130h191v-750h-191z" />
    <glyph glyph-name="threequarters" unicode="&#xbe;" horiz-adv-x="1813" 
d="M287 1010v132h74q89 0 89 84q0 40 -21.5 61.5t-61.5 21.5q-42 0 -65 -23.5t-24 -65.5h-174q1 112 72.5 175.5t194.5 63.5q120 0 189 -54t69 -149q0 -66 -36.5 -111t-97.5 -57v-10q72 -9 113.5 -54t41.5 -119q0 -105 -75 -166.5t-205 -61.5q-124 0 -198.5 64t-79.5 175
h183q1 -40 25 -63.5t67 -23.5q42 0 65 24t23 68q0 89 -95 89h-73zM696 0h-214l407 788l323 655h214l-380 -727zM1446 0v129h-325v149q128 291 234 472h270v-477h79v-144h-79v-129h-179zM1280 279v-9h171v351h-8q-66 -122 -163 -342z" />
    <glyph glyph-name="questiondown" unicode="&#xbf;" horiz-adv-x="934" 
d="M874 69q-2 -187 -106.5 -298.5t-292.5 -111.5q-180 0 -285.5 98t-105.5 263q0 105 41 183.5t129 157.5q85 76 113.5 127.5t28.5 123.5v53h225l2 -66q7 -104 -26.5 -176.5t-120.5 -155.5q-76 -74 -102.5 -122t-26.5 -118q0 -76 37.5 -116.5t106.5 -40.5q68 0 106 51
t41 148h236zM503 841q-68 0 -111 41.5t-43 106.5t43.5 106.5t110.5 41.5t110 -41.5t43 -106.5t-43 -106.5t-110 -41.5z" />
    <glyph glyph-name="Agrave" unicode="&#xc0;" horiz-adv-x="1217" 
d="M878 0l-83 334h-388l-80 -334h-269l387 1443h327l386 -1443h-280zM592 1168l-141 -629h300l-146 629h-13zM505 1566l-234 308h246l202 -308h-214z" />
    <glyph glyph-name="Aacute" unicode="&#xc1;" horiz-adv-x="1217" 
d="M878 0l-83 334h-388l-80 -334h-269l387 1443h327l386 -1443h-280zM592 1168l-141 -629h300l-146 629h-13zM708 1564h-213l202 308h245z" />
    <glyph glyph-name="Acircumflex" unicode="&#xc2;" horiz-adv-x="1217" 
d="M878 0l-83 334h-388l-80 -334h-269l387 1443h327l386 -1443h-280zM592 1168l-141 -629h300l-146 629h-13zM501 1871h211l218 -315h-201l-118 195h-9l-118 -195h-201z" />
    <glyph glyph-name="Atilde" unicode="&#xc3;" horiz-adv-x="1217" 
d="M878 0l-83 334h-388l-80 -334h-269l387 1443h327l386 -1443h-280zM592 1168l-141 -629h300l-146 629h-13zM726 1592q-36 0 -67 13.5t-51.5 32t-38 37.5t-35 32.5t-34.5 13.5q-55 0 -57 -119h-144q0 127 52 199.5t141 72.5q44 0 81 -20t57.5 -44t44 -44t43.5 -20
q55 0 56 118h144q0 -126 -52 -199t-140 -73z" />
    <glyph glyph-name="Adieresis" unicode="&#xc4;" horiz-adv-x="1217" 
d="M878 0l-83 334h-388l-80 -334h-269l387 1443h327l386 -1443h-280zM592 1168l-141 -629h300l-146 629h-13zM423 1575q-56 0 -93.5 37.5t-37.5 91.5q0 55 37.5 92t93.5 37q55 0 92.5 -37t37.5 -92q0 -54 -37.5 -91.5t-92.5 -37.5zM791 1575q-55 0 -92.5 37.5t-37.5 91.5
q0 55 37.5 92t92.5 37q56 0 93.5 -37t37.5 -92q0 -54 -37.5 -91.5t-93.5 -37.5z" />
    <glyph glyph-name="Aring" unicode="&#xc5;" horiz-adv-x="1217" 
d="M878 0l-83 334h-388l-80 -334h-269l387 1443h327l386 -1443h-280zM592 1168l-141 -629h300l-146 629h-13zM607 1533q-80 0 -132.5 53t-52.5 138t52.5 138t132.5 53t132 -53t52 -138t-52 -138t-132 -53zM607 1632q36 0 58 25t22 67t-22 67t-58 25t-58.5 -25t-22.5 -67
t22.5 -67t58.5 -25z" />
    <glyph glyph-name="AE" unicode="&#xc6;" horiz-adv-x="1651" 
d="M699 1229l-193 -621h291v621h-98zM797 0v402h-352l-126 -402h-267l465 1443h1031v-220h-497v-390h468v-207h-468v-406h497v-220h-751z" />
    <glyph glyph-name="Ccedilla" unicode="&#xc7;" horiz-adv-x="1199" 
d="M857 476h255q-14 -221 -120.5 -350.5t-294.5 -150.5l-25 -66q159 -24 159 -176q1 -94 -62.5 -144.5t-170.5 -50.5q-76 0 -121 16v127q29 -15 89 -15q93 0 93 62q0 34 -24.5 48.5t-82.5 14.5h-40v91l37 94q-221 28 -337.5 218t-116.5 528q0 367 136 558.5t393 191.5
q220 0 347.5 -137.5t139.5 -387.5h-255q-13 148 -72.5 224.5t-158.5 76.5q-129 0 -194.5 -133.5t-65.5 -391.5q0 -261 65.5 -394.5t194.5 -133.5q204 0 232 281z" />
    <glyph glyph-name="Egrave" unicode="&#xc8;" horiz-adv-x="1006" 
d="M903 220v-220h-772v1443h772v-220h-508v-387h479v-208h-479v-408h508zM416 1566l-234 308h245l202 -308h-213z" />
    <glyph glyph-name="Eacute" unicode="&#xc9;" horiz-adv-x="1006" 
d="M903 220v-220h-772v1443h772v-220h-508v-387h479v-208h-479v-408h508zM619 1564h-214l202 308h246z" />
    <glyph glyph-name="Ecircumflex" unicode="&#xca;" horiz-adv-x="1006" 
d="M903 220v-220h-772v1443h772v-220h-508v-387h479v-208h-479v-408h508zM411 1871h212l217 -315h-201l-117 195h-10l-117 -195h-202z" />
    <glyph glyph-name="Edieresis" unicode="&#xcb;" horiz-adv-x="1006" 
d="M903 220v-220h-772v1443h772v-220h-508v-387h479v-208h-479v-408h508zM333 1575q-55 0 -92.5 37.5t-37.5 91.5q0 55 37.5 92t92.5 37q56 0 93.5 -37t37.5 -92q0 -54 -37.5 -91.5t-93.5 -37.5zM702 1575q-56 0 -93.5 37.5t-37.5 91.5q0 55 37.5 92t93.5 37q55 0 92.5 -37
t37.5 -92q0 -54 -37.5 -91.5t-92.5 -37.5z" />
    <glyph glyph-name="Igrave" unicode="&#xcc;" horiz-adv-x="526" 
d="M395 0h-264v1443h264v-1443zM161 1566l-233 308h245l202 -308h-214z" />
    <glyph glyph-name="Iacute" unicode="&#xcd;" horiz-adv-x="526" 
d="M395 0h-264v1443h264v-1443zM365 1564h-214l202 308h245z" />
    <glyph glyph-name="Icircumflex" unicode="&#xce;" horiz-adv-x="526" 
d="M395 0h-264v1443h264v-1443zM157 1871h212l217 -315h-201l-118 195h-9l-117 -195h-202z" />
    <glyph glyph-name="Idieresis" unicode="&#xcf;" horiz-adv-x="526" 
d="M395 0h-264v1443h264v-1443zM79 1575q-56 0 -93 37.5t-37 91.5q0 55 37 92t93 37q55 0 92.5 -37t37.5 -92q0 -54 -37.5 -91.5t-92.5 -37.5zM447 1575q-55 0 -92.5 37.5t-37.5 91.5q0 55 37.5 92t92.5 37q56 0 93.5 -37t37.5 -92q0 -54 -37.5 -91.5t-93.5 -37.5z" />
    <glyph glyph-name="Eth" unicode="&#xd0;" horiz-adv-x="1228" 
d="M395 222h148q164 0 242 123t78 380q0 497 -320 497h-148v-391h160v-195h-160v-414zM131 1443h448q273 0 413.5 -179.5t140.5 -536.5q0 -361 -140.5 -544t-413.5 -183h-448v636h-115v195h115v612z" />
    <glyph glyph-name="Ntilde" unicode="&#xd1;" horiz-adv-x="1260" 
d="M368 0h-237v1443h271l480 -1004h9v1004h237v-1443h-270l-480 1005h-10v-1005zM748 1592q-36 0 -67 13.5t-51.5 32t-38 37.5t-35 32.5t-34.5 13.5q-55 0 -58 -119h-143q0 127 52 199.5t141 72.5q44 0 81 -20t57.5 -44t44 -44t43.5 -20q55 0 56 118h144q0 -126 -52 -199
t-140 -73z" />
    <glyph glyph-name="Ograve" unicode="&#xd2;" horiz-adv-x="1269" 
d="M635 1472q260 0 399.5 -194.5t139.5 -556.5t-139.5 -556t-399.5 -194q-261 0 -400.5 194t-139.5 556q0 361 140 556t400 195zM635 1247q-131 0 -200.5 -133t-69.5 -393q0 -261 69 -393t201 -132q131 0 200 132t69 393t-68.5 393.5t-200.5 132.5zM534 1566l-234 308h246
l202 -308h-214z" />
    <glyph glyph-name="Oacute" unicode="&#xd3;" horiz-adv-x="1269" 
d="M635 1472q260 0 399.5 -194.5t139.5 -556.5t-139.5 -556t-399.5 -194q-261 0 -400.5 194t-139.5 556q0 361 140 556t400 195zM635 1247q-131 0 -200.5 -133t-69.5 -393q0 -261 69 -393t201 -132q131 0 200 132t69 393t-68.5 393.5t-200.5 132.5zM737 1564h-213l201 308
h246z" />
    <glyph glyph-name="Ocircumflex" unicode="&#xd4;" horiz-adv-x="1269" 
d="M635 1472q260 0 399.5 -194.5t139.5 -556.5t-139.5 -556t-399.5 -194q-261 0 -400.5 194t-139.5 556q0 361 140 556t400 195zM635 1247q-131 0 -200.5 -133t-69.5 -393q0 -261 69 -393t201 -132q131 0 200 132t69 393t-68.5 393.5t-200.5 132.5zM529 1871h212l218 -315
h-202l-117 195h-9l-118 -195h-201z" />
    <glyph glyph-name="Otilde" unicode="&#xd5;" horiz-adv-x="1269" 
d="M635 1472q260 0 399.5 -194.5t139.5 -556.5t-139.5 -556t-399.5 -194q-261 0 -400.5 194t-139.5 556q0 361 140 556t400 195zM635 1247q-131 0 -200.5 -133t-69.5 -393q0 -261 69 -393t201 -132q131 0 200 132t69 393t-68.5 393.5t-200.5 132.5zM755 1592q-36 0 -67 13.5
t-51.5 32t-38 37.5t-35 32.5t-34.5 13.5q-55 0 -58 -119h-143q0 127 52 199.5t140 72.5q44 0 81.5 -20t58 -44t44 -44t43.5 -20q55 0 56 118h144q0 -126 -52 -199t-140 -73z" />
    <glyph glyph-name="Odieresis" unicode="&#xd6;" horiz-adv-x="1269" 
d="M635 1472q260 0 399.5 -194.5t139.5 -556.5t-139.5 -556t-399.5 -194q-261 0 -400.5 194t-139.5 556q0 361 140 556t400 195zM635 1247q-131 0 -200.5 -133t-69.5 -393q0 -261 69 -393t201 -132q131 0 200 132t69 393t-68.5 393.5t-200.5 132.5zM452 1575
q-56 0 -93.5 37.5t-37.5 91.5q0 55 37.5 92t93.5 37q55 0 92.5 -37t37.5 -92q0 -54 -37.5 -91.5t-92.5 -37.5zM820 1575q-55 0 -92.5 37.5t-37.5 91.5q0 55 37.5 92t92.5 37q56 0 93.5 -37t37.5 -92q0 -54 -37.5 -91.5t-93.5 -37.5z" />
    <glyph glyph-name="multiply" unicode="&#xd7;" horiz-adv-x="1133" 
d="M567 421l-255 -306l-160 140l276 327l-273 324l159 140l253 -302l253 302l160 -140l-274 -324l276 -327l-160 -140z" />
    <glyph glyph-name="Oslash" unicode="&#xd8;" horiz-adv-x="1262" 
d="M873 1013l-420 -717q66 -100 182 -100q131 0 200 132t69 393q0 177 -31 292zM393 440l419 714q-66 93 -177 93q-131 0 -200.5 -133t-69.5 -393q0 -163 28 -281zM1125 1442l-94 -160q143 -195 143 -561q0 -362 -139.5 -556t-399.5 -194q-185 0 -314 101l-55 -94l-130 24
l97 165q-138 193 -138 554t140 556t400 195q183 0 307 -97l52 89z" />
    <glyph glyph-name="Ugrave" unicode="&#xd9;" horiz-adv-x="1237" 
d="M393 1443v-940q0 -304 225 -304q226 0 226 304v940h264v-955q0 -246 -127.5 -381.5t-362.5 -135.5q-234 0 -361.5 135.5t-127.5 381.5v955h264zM517 1566l-234 308h246l202 -308h-214z" />
    <glyph glyph-name="Uacute" unicode="&#xda;" horiz-adv-x="1237" 
d="M393 1443v-940q0 -304 225 -304q226 0 226 304v940h264v-955q0 -246 -127.5 -381.5t-362.5 -135.5q-234 0 -361.5 135.5t-127.5 381.5v955h264zM720 1564h-214l202 308h246z" />
    <glyph glyph-name="Ucircumflex" unicode="&#xdb;" horiz-adv-x="1237" 
d="M393 1443v-940q0 -304 225 -304q226 0 226 304v940h264v-955q0 -246 -127.5 -381.5t-362.5 -135.5q-234 0 -361.5 135.5t-127.5 381.5v955h264zM512 1871h212l218 -315h-202l-117 195h-9l-118 -195h-201z" />
    <glyph glyph-name="Udieresis" unicode="&#xdc;" horiz-adv-x="1237" 
d="M393 1443v-940q0 -304 225 -304q226 0 226 304v940h264v-955q0 -246 -127.5 -381.5t-362.5 -135.5q-234 0 -361.5 135.5t-127.5 381.5v955h264zM435 1575q-56 0 -93.5 37.5t-37.5 91.5q0 55 37.5 92t93.5 37q55 0 92.5 -37t37.5 -92q0 -54 -37.5 -91.5t-92.5 -37.5z
M803 1575q-55 0 -92.5 37.5t-37.5 91.5q0 55 37.5 92t92.5 37q56 0 93 -37t37 -92q0 -54 -37 -91.5t-93 -37.5z" />
    <glyph glyph-name="Yacute" unicode="&#xdd;" horiz-adv-x="1162" 
d="M711 0h-264v540l-389 903h278l240 -632h10l246 632h272l-392 -903zM681 1564h-213l202 308h245z" />
    <glyph glyph-name="Thorn" unicode="&#xde;" horiz-adv-x="1102" 
d="M131 1443h266v-245h212q190 0 299 -116t109 -328t-113.5 -328.5t-309.5 -116.5h-199v-309h-264v1443zM395 985v-465h149q206 0 206 233q0 232 -204 232h-151z" />
    <glyph glyph-name="germandbls" unicode="&#xdf;" horiz-adv-x="1141" 
d="M390 0h-254v1090q0 186 110 290t305 104q185 0 296 -100t112 -266q0 -123 -47 -208t-129 -118v-9q127 -16 198.5 -114t71.5 -261q0 -197 -103.5 -310t-288.5 -113q-100 0 -151 15v205q44 -16 102 -16q90 0 135.5 59.5t45.5 171.5q0 116 -52.5 176t-153.5 60h-59v208h39
q69 0 106.5 57t37.5 163q0 88 -41.5 140t-116.5 52q-163 0 -163 -225v-1051z" />
    <glyph glyph-name="agrave" unicode="&#xe0;" horiz-adv-x="993" 
d="M466 179q73 0 118.5 50t45.5 134v136l-137 -19q-83 -14 -123.5 -51t-40.5 -107t36.5 -106.5t100.5 -36.5zM371 -14q-131 0 -212.5 85t-81.5 232q0 145 91 228t283 111l179 23v92q0 76 -35.5 114.5t-101.5 38.5q-131 0 -150 -138h-232q7 156 111.5 248t280.5 92
q184 0 280.5 -89.5t96.5 -260.5v-762h-248v131h-10q-31 -67 -98 -106t-153 -39zM619 1246h-213l-195 320h236z" />
    <glyph glyph-name="aacute" unicode="&#xe1;" horiz-adv-x="993" 
d="M466 179q73 0 118.5 50t45.5 134v136l-137 -19q-83 -14 -123.5 -51t-40.5 -107t36.5 -106.5t100.5 -36.5zM371 -14q-131 0 -212.5 85t-81.5 232q0 145 91 228t283 111l179 23v92q0 76 -35.5 114.5t-101.5 38.5q-131 0 -150 -138h-232q7 156 111.5 248t280.5 92
q184 0 280.5 -89.5t96.5 -260.5v-762h-248v131h-10q-31 -67 -98 -106t-153 -39zM604 1246h-214l172 320h237z" />
    <glyph glyph-name="acircumflex" unicode="&#xe2;" horiz-adv-x="993" 
d="M466 179q73 0 118.5 50t45.5 134v136l-137 -19q-83 -14 -123.5 -51t-40.5 -107t36.5 -106.5t100.5 -36.5zM371 -14q-131 0 -212.5 85t-81.5 232q0 145 91 228t283 111l179 23v92q0 76 -35.5 114.5t-101.5 38.5q-131 0 -150 -138h-232q7 156 111.5 248t280.5 92
q184 0 280.5 -89.5t96.5 -260.5v-762h-248v131h-10q-31 -67 -98 -106t-153 -39zM616 1556l201 -321h-201l-109 191h-10l-109 -191h-199l201 321h226z" />
    <glyph glyph-name="atilde" unicode="&#xe3;" horiz-adv-x="993" 
d="M466 179q73 0 118.5 50t45.5 134v136l-137 -19q-83 -14 -123.5 -51t-40.5 -107t36.5 -106.5t100.5 -36.5zM371 -14q-131 0 -212.5 85t-81.5 232q0 145 91 228t283 111l179 23v92q0 76 -35.5 114.5t-101.5 38.5q-131 0 -150 -138h-232q7 156 111.5 248t280.5 92
q184 0 280.5 -89.5t96.5 -260.5v-762h-248v131h-10q-31 -67 -98 -106t-153 -39zM625 1250q-44 0 -81 20t-57.5 44t-44 44t-43.5 20q-56 0 -57 -119h-144q0 128 52 200.5t141 72.5q36 0 67 -13.5t51.5 -32t38 -37.5t35 -32.5t34.5 -13.5q55 0 56 119h144q0 -126 -52 -199
t-140 -73z" />
    <glyph glyph-name="adieresis" unicode="&#xe4;" horiz-adv-x="993" 
d="M466 179q73 0 118.5 50t45.5 134v136l-137 -19q-83 -14 -123.5 -51t-40.5 -107t36.5 -106.5t100.5 -36.5zM371 -14q-131 0 -212.5 85t-81.5 232q0 145 91 228t283 111l179 23v92q0 76 -35.5 114.5t-101.5 38.5q-131 0 -150 -138h-232q7 156 111.5 248t280.5 92
q184 0 280.5 -89.5t96.5 -260.5v-762h-248v131h-10q-31 -67 -98 -106t-153 -39zM321 1231q-56 0 -93.5 37.5t-37.5 91.5q0 55 37.5 92t93.5 37q55 0 92.5 -37t37.5 -92q0 -54 -37.5 -91.5t-92.5 -37.5zM689 1231q-55 0 -92.5 37.5t-37.5 91.5q0 55 37.5 92t92.5 37
q56 0 93 -37t37 -92q0 -54 -37 -91.5t-93 -37.5z" />
    <glyph glyph-name="aring" unicode="&#xe5;" horiz-adv-x="993" 
d="M466 179q73 0 118.5 50t45.5 134v136l-137 -19q-83 -14 -123.5 -51t-40.5 -107t36.5 -106.5t100.5 -36.5zM371 -14q-131 0 -212.5 85t-81.5 232q0 145 91 228t283 111l179 23v92q0 76 -35.5 114.5t-101.5 38.5q-131 0 -150 -138h-232q7 156 111.5 248t280.5 92
q184 0 280.5 -89.5t96.5 -260.5v-762h-248v131h-10q-31 -67 -98 -106t-153 -39zM505 1228q-88 0 -146 59.5t-58 154.5q0 93 58 153t146 60t145.5 -60t57.5 -153q0 -94 -57.5 -154t-145.5 -60zM505 1339q38 0 61.5 28t23.5 74t-24 74t-61 28q-38 0 -62 -28t-24 -74t24 -74
t62 -28z" />
    <glyph glyph-name="ae" unicode="&#xe6;" horiz-adv-x="1562" 
d="M1089 -18q-119 0 -205 53t-124 145h-9q-44 -93 -132 -144.5t-208 -51.5q-151 0 -242.5 85.5t-91.5 232.5q0 145 93.5 227.5t291.5 105.5l168 17v83q0 86 -36.5 130.5t-106.5 44.5q-132 0 -148 -135h-233q9 153 108 245t263 92q113 0 189.5 -43.5t108.5 -115.5h10
q40 72 120 115.5t183 43.5q188 0 291.5 -137.5t103.5 -401.5v-83h-586v-18q1 -138 51 -215t139 -77q120 0 157 138h232q-23 -157 -125.5 -246.5t-261.5 -89.5zM1075 915q-80 0 -125.5 -66.5t-50.5 -192.5h339q-6 259 -163 259zM467 179q74 0 118.5 52.5t44.5 141.5v119
l-116 -11q-98 -14 -141.5 -51.5t-43.5 -107.5t36.5 -106.5t101.5 -36.5z" />
    <glyph glyph-name="ccedilla" unicode="&#xe7;" horiz-adv-x="976" 
d="M904 710h-235q-18 195 -152 195q-173 0 -173 -357q0 -359 173 -359q68 0 105.5 44.5t46.5 144.5h235q-8 -171 -88.5 -271t-223.5 -120l-29 -78q159 -24 159 -176q1 -94 -62.5 -144.5t-170.5 -50.5q-76 0 -121 16v127q28 -15 89 -15q93 0 93 62q0 34 -24.5 48.5
t-82.5 14.5h-40v91l41 105q-175 23 -266.5 164.5t-91.5 396.5q0 277 110 420.5t319 143.5q176 0 278 -106.5t111 -295.5z" />
    <glyph glyph-name="egrave" unicode="&#xe8;" horiz-adv-x="999" 
d="M511 914q-161 0 -173 -260h340q-7 260 -167 260zM678 325h232q-23 -167 -126.5 -255t-270.5 -88q-208 0 -317.5 142t-109.5 419q0 276 110 422.5t312 146.5q198 0 305 -139t107 -405v-82h-585v-15q1 -144 48 -217.5t135 -73.5q132 0 160 145zM620 1246h-212l-195 320h235
z" />
    <glyph glyph-name="eacute" unicode="&#xe9;" horiz-adv-x="999" 
d="M511 914q-161 0 -173 -260h340q-7 260 -167 260zM678 325h232q-23 -167 -126.5 -255t-270.5 -88q-208 0 -317.5 142t-109.5 419q0 276 110 422.5t312 146.5q198 0 305 -139t107 -405v-82h-585v-15q1 -144 48 -217.5t135 -73.5q132 0 160 145zM606 1246h-214l172 320h237z
" />
    <glyph glyph-name="ecircumflex" unicode="&#xea;" horiz-adv-x="999" 
d="M511 914q-161 0 -173 -260h340q-7 260 -167 260zM678 325h232q-23 -167 -126.5 -255t-270.5 -88q-208 0 -317.5 142t-109.5 419q0 276 110 422.5t312 146.5q198 0 305 -139t107 -405v-82h-585v-15q1 -144 48 -217.5t135 -73.5q132 0 160 145zM618 1556l200 -321h-200
l-109 191h-10l-109 -191h-199l201 321h226z" />
    <glyph glyph-name="edieresis" unicode="&#xeb;" horiz-adv-x="999" 
d="M511 914q-161 0 -173 -260h340q-7 260 -167 260zM678 325h232q-23 -167 -126.5 -255t-270.5 -88q-208 0 -317.5 142t-109.5 419q0 276 110 422.5t312 146.5q198 0 305 -139t107 -405v-82h-585v-15q1 -144 48 -217.5t135 -73.5q132 0 160 145zM322 1231q-55 0 -92.5 37.5
t-37.5 91.5q0 55 37.5 92t92.5 37q56 0 93.5 -37t37.5 -92q0 -54 -37.5 -91.5t-93.5 -37.5zM691 1231q-56 0 -93 37.5t-37 91.5q0 55 37 92t93 37q55 0 92.5 -37t37.5 -92q0 -54 -37.5 -91.5t-92.5 -37.5z" />
    <glyph glyph-name="igrave" unicode="&#xec;" horiz-adv-x="494" 
d="M119 0v1094h255v-1094h-255zM361 1246h-213l-194 320h235z" />
    <glyph glyph-name="iacute" unicode="&#xed;" horiz-adv-x="494" 
d="M119 0v1094h255v-1094h-255zM347 1246h-215l172 320h237z" />
    <glyph glyph-name="icircumflex" unicode="&#xee;" horiz-adv-x="494" 
d="M119 0v1094h255v-1094h-255zM358 1556l201 -321h-201l-109 191h-9l-109 -191h-199l200 321h226z" />
    <glyph glyph-name="idieresis" unicode="&#xef;" horiz-adv-x="494" 
d="M119 0v1094h255v-1094h-255zM63 1231q-56 0 -93 37.5t-37 91.5q0 55 37 92t93 37q55 0 92.5 -37t37.5 -92q0 -54 -37.5 -91.5t-92.5 -37.5zM432 1231q-56 0 -93.5 37.5t-37.5 91.5q0 55 37.5 92t93.5 37q55 0 92.5 -37t37.5 -92q0 -54 -37.5 -91.5t-92.5 -37.5z" />
    <glyph glyph-name="eth" unicode="&#xf0;" horiz-adv-x="1050" 
d="M522 -18q-206 0 -320.5 139t-114.5 401q0 244 97.5 378.5t261.5 134.5q157 0 228 -130h10q-37 140 -142 284l-211 -82l-54 128l174 68q-79 83 -196 166h313q60 -45 95 -85l205 81l55 -127l-166 -66q207 -289 207 -683q0 -289 -117.5 -448t-324.5 -159zM526 845
q-89 0 -133.5 -83.5t-44.5 -241.5q0 -159 46.5 -243t135.5 -84t135.5 84.5t46.5 242.5q0 155 -48 240t-138 85z" />
    <glyph glyph-name="ntilde" unicode="&#xf1;" horiz-adv-x="1048" 
d="M119 0v1094h248v-156h10q33 82 102 127.5t166 45.5q144 0 217.5 -89.5t73.5 -257.5v-764h-254v712q0 94 -36 139.5t-111 45.5q-77 0 -119 -53t-42 -151v-693h-255zM650 1250q-44 0 -81 20t-57.5 44t-44 44t-43.5 20q-55 0 -58 -119h-143q0 127 52 200t140 73
q36 0 67 -13.5t52 -32t38.5 -37.5t35 -32.5t34.5 -13.5q55 0 56 119h144q0 -126 -52 -199t-140 -73z" />
    <glyph glyph-name="ograve" unicode="&#xf2;" horiz-adv-x="1053" 
d="M526 -18q-213 0 -326.5 143t-113.5 422q0 276 114.5 420.5t325.5 144.5q212 0 326.5 -144t114.5 -421q0 -279 -113.5 -422t-327.5 -143zM526 186q92 0 136.5 88t44.5 273q0 184 -44.5 272.5t-136.5 88.5q-180 0 -180 -361q0 -185 44 -273t136 -88zM641 1246h-213
l-195 320h236z" />
    <glyph glyph-name="oacute" unicode="&#xf3;" horiz-adv-x="1053" 
d="M526 -18q-213 0 -326.5 143t-113.5 422q0 276 114.5 420.5t325.5 144.5q212 0 326.5 -144t114.5 -421q0 -279 -113.5 -422t-327.5 -143zM526 186q92 0 136.5 88t44.5 273q0 184 -44.5 272.5t-136.5 88.5q-180 0 -180 -361q0 -185 44 -273t136 -88zM626 1246h-214l172 320
h237z" />
    <glyph glyph-name="ocircumflex" unicode="&#xf4;" horiz-adv-x="1053" 
d="M526 -18q-213 0 -326.5 143t-113.5 422q0 276 114.5 420.5t325.5 144.5q212 0 326.5 -144t114.5 -421q0 -279 -113.5 -422t-327.5 -143zM526 186q92 0 136.5 88t44.5 273q0 184 -44.5 272.5t-136.5 88.5q-180 0 -180 -361q0 -185 44 -273t136 -88zM638 1556l201 -321
h-201l-109 191h-10l-108 -191h-199l200 321h226z" />
    <glyph glyph-name="otilde" unicode="&#xf5;" horiz-adv-x="1053" 
d="M526 -18q-213 0 -326.5 143t-113.5 422q0 276 114.5 420.5t325.5 144.5q212 0 326.5 -144t114.5 -421q0 -279 -113.5 -422t-327.5 -143zM526 186q92 0 136.5 88t44.5 273q0 184 -44.5 272.5t-136.5 88.5q-180 0 -180 -361q0 -185 44 -273t136 -88zM647 1250q-44 0 -81 20
t-57.5 44t-44 44t-43.5 20q-56 0 -57 -119h-144q0 128 52 200.5t141 72.5q36 0 67 -13.5t51.5 -32t38 -37.5t35 -32.5t34.5 -13.5q55 0 56 119h144q0 -126 -51.5 -199t-140.5 -73z" />
    <glyph glyph-name="odieresis" unicode="&#xf6;" horiz-adv-x="1053" 
d="M526 -18q-213 0 -326.5 143t-113.5 422q0 276 114.5 420.5t325.5 144.5q212 0 326.5 -144t114.5 -421q0 -279 -113.5 -422t-327.5 -143zM526 186q92 0 136.5 88t44.5 273q0 184 -44.5 272.5t-136.5 88.5q-180 0 -180 -361q0 -185 44 -273t136 -88zM343 1231
q-56 0 -93.5 37.5t-37.5 91.5q0 55 37.5 92t93.5 37q55 0 92.5 -37t37.5 -92q0 -54 -37.5 -91.5t-92.5 -37.5zM711 1231q-55 0 -92.5 37.5t-37.5 91.5q0 55 37.5 92t92.5 37q56 0 93.5 -37t37.5 -92q0 -54 -37.5 -91.5t-93.5 -37.5z" />
    <glyph glyph-name="divide" unicode="&#xf7;" horiz-adv-x="1133" 
d="M567 817q-61 0 -102 40t-41 100q0 61 41 101.5t102 40.5q62 0 103 -40.5t41 -101.5q0 -60 -41 -100t-103 -40zM567 53q-61 0 -102 40.5t-41 101.5t40.5 101t102.5 40t102.5 -40t40.5 -101t-41 -101.5t-102 -40.5zM994 477h-855v199h855v-199z" />
    <glyph glyph-name="oslash" unicode="&#xf8;" horiz-adv-x="1053" 
d="M695 710l-284 -470q43 -54 115 -54q92 0 136.5 88t44.5 273q0 94 -12 163zM358 379l285 472q-43 57 -117 57q-180 0 -180 -361q0 -97 12 -168zM928 1095l-76 -126q115 -146 115 -422q0 -279 -113.5 -422t-327.5 -143q-138 0 -234 60l-39 -64l-124 22l73 121
q-116 145 -116 426q0 276 114.5 420.5t325.5 144.5q139 0 237 -62l40 66z" />
    <glyph glyph-name="ugrave" unicode="&#xf9;" horiz-adv-x="1049" 
d="M930 1094v-1094h-248v149h-9q-69 -163 -264 -163q-140 0 -218.5 90t-78.5 255v763h255v-710q0 -94 35 -139.5t109 -45.5q77 0 120 48.5t45 141.5v705h254zM636 1246h-212l-195 320h235z" />
    <glyph glyph-name="uacute" unicode="&#xfa;" horiz-adv-x="1049" 
d="M930 1094v-1094h-248v149h-9q-69 -163 -264 -163q-140 0 -218.5 90t-78.5 255v763h255v-710q0 -94 35 -139.5t109 -45.5q77 0 120 48.5t45 141.5v705h254zM622 1246h-214l172 320h237z" />
    <glyph glyph-name="ucircumflex" unicode="&#xfb;" horiz-adv-x="1049" 
d="M930 1094v-1094h-248v149h-9q-69 -163 -264 -163q-140 0 -218.5 90t-78.5 255v763h255v-710q0 -94 35 -139.5t109 -45.5q77 0 120 48.5t45 141.5v705h254zM634 1556l200 -321h-200l-109 191h-10l-109 -191h-199l201 321h226z" />
    <glyph glyph-name="udieresis" unicode="&#xfc;" horiz-adv-x="1049" 
d="M930 1094v-1094h-248v149h-9q-69 -163 -264 -163q-140 0 -218.5 90t-78.5 255v763h255v-710q0 -94 35 -139.5t109 -45.5q77 0 120 48.5t45 141.5v705h254zM338 1231q-55 0 -92.5 37.5t-37.5 91.5q0 55 37.5 92t92.5 37q56 0 93.5 -37t37.5 -92q0 -54 -37.5 -91.5
t-93.5 -37.5zM707 1231q-56 0 -93 37.5t-37 91.5q0 55 37 92t93 37q55 0 92.5 -37t37.5 -92q0 -54 -37.5 -91.5t-92.5 -37.5z" />
    <glyph glyph-name="yacute" unicode="&#xfd;" horiz-adv-x="1006" 
d="M225 -367q-56 0 -91 5v187q12 -3 57 -3q128 0 153 115q0 1 2.5 29t0.5 36l-303 1092h273l187 -885h11l183 885h264l-285 -1043q-41 -156 -96.5 -245.5t-140 -131t-215.5 -41.5zM605 1246h-214l172 320h237z" />
    <glyph glyph-name="thorn" unicode="&#xfe;" horiz-adv-x="1083" 
d="M643 1109q170 0 261 -144.5t91 -415.5q0 -272 -90.5 -417t-260.5 -145q-192 0 -259 166h-10v-496h-254v1808h252v-527h11q32 81 98.5 126t160.5 45zM555 197q179 0 179 352q0 350 -179 350q-180 0 -180 -351t180 -351z" />
    <glyph glyph-name="ydieresis" unicode="&#xff;" horiz-adv-x="1006" 
d="M225 -367q-56 0 -91 5v187q12 -3 57 -3q128 0 153 115q0 1 2.5 29t0.5 36l-303 1092h273l187 -885h11l183 885h264l-285 -1043q-41 -156 -96.5 -245.5t-140 -131t-215.5 -41.5zM322 1231q-56 0 -93.5 37.5t-37.5 91.5q0 55 37.5 92t93.5 37q55 0 92.5 -37t37.5 -92
q0 -54 -37.5 -91.5t-92.5 -37.5zM690 1231q-55 0 -92.5 37.5t-37.5 91.5q0 55 37.5 92t92.5 37q56 0 93.5 -37t37.5 -92q0 -54 -37.5 -91.5t-93.5 -37.5z" />
    <glyph glyph-name="Amacron" unicode="&#x100;" horiz-adv-x="1217" 
d="M878 0l-83 334h-388l-80 -334h-269l387 1443h327l386 -1443h-280zM592 1168l-141 -629h300l-146 629h-13zM896 1771v-142h-579v142h579z" />
    <glyph glyph-name="amacron" unicode="&#x101;" horiz-adv-x="993" 
d="M466 179q73 0 118.5 50t45.5 134v136l-137 -19q-83 -14 -123.5 -51t-40.5 -107t36.5 -106.5t100.5 -36.5zM371 -14q-131 0 -212.5 85t-81.5 232q0 145 91 228t283 111l179 23v92q0 76 -35.5 114.5t-101.5 38.5q-131 0 -150 -138h-232q7 156 111.5 248t280.5 92
q184 0 280.5 -89.5t96.5 -260.5v-762h-248v131h-10q-31 -67 -98 -106t-153 -39zM784 1449v-142h-561v142h561z" />
    <glyph glyph-name="Abreve" unicode="&#x102;" horiz-adv-x="1217" 
d="M878 0l-83 334h-388l-80 -334h-269l387 1443h327l386 -1443h-280zM592 1168l-141 -629h300l-146 629h-13zM301 1871h163q2 -80 39.5 -127.5t103.5 -47.5t103 47.5t39 127.5h163q-2 -142 -82 -228t-223 -86t-223.5 85.5t-82.5 228.5z" />
    <glyph glyph-name="abreve" unicode="&#x103;" horiz-adv-x="993" 
d="M466 179q73 0 118.5 50t45.5 134v136l-137 -19q-83 -14 -123.5 -51t-40.5 -107t36.5 -106.5t100.5 -36.5zM371 -14q-131 0 -212.5 85t-81.5 232q0 145 91 228t283 111l179 23v92q0 76 -35.5 114.5t-101.5 38.5q-131 0 -150 -138h-232q7 156 111.5 248t280.5 92
q184 0 280.5 -89.5t96.5 -260.5v-762h-248v131h-10q-31 -67 -98 -106t-153 -39zM196 1571h164q2 -85 39 -135t104 -50t104 50.5t39 134.5h164q-2 -148 -82.5 -236.5t-224.5 -88.5t-224.5 89t-82.5 236z" />
    <glyph glyph-name="Aogonek" unicode="&#x104;" horiz-adv-x="1217" 
d="M592 1168l-143 -627h302l-146 627h-13zM1122 -431q-45 -19 -118 -19q-110 0 -179 62.5t-69 159.5q0 130 121 228l-80 334h-392l-79 -334h-268l387 1443h327l386 -1443l-40 -14q-69 -32 -111 -76t-42 -95q0 -47 28.5 -72t76.5 -25q38 0 52 6v-155z" />
    <glyph glyph-name="aogonek" unicode="&#x105;" horiz-adv-x="993" 
d="M466 179q73 0 118.5 50t45.5 134v133l-128 -14q-89 -13 -131 -50.5t-42 -109.5q0 -70 35.5 -106.5t101.5 -36.5zM859 -431q-43 -19 -118 -19q-106 0 -172.5 61.5t-66.5 157.5q0 133 131 231v131h-9q-32 -68 -98.5 -106.5t-153.5 -38.5q-134 0 -214.5 85t-80.5 232
q0 146 92.5 230.5t290.5 109.5l170 19v95q0 153 -137 153q-131 0 -150 -138h-232q7 156 111.5 248t280.5 92q184 0 280.5 -88.5t96.5 -261.5v-762l-31 -13q-69 -32 -107.5 -78.5t-38.5 -99.5q0 -43 28 -67t77 -24q35 0 51 6v-155z" />
    <glyph glyph-name="Cacute" unicode="&#x106;" horiz-adv-x="1199" 
d="M625 -29q-257 0 -393.5 192t-136.5 559t136 558.5t393 191.5q220 0 347.5 -137.5t139.5 -387.5h-255q-13 148 -72.5 224.5t-158.5 76.5q-129 0 -194.5 -133.5t-65.5 -391.5q0 -261 65.5 -394.5t194.5 -133.5q204 0 232 281h255q-15 -242 -140.5 -373.5t-346.5 -131.5z
M726 1566h-214l202 308h245z" />
    <glyph glyph-name="cacute" unicode="&#x107;" horiz-adv-x="976" 
d="M904 710h-235q-18 195 -152 195q-173 0 -173 -357q0 -359 173 -359q68 0 105.5 44.5t46.5 144.5h235q-9 -193 -109.5 -294.5t-278.5 -101.5q-210 0 -320 142.5t-110 423.5q0 277 110 420.5t319 143.5q176 0 278 -106.5t111 -295.5zM614 1246h-214l172 320h237z" />
    <glyph glyph-name="Ccircumflex" unicode="&#x108;" horiz-adv-x="1199" 
d="M625 -29q-257 0 -393.5 192t-136.5 559t136 558.5t393 191.5q220 0 347.5 -137.5t139.5 -387.5h-255q-13 148 -72.5 224.5t-158.5 76.5q-129 0 -194.5 -133.5t-65.5 -391.5q0 -261 65.5 -394.5t194.5 -133.5q204 0 232 281h255q-15 -242 -140.5 -373.5t-346.5 -131.5z
M518 1873h212l217 -316h-201l-118 195h-9l-117 -195h-202z" />
    <glyph glyph-name="ccircumflex" unicode="&#x109;" horiz-adv-x="976" 
d="M904 710h-235q-18 195 -152 195q-173 0 -173 -357q0 -359 173 -359q68 0 105.5 44.5t46.5 144.5h235q-9 -193 -109.5 -294.5t-278.5 -101.5q-210 0 -320 142.5t-110 423.5q0 277 110 420.5t319 143.5q176 0 278 -106.5t111 -295.5zM626 1556l200 -321h-200l-109 191h-10
l-109 -191h-199l201 321h226z" />
    <glyph glyph-name="Cdotaccent" unicode="&#x10a;" horiz-adv-x="1199" 
d="M625 -29q-257 0 -393.5 192t-136.5 559t136 558.5t393 191.5q220 0 347.5 -137.5t139.5 -387.5h-255q-13 148 -72.5 224.5t-158.5 76.5q-129 0 -194.5 -133.5t-65.5 -391.5q0 -261 65.5 -394.5t194.5 -133.5q204 0 232 281h255q-15 -242 -140.5 -373.5t-346.5 -131.5z
M624 1584q-60 0 -98.5 39t-38.5 97t38.5 97t98.5 39t98 -39t38 -97t-38 -97t-98 -39z" />
    <glyph glyph-name="cdotaccent" unicode="&#x10b;" horiz-adv-x="976" 
d="M904 710h-235q-18 195 -152 195q-173 0 -173 -357q0 -359 173 -359q68 0 105.5 44.5t46.5 144.5h235q-9 -193 -109.5 -294.5t-278.5 -101.5q-210 0 -320 142.5t-110 423.5q0 277 110 420.5t319 143.5q176 0 278 -106.5t111 -295.5zM514 1260q-61 0 -102 40t-41 100
q0 59 41 99.5t102 40.5q63 0 103 -40t40 -100q0 -61 -40 -100.5t-103 -39.5z" />
    <glyph glyph-name="Ccaron" unicode="&#x10c;" horiz-adv-x="1199" 
d="M625 -29q-257 0 -393.5 192t-136.5 559t136 558.5t393 191.5q220 0 347.5 -137.5t139.5 -387.5h-255q-13 148 -72.5 224.5t-158.5 76.5q-129 0 -194.5 -133.5t-65.5 -391.5q0 -261 65.5 -394.5t194.5 -133.5q204 0 232 281h255q-15 -242 -140.5 -373.5t-346.5 -131.5z
M520 1561l-216 312h198l117 -191h10l117 191h198l-217 -312h-207z" />
    <glyph glyph-name="ccaron" unicode="&#x10d;" horiz-adv-x="976" 
d="M904 710h-235q-18 195 -152 195q-173 0 -173 -357q0 -359 173 -359q68 0 105.5 44.5t46.5 144.5h235q-9 -193 -109.5 -294.5t-278.5 -101.5q-210 0 -320 142.5t-110 423.5q0 277 110 420.5t319 143.5q176 0 278 -106.5t111 -295.5zM623 1250h-219l-212 325h203l114 -201
h10l113 201h203z" />
    <glyph glyph-name="Dcaron" unicode="&#x10e;" horiz-adv-x="1228" 
d="M131 1443h448q273 0 413.5 -179.5t140.5 -536.5q0 -361 -140.5 -544t-413.5 -183h-448v1443zM395 1222v-1000h148q164 0 242 123t78 380q0 497 -320 497h-148zM418 1560l-217 311h198l117 -191h10l117 191h198l-217 -311h-206z" />
    <glyph glyph-name="dcaron" unicode="&#x10f;" horiz-adv-x="1247" 
d="M1071 1486h208l-47 -495h-161v495zM439 -13q-170 0 -261.5 145.5t-91.5 416.5q0 270 91.5 415t261.5 145q94 0 159.5 -44t96.5 -125h10v530h255v-1470h-252v155h-10q-32 -79 -98.5 -123.5t-160.5 -44.5zM526 899q-179 0 -179 -350q0 -352 179 -352q180 0 180 351
t-180 351z" />
    <glyph glyph-name="Dcroat" unicode="&#x110;" horiz-adv-x="1229" 
d="M396 222h148q164 0 242 123t78 380q0 497 -320 497h-148v-391h159v-195h-159v-414zM132 1443h448q273 0 413.5 -179.5t140.5 -536.5q0 -361 -140.5 -544t-413.5 -183h-448v636h-116v195h116v612z" />
    <glyph glyph-name="dcroat" unicode="&#x111;" horiz-adv-x="1086" 
d="M530 197q179 0 179 351t-179 351q-180 0 -180 -350q0 -352 180 -352zM1081 1376v-169h-118v-1207h-252v155h-9q-33 -79 -99.5 -123.5t-159.5 -44.5q-170 0 -262 145.5t-92 416.5q0 270 92 415t262 145q93 0 159 -44t97 -125h9v267h-156v169h156v94h255v-94h118z" />
    <glyph glyph-name="Emacron" unicode="&#x112;" horiz-adv-x="1006" 
d="M903 220v-220h-772v1443h772v-220h-508v-387h479v-208h-479v-408h508zM807 1771v-142h-580v142h580z" />
    <glyph glyph-name="emacron" unicode="&#x113;" horiz-adv-x="999" 
d="M511 914q-161 0 -173 -260h340q-7 260 -167 260zM678 325h232q-23 -167 -126.5 -255t-270.5 -88q-208 0 -317.5 142t-109.5 419q0 276 110 422.5t312 146.5q198 0 305 -139t107 -405v-82h-585v-15q1 -144 48 -217.5t135 -73.5q132 0 160 145zM786 1449v-142h-561v142h561
z" />
    <glyph glyph-name="Ebreve" unicode="&#x114;" horiz-adv-x="1006" 
d="M903 220v-220h-772v1443h772v-220h-508v-387h479v-208h-479v-408h508zM212 1871h163q1 -80 38.5 -127.5t103.5 -47.5t103 47.5t39 127.5h163q-2 -142 -82 -228t-223 -86t-223 86t-82 228z" />
    <glyph glyph-name="ebreve" unicode="&#x115;" horiz-adv-x="999" 
d="M511 914q-161 0 -173 -260h340q-7 260 -167 260zM678 325h232q-23 -167 -126.5 -255t-270.5 -88q-208 0 -317.5 142t-109.5 419q0 276 110 422.5t312 146.5q198 0 305 -139t107 -405v-82h-585v-15q1 -144 48 -217.5t135 -73.5q132 0 160 145zM198 1571h164q2 -85 39 -135
t104 -50t104 50.5t39 134.5h164q-2 -148 -82.5 -236.5t-224.5 -88.5t-224.5 89t-82.5 236z" />
    <glyph glyph-name="Edotaccent" unicode="&#x116;" horiz-adv-x="1006" 
d="M903 220v-220h-772v1443h772v-220h-508v-387h479v-208h-479v-408h508zM517 1582q-60 0 -98.5 39t-38.5 97t38.5 97t98.5 39q61 0 99 -38.5t38 -97.5q0 -58 -38 -97t-99 -39z" />
    <glyph glyph-name="edotaccent" unicode="&#x117;" horiz-adv-x="999" 
d="M511 914q-161 0 -173 -260h340q-7 260 -167 260zM678 325h232q-23 -167 -126.5 -255t-270.5 -88q-208 0 -317.5 142t-109.5 419q0 276 110 422.5t312 146.5q198 0 305 -139t107 -405v-82h-585v-15q1 -144 48 -217.5t135 -73.5q132 0 160 145zM506 1260q-61 0 -102 40
t-41 100q0 59 41 99.5t102 40.5q63 0 103 -40t40 -100q0 -61 -40 -100.5t-103 -39.5z" />
    <glyph glyph-name="Eogonek" unicode="&#x118;" horiz-adv-x="1006" 
d="M131 0v1443h772v-220h-508v-387h479v-208h-479v-408h508v-218l-36 -15q-66 -30 -106 -75.5t-40 -98.5q0 -47 29 -73t77 -26q38 0 52 7v-152q-41 -19 -123 -19q-104 0 -173.5 61t-69.5 156q0 136 131 224l-1 9h-512z" />
    <glyph glyph-name="eogonek" unicode="&#x119;" horiz-adv-x="1006" 
d="M718 -450q-109 0 -176 61t-67 158q0 122 113 214v9q-30 -10 -72 -10q-209 0 -319.5 144t-110.5 417q0 272 111 420.5t313 148.5q200 0 308.5 -140.5t108.5 -403.5v-82h-591v-15q1 -141 49 -216t136 -75q133 0 166 144h232q-5 -127 -125 -269q-62 -71 -89.5 -124
t-27.5 -110q0 -50 28.5 -76.5t77.5 -26.5q39 0 53 6v-155q-41 -19 -118 -19zM513 914q-78 0 -123.5 -67.5t-51.5 -192.5h344q-3 127 -46.5 193.5t-122.5 66.5z" />
    <glyph glyph-name="Ecaron" unicode="&#x11a;" horiz-adv-x="1006" 
d="M903 220v-220h-772v1443h772v-220h-508v-387h479v-208h-479v-408h508zM414 1560l-217 311h198l117 -191h10l117 191h198l-217 -311h-206z" />
    <glyph glyph-name="ecaron" unicode="&#x11b;" horiz-adv-x="999" 
d="M511 914q-161 0 -173 -260h340q-7 260 -167 260zM678 325h232q-23 -167 -126.5 -255t-270.5 -88q-208 0 -317.5 142t-109.5 419q0 276 110 422.5t312 146.5q198 0 305 -139t107 -405v-82h-585v-15q1 -144 48 -217.5t135 -73.5q132 0 160 145zM615 1250h-219l-212 325h203
l114 -201h10l113 201h203z" />
    <glyph glyph-name="Gcircumflex" unicode="&#x11c;" horiz-adv-x="1241" 
d="M1148 595q0 -301 -129.5 -462.5t-373.5 -161.5q-266 0 -408 194.5t-142 560.5q0 361 140.5 553.5t400.5 192.5q219 0 348.5 -127t151.5 -359h-261q-42 262 -239 262q-272 0 -272 -520q0 -262 71.5 -397.5t211.5 -135.5q117 0 180 88t65 246v35h-254v199h510v-168z
M519 1872h212l218 -316h-202l-117 195h-9l-118 -195h-201z" />
    <glyph glyph-name="gcircumflex" unicode="&#x11d;" horiz-adv-x="1078" 
d="M525 218q180 0 180 340q0 341 -180 341q-179 0 -179 -340q0 -341 179 -341zM525 -373q-182 0 -286.5 80t-114.5 219h241q24 -115 166 -115q89 0 131 52t42 171v145h-10q-67 -167 -256 -167q-170 0 -261.5 142t-91.5 405q0 265 92 407.5t262 142.5q94 0 160.5 -44.5
t98.5 -127.5h9v157h252v-1059q0 -408 -434 -408zM643 1556l201 -321h-201l-109 191h-10l-109 -191h-199l201 321h226z" />
    <glyph glyph-name="Gbreve" unicode="&#x11e;" horiz-adv-x="1241" 
d="M1148 595q0 -301 -129.5 -462.5t-373.5 -161.5q-266 0 -408 194.5t-142 560.5q0 361 140.5 553.5t400.5 192.5q219 0 348.5 -127t151.5 -359h-261q-42 262 -239 262q-272 0 -272 -520q0 -262 71.5 -397.5t211.5 -135.5q117 0 180 88t65 246v35h-254v199h510v-168z
M320 1871h163q2 -80 39 -127.5t103 -47.5t103.5 47.5t38.5 127.5h163q-2 -142 -82 -228t-223 -86t-223 86t-82 228z" />
    <glyph glyph-name="gbreve" unicode="&#x11f;" horiz-adv-x="1078" 
d="M525 218q180 0 180 340q0 341 -180 341q-179 0 -179 -340q0 -341 179 -341zM525 -373q-182 0 -286.5 80t-114.5 219h241q24 -115 166 -115q89 0 131 52t42 171v145h-10q-67 -167 -256 -167q-170 0 -261.5 142t-91.5 405q0 265 92 407.5t262 142.5q94 0 160.5 -44.5
t98.5 -127.5h9v157h252v-1059q0 -408 -434 -408zM223 1571h164q2 -85 39 -135t104 -50t104 50.5t39 134.5h164q-2 -148 -82.5 -236.5t-224.5 -88.5t-224.5 89t-82.5 236z" />
    <glyph glyph-name="Gdotaccent" unicode="&#x120;" horiz-adv-x="1241" 
d="M1148 595q0 -301 -129.5 -462.5t-373.5 -161.5q-266 0 -408 194.5t-142 560.5q0 361 140.5 553.5t400.5 192.5q219 0 348.5 -127t151.5 -359h-261q-42 262 -239 262q-272 0 -272 -520q0 -262 71.5 -397.5t211.5 -135.5q117 0 180 88t65 246v35h-254v199h510v-168z
M625 1583q-60 0 -98.5 39t-38.5 97t38.5 97t98.5 39q61 0 99 -39t38 -97q0 -59 -38 -97.5t-99 -38.5z" />
    <glyph glyph-name="gdotaccent" unicode="&#x121;" horiz-adv-x="1078" 
d="M525 218q180 0 180 340q0 341 -180 341q-179 0 -179 -340q0 -341 179 -341zM525 -373q-182 0 -286.5 80t-114.5 219h241q24 -115 166 -115q89 0 131 52t42 171v145h-10q-67 -167 -256 -167q-170 0 -261.5 142t-91.5 405q0 265 92 407.5t262 142.5q94 0 160.5 -44.5
t98.5 -127.5h9v157h252v-1059q0 -408 -434 -408zM531 1260q-61 0 -102 40t-41 100q0 59 41 99.5t102 40.5q63 0 103 -40t40 -100q0 -61 -40 -100.5t-103 -39.5z" />
    <glyph glyph-name="Gcommaaccent" unicode="&#x122;" horiz-adv-x="1241" 
d="M1148 595q0 -301 -129.5 -462.5t-373.5 -161.5q-266 0 -408 194.5t-142 560.5q0 361 140.5 553.5t400.5 192.5q219 0 348.5 -127t151.5 -359h-261q-42 262 -239 262q-272 0 -272 -520q0 -262 71.5 -397.5t211.5 -135.5q117 0 180 88t65 246v35h-254v199h510v-168z
M620 -491h-205l106 356h236z" />
    <glyph glyph-name="gcommaaccent" unicode="&#x123;" horiz-adv-x="1078" 
d="M525 218q180 0 180 340q0 341 -180 341q-179 0 -179 -340q0 -341 179 -341zM525 -373q-182 0 -286.5 80t-114.5 219h241q24 -115 166 -115q89 0 131 52t42 171v145h-10q-67 -167 -256 -167q-170 0 -261.5 142t-91.5 405q0 265 92 407.5t262 142.5q94 0 160.5 -44.5
t98.5 -127.5h9v157h252v-1059q0 -408 -434 -408zM548 1601h205l-107 -356h-236z" />
    <glyph glyph-name="Hcircumflex" unicode="&#x124;" horiz-adv-x="1280" 
d="M1148 0h-263v624h-490v-624h-264v1443h264v-599h490v599h263v-1443zM534 1871h211l218 -315h-202l-117 195h-9l-118 -195h-201z" />
    <glyph glyph-name="hcircumflex" unicode="&#x125;" horiz-adv-x="1055" 
d="M122 0v1470h254v-533h9q33 82 102 127.5t165 45.5q143 0 217 -89.5t74 -257.5v-763h-255v711q0 185 -146 185q-79 0 -122 -53t-43 -151v-692h-255zM142 1898h212l218 -315h-202l-117 194h-9l-118 -194h-201z" />
    <glyph glyph-name="Hbar" unicode="&#x126;" horiz-adv-x="1280" 
d="M885 844v212h-490v-212h490zM1248 1247v-191h-100v-1056h-263v624h-490v-624h-264v1056h-100v191h100v196h264v-196h490v196h263v-196h100z" />
    <glyph glyph-name="hbar" unicode="&#x127;" horiz-adv-x="1055" 
d="M376 937h9q33 82 102 127.5t165 45.5q143 0 217 -89.5t74 -257.5v-763h-255v711q0 185 -146 185q-79 0 -122 -53t-43 -151v-692h-255v1221h-117v142h117v107h254v-107h163v-142h-163v-284z" />
    <glyph glyph-name="Itilde" unicode="&#x128;" horiz-adv-x="526" 
d="M395 0h-264v1443h264v-1443zM382 1592q-36 0 -67 13.5t-51.5 32t-38 37.5t-35 32.5t-34.5 13.5q-55 0 -57 -119h-144q0 127 52 199.5t141 72.5q44 0 81 -20t57.5 -44t44 -44t43.5 -20q55 0 56 118h144q0 -126 -52 -199t-140 -73z" />
    <glyph glyph-name="itilde" unicode="&#x129;" horiz-adv-x="494" 
d="M119 0v1094h255v-1094h-255zM367 1250q-36 0 -66.5 13t-51 32t-38 38t-35 32t-34.5 13q-57 0 -58 -119h-143q0 128 51.5 200.5t140.5 72.5q36 0 67 -13.5t51.5 -32t38.5 -37.5t35.5 -32.5t33.5 -13.5q54 0 57 119h144q0 -126 -52 -199t-141 -73z" />
    <glyph glyph-name="Imacron" unicode="&#x12a;" horiz-adv-x="526" 
d="M395 0h-264v1443h264v-1443zM552 1771v-142h-579v142h579z" />
    <glyph glyph-name="imacron" unicode="&#x12b;" horiz-adv-x="494" 
d="M119 0v1094h255v-1094h-255zM512 1449v-142h-531v142h531z" />
    <glyph glyph-name="Ibreve" unicode="&#x12c;" horiz-adv-x="526" 
d="M395 0h-264v1443h264v-1443zM-43 1871h164q1 -80 38.5 -127.5t103.5 -47.5t103 47.5t39 127.5h163q-2 -142 -82 -228t-223 -86t-223.5 86t-82.5 228z" />
    <glyph glyph-name="ibreve" unicode="&#x12d;" horiz-adv-x="494" 
d="M119 0v1094h255v-1094h-255zM-62 1571h164q2 -84 39 -134.5t104 -50.5t104 50t39 135h164q-2 -147 -82.5 -236t-224.5 -89t-224.5 88.5t-82.5 236.5z" />
    <glyph glyph-name="Iogonek" unicode="&#x12e;" horiz-adv-x="526" 
d="M131 -8v1451h264v-1443l-20 -10q-132 -76 -132 -174q0 -47 29 -72.5t79 -25.5q33 0 51 6v-155q-44 -19 -123 -19q-108 0 -176 62.5t-68 159.5q0 126 96 220z" />
    <glyph glyph-name="iogonek" unicode="&#x12f;" horiz-adv-x="494" 
d="M247 1232q-67 0 -108 38t-41 96q0 59 41 96.5t108 37.5t108 -37.5t41 -96.5t-41 -96.5t-108 -37.5zM119 -5v1099h255v-1094l-29 -15q-60 -33 -93 -79t-33 -98q0 -44 29.5 -67t78.5 -23q31 0 51 6v-155q-44 -19 -117 -19q-109 0 -177 62t-68 159q0 123 103 224z" />
    <glyph glyph-name="Idotaccent" unicode="&#x130;" horiz-adv-x="526" 
d="M395 0h-264v1443h264v-1443zM263 1582q-60 0 -98.5 39t-38.5 97t38.5 97t98.5 39t98 -39t38 -97t-38 -97t-98 -39z" />
    <glyph glyph-name="dotlessi" unicode="&#x131;" horiz-adv-x="494" 
d="M119 0v1094h255v-1094h-255z" />
    <glyph glyph-name="IJ" unicode="&#x132;" horiz-adv-x="1524" 
d="M395 0h-264v1443h264v-1443zM586 449h254q5 -249 152 -249q72 0 106 57.5t34 176.5v1009h264v-1006q0 -226 -103 -346t-295 -120q-199 0 -306.5 126t-105.5 352z" />
    <glyph glyph-name="ij" unicode="&#x133;" horiz-adv-x="995" 
d="M744 1251q-64 0 -105 38.5t-41 97.5t41 97.5t105 38.5q65 0 105.5 -38.5t40.5 -97.5t-40.5 -97.5t-105.5 -38.5zM871 1094v-1119q0 -175 -81 -253t-236 -78q-47 0 -69 5v182l30 -1q57 0 79.5 30t22.5 102v1132h254zM247 1251q-64 0 -105 38.5t-41 97.5t41 97.5t105 38.5
q65 0 105.5 -38.5t40.5 -97.5t-40.5 -97.5t-105.5 -38.5zM119 0v1094h255v-1094h-255z" />
    <glyph glyph-name="Jcircumflex" unicode="&#x134;" horiz-adv-x="998" 
d="M60 449h254q5 -249 151 -249q72 0 106.5 57.5t34.5 176.5v1009h264v-1006q0 -226 -103.5 -346t-294.5 -120q-199 0 -306.5 126t-105.5 352zM635 1871h212l218 -315h-202l-117 195h-9l-118 -195h-201z" />
    <glyph glyph-name="jcircumflex" unicode="&#x135;" horiz-adv-x="494" 
d="M358 1556l201 -321h-201l-109 191h-10l-109 -191h-199l201 321h226zM373 1094v-1119q0 -176 -81.5 -254t-236.5 -78q-47 0 -69 5v182h31q56 0 78.5 30t22.5 101v1133h255z" />
    <glyph glyph-name="Kcommaaccent" unicode="&#x136;" horiz-adv-x="1165" 
d="M395 0h-264v1443h264v-625h11l410 625h283l-423 -633l449 -810h-293l-337 614l-100 -143v-471zM564 -491h-204l106 356h236z" />
    <glyph glyph-name="kcommaaccent" unicode="&#x137;" horiz-adv-x="1014" 
d="M386 650l310 444h271l-338 -469l359 -625h-281l-262 456l-68 -98v-358h-255v1470h255v-820h9zM515 -491h-205l107 356h235z" />
    <glyph glyph-name="Lacute" unicode="&#x139;" horiz-adv-x="932" 
d="M864 221v-221h-733v1443h264v-1222h469zM364 1564h-213l202 308h245z" />
    <glyph glyph-name="lacute" unicode="&#x13a;" horiz-adv-x="499" 
d="M122 0v1470h255v-1470h-255zM351 1591h-213l202 308h245z" />
    <glyph glyph-name="Lcommaaccent" unicode="&#x13b;" horiz-adv-x="932" 
d="M864 221v-221h-733v1443h264v-1222h469zM491 -491h-205l106 356h236z" />
    <glyph glyph-name="lcommaaccent" unicode="&#x13c;" horiz-adv-x="499" 
d="M122 1470h255v-1470h-255v1470z" />
    <glyph glyph-name="Lcaron" unicode="&#x13d;" horiz-adv-x="932" 
d="M556 1443h206l-47 -495h-159v495zM864 221v-221h-733v1443h264v-1222h469z" />
    <glyph glyph-name="lcaron" unicode="&#x13e;" horiz-adv-x="665" 
d="M489 1486h207l-47 -495h-160v495zM122 0v1470h255v-1470h-255z" />
    <glyph glyph-name="Lslash" unicode="&#x141;" horiz-adv-x="932" 
d="M395 221h469v-221h-733v583l-123 -85v204l123 85v656h264v-473l171 119v-204l-171 -119v-545z" />
    <glyph glyph-name="lslash" unicode="&#x142;" horiz-adv-x="499" 
d="M487 981v-180l-110 -66v-735h-255v583l-110 -66v180l110 66v707h255v-555z" />
    <glyph glyph-name="Nacute" unicode="&#x143;" horiz-adv-x="1260" 
d="M368 0h-237v1443h271l480 -1004h9v1004h237v-1443h-270l-480 1005h-10v-1005zM730 1564h-213l202 308h245z" />
    <glyph glyph-name="nacute" unicode="&#x144;" horiz-adv-x="1048" 
d="M119 0v1094h248v-156h10q33 82 102 127.5t166 45.5q144 0 217.5 -89.5t73.5 -257.5v-764h-254v712q0 94 -36 139.5t-111 45.5q-77 0 -119 -53t-42 -151v-693h-255zM629 1246h-214l172 320h237z" />
    <glyph glyph-name="Ncommaaccent" unicode="&#x145;" horiz-adv-x="1260" 
d="M368 0h-237v1443h271l480 -1004h9v1004h237v-1443h-270l-480 1005h-10v-1005zM618 -491h-205l107 356h236z" />
    <glyph glyph-name="ncommaaccent" unicode="&#x146;" horiz-adv-x="1048" 
d="M119 0v1094h248v-156h10q33 82 102 127.5t166 45.5q144 0 217.5 -89.5t73.5 -257.5v-764h-254v712q0 94 -36 139.5t-111 45.5q-77 0 -119 -53t-42 -151v-693h-255zM520 -491h-204l106 356h236z" />
    <glyph glyph-name="Ncaron" unicode="&#x147;" horiz-adv-x="1260" 
d="M368 0h-237v1443h271l480 -1004h9v1004h237v-1443h-270l-480 1005h-10v-1005zM525 1560l-217 311h198l118 -191h9l118 191h198l-217 -311h-207z" />
    <glyph glyph-name="ncaron" unicode="&#x148;" horiz-adv-x="1048" 
d="M119 0v1094h248v-156h10q33 82 102 127.5t166 45.5q144 0 217.5 -89.5t73.5 -257.5v-764h-254v712q0 94 -36 139.5t-111 45.5q-77 0 -119 -53t-42 -151v-693h-255zM638 1250h-219l-212 325h203l114 -201h9l114 201h203z" />
    <glyph glyph-name="Omacron" unicode="&#x14c;" horiz-adv-x="1269" 
d="M635 1472q260 0 399.5 -194.5t139.5 -556.5t-139.5 -556t-399.5 -194q-261 0 -400.5 194t-139.5 556q0 361 140 556t400 195zM635 1247q-131 0 -200.5 -133t-69.5 -393q0 -261 69 -393t201 -132q131 0 200 132t69 393t-68.5 393.5t-200.5 132.5zM925 1771v-142h-579v142
h579z" />
    <glyph glyph-name="omacron" unicode="&#x14d;" horiz-adv-x="1053" 
d="M526 -18q-213 0 -326.5 143t-113.5 422q0 276 114.5 420.5t325.5 144.5q212 0 326.5 -144t114.5 -421q0 -279 -113.5 -422t-327.5 -143zM526 186q92 0 136.5 88t44.5 273q0 184 -44.5 272.5t-136.5 88.5q-180 0 -180 -361q0 -185 44 -273t136 -88zM806 1449v-142h-560
v142h560z" />
    <glyph glyph-name="Obreve" unicode="&#x14e;" horiz-adv-x="1269" 
d="M635 1472q260 0 399.5 -194.5t139.5 -556.5t-139.5 -556t-399.5 -194q-261 0 -400.5 194t-139.5 556q0 361 140 556t400 195zM635 1247q-131 0 -200.5 -133t-69.5 -393q0 -261 69 -393t201 -132q131 0 200 132t69 393t-68.5 393.5t-200.5 132.5zM330 1871h163
q2 -80 39 -127.5t103 -47.5t103.5 47.5t39.5 127.5h163q-2 -143 -82.5 -228.5t-223.5 -85.5t-223 86t-82 228z" />
    <glyph glyph-name="obreve" unicode="&#x14f;" horiz-adv-x="1053" 
d="M526 -18q-213 0 -326.5 143t-113.5 422q0 276 114.5 420.5t325.5 144.5q212 0 326.5 -144t114.5 -421q0 -279 -113.5 -422t-327.5 -143zM526 186q92 0 136.5 88t44.5 273q0 184 -44.5 272.5t-136.5 88.5q-180 0 -180 -361q0 -185 44 -273t136 -88zM218 1571h164
q2 -85 39 -135t104 -50t104 50t39 135h164q-2 -148 -82.5 -236.5t-224.5 -88.5t-224.5 89t-82.5 236z" />
    <glyph glyph-name="Ohungarumlaut" unicode="&#x150;" horiz-adv-x="1269" 
d="M635 1472q260 0 399.5 -194.5t139.5 -556.5t-139.5 -556t-399.5 -194q-261 0 -400.5 194t-139.5 556q0 361 140 556t400 195zM635 1247q-131 0 -200.5 -133t-69.5 -393q0 -261 69 -393t201 -132q131 0 200 132t69 393t-68.5 393.5t-200.5 132.5zM892 1564h-203l195 308
h231zM543 1564h-203l195 308h232z" />
    <glyph glyph-name="ohungarumlaut" unicode="&#x151;" horiz-adv-x="1053" 
d="M526 -18q-213 0 -326.5 143t-113.5 422q0 276 114.5 420.5t325.5 144.5q212 0 326.5 -144t114.5 -421q0 -279 -113.5 -422t-327.5 -143zM526 186q92 0 136.5 88t44.5 273q0 184 -44.5 272.5t-136.5 88.5q-180 0 -180 -361q0 -185 44 -273t136 -88zM587 1246l161 320h216
l-175 -320h-202zM244 1246l162 320h215l-175 -320h-202z" />
    <glyph glyph-name="OE" unicode="&#x152;" horiz-adv-x="1773" 
d="M639 1247q-132 0 -202 -134t-70 -392t69.5 -391.5t202.5 -133.5q131 0 200 133.5t69 391.5t-69 392t-200 134zM939 0v158h-8q-45 -89 -130 -138t-198 -49q-241 0 -373 193.5t-132 556.5t132 557t373 194q112 0 198 -49t130 -135h8v155h744v-220h-510v-387h480v-208h-480
v-408h510v-220h-744z" />
    <glyph glyph-name="oe" unicode="&#x153;" horiz-adv-x="1622" 
d="M1144 -18q-104 -1 -184 41.5t-122 124.5h-11q-44 -81 -124 -123.5t-186 -42.5q-207 0 -318.5 143.5t-111.5 421.5q0 276 112.5 420.5t318.5 144.5q218 0 310 -168h11q43 81 121.5 124t179.5 44q191 2 297 -138.5t106 -405.5v-82h-585v-15q1 -143 48.5 -217t133.5 -74
q133 0 161 146h232q-24 -167 -125.5 -254.5t-263.5 -89.5zM1300 654q-6 260 -166 260q-162 0 -173 -260h339zM347 547q0 -185 44.5 -273t136.5 -88t136.5 88t44.5 273q0 361 -181 361t-181 -361z" />
    <glyph glyph-name="Racute" unicode="&#x154;" horiz-adv-x="1129" 
d="M644 1564h-214l202 308h245zM395 561v-561h-264v1443h459q220 0 333 -112.5t113 -326.5q0 -140 -59 -246t-167 -153l258 -605h-288l-226 561h-159zM395 1232v-473h166q104 0 154.5 58t50.5 178q0 237 -202 237h-169z" />
    <glyph glyph-name="racute" unicode="&#x155;" horiz-adv-x="728" 
d="M119 0v1094h248v-175h9q46 189 220 189q49 0 82 -11v-232q-37 15 -100 15q-99 0 -152 -65.5t-53 -187.5v-627h-254zM472 1246h-214l172 320h237z" />
    <glyph glyph-name="Rcommaaccent" unicode="&#x156;" horiz-adv-x="1129" 
d="M531 -491h-204l106 356h236zM395 561v-561h-264v1443h459q220 0 333 -112.5t113 -326.5q0 -140 -59 -246t-167 -153l258 -605h-288l-226 561h-159zM395 1232v-473h166q104 0 154.5 58t50.5 178q0 237 -202 237h-169z" />
    <glyph glyph-name="rcommaaccent" unicode="&#x157;" horiz-adv-x="728" 
d="M367 919h9q46 189 220 189q49 0 82 -11v-232q-37 15 -100 15q-99 0 -152 -65.5t-53 -187.5v-627h-254v1094h248v-175z" />
    <glyph glyph-name="Rcaron" unicode="&#x158;" horiz-adv-x="1129" 
d="M439 1560l-217 311h198l117 -191h10l117 191h198l-217 -311h-206zM395 561v-561h-264v1443h459q220 0 333 -112.5t113 -326.5q0 -140 -59 -246t-167 -153l258 -605h-288l-226 561h-159zM395 1232v-473h166q104 0 154.5 58t50.5 178q0 237 -202 237h-169z" />
    <glyph glyph-name="rcaron" unicode="&#x159;" horiz-adv-x="728" 
d="M119 0v1094h248v-175h9q46 189 220 189q49 0 82 -11v-232q-37 15 -100 15q-99 0 -152 -65.5t-53 -187.5v-627h-254zM481 1250h-218l-212 325h202l114 -201h10l114 201h203z" />
    <glyph glyph-name="Sacute" unicode="&#x15a;" horiz-adv-x="1102" 
d="M91 405h253q8 -105 64.5 -162t153.5 -57q90 0 141.5 48.5t51.5 132.5q0 73 -46 123t-158 100l-133 58q-157 68 -230 165.5t-73 247.5q0 186 120 298.5t324 112.5q203 0 317.5 -114.5t118.5 -312.5h-246q-6 103 -55 158.5t-136 55.5q-86 0 -133 -46t-47 -128
q0 -72 46.5 -123.5t155.5 -101.5l110 -45q181 -80 254 -172.5t72 -246.5q0 -195 -123 -309.5t-340 -114.5q-219 0 -338 112.5t-124 320.5zM659 1565h-214l202 308h246z" />
    <glyph glyph-name="sacute" unicode="&#x15b;" horiz-adv-x="963" 
d="M104 790q0 146 105 234t277 88q181 0 275.5 -87t99.5 -252h-234q-12 150 -143 150q-60 0 -97 -31.5t-37 -85.5q0 -50 33 -82t111 -60l125 -38q144 -49 204.5 -118t60.5 -190q0 -154 -111 -245t-290 -91q-190 0 -290 87t-110 253h248q18 -151 158 -151q62 0 102 32t40 85
q-1 51 -30 80.5t-105 57.5l-127 41q-138 47 -201.5 122t-63.5 201zM584 1246h-214l172 320h237z" />
    <glyph glyph-name="Scircumflex" unicode="&#x15c;" horiz-adv-x="1102" 
d="M91 405h253q8 -105 64.5 -162t153.5 -57q90 0 141.5 48.5t51.5 132.5q0 73 -46 123t-158 100l-133 58q-157 68 -230 165.5t-73 247.5q0 186 120 298.5t324 112.5q203 0 317.5 -114.5t118.5 -312.5h-246q-6 103 -55 158.5t-136 55.5q-86 0 -133 -46t-47 -128
q0 -72 46.5 -123.5t155.5 -101.5l110 -45q181 -80 254 -172.5t72 -246.5q0 -195 -123 -309.5t-340 -114.5q-219 0 -338 112.5t-124 320.5zM451 1872h212l218 -315h-202l-117 195h-9l-118 -195h-201z" />
    <glyph glyph-name="scircumflex" unicode="&#x15d;" horiz-adv-x="963" 
d="M104 790q0 146 105 234t277 88q181 0 275.5 -87t99.5 -252h-234q-12 150 -143 150q-60 0 -97 -31.5t-37 -85.5q0 -50 33 -82t111 -60l125 -38q144 -49 204.5 -118t60.5 -190q0 -154 -111 -245t-290 -91q-190 0 -290 87t-110 253h248q18 -151 158 -151q62 0 102 32t40 85
q-1 51 -30 80.5t-105 57.5l-127 41q-138 47 -201.5 122t-63.5 201zM596 1556l200 -321h-200l-109 191h-10l-109 -191h-199l201 321h226z" />
    <glyph glyph-name="Scedilla" unicode="&#x15e;" horiz-adv-x="1102" 
d="M580 860l110 -45q181 -80 254 -172.5t72 -246.5q0 -178 -103 -289.5t-289 -130.5l-24 -66q159 -26 159 -176q1 -94 -62.5 -145t-170.5 -51q-78 0 -121 17v126q32 -15 89 -15q93 0 93 63q0 34 -24.5 48t-82.5 14h-39v91l36 94q-184 19 -282.5 129.5t-103.5 299.5h253
q8 -105 64.5 -162t153.5 -57q90 0 141.5 48.5t51.5 132.5q0 73 -46 123t-158 100l-133 58q-157 68 -230 165.5t-73 247.5q0 186 120 298.5t324 112.5q203 0 317.5 -114.5t118.5 -312.5h-246q-6 103 -55 158.5t-136 55.5q-86 0 -133 -46t-47 -128q0 -72 46.5 -123.5
t155.5 -101.5z" />
    <glyph glyph-name="scedilla" unicode="&#x15f;" horiz-adv-x="963" 
d="M494 664l125 -38q144 -49 204.5 -118t60.5 -190q0 -136 -88 -224t-236 -107l-30 -78q160 -24 160 -176q0 -94 -63.5 -144.5t-170.5 -50.5q-76 0 -121 16v127q30 -15 90 -15q93 0 93 62q0 34 -25 48.5t-83 14.5h-39v91l40 103q-309 33 -328 337h248q18 -151 158 -151
q62 0 102 32t40 85q-1 51 -30 80.5t-105 57.5l-127 41q-138 47 -201.5 122t-63.5 201q0 146 105 234t277 88q181 0 275.5 -87t99.5 -252h-234q-12 150 -143 150q-60 0 -97 -31.5t-37 -85.5q0 -50 33 -82t111 -60z" />
    <glyph glyph-name="Scaron" unicode="&#x160;" horiz-adv-x="1102" 
d="M91 405h253q8 -105 64.5 -162t153.5 -57q90 0 141.5 48.5t51.5 132.5q0 73 -46 123t-158 100l-133 58q-157 68 -230 165.5t-73 247.5q0 186 120 298.5t324 112.5q203 0 317.5 -114.5t118.5 -312.5h-246q-6 103 -55 158.5t-136 55.5q-86 0 -133 -46t-47 -128
q0 -72 46.5 -123.5t155.5 -101.5l110 -45q181 -80 254 -172.5t72 -246.5q0 -195 -123 -309.5t-340 -114.5q-219 0 -338 112.5t-124 320.5zM454 1561l-217 311h198l117 -191h10l117 191h198l-217 -311h-206z" />
    <glyph glyph-name="scaron" unicode="&#x161;" horiz-adv-x="963" 
d="M104 790q0 146 105 234t277 88q181 0 275.5 -87t99.5 -252h-234q-12 150 -143 150q-60 0 -97 -31.5t-37 -85.5q0 -50 33 -82t111 -60l125 -38q144 -49 204.5 -118t60.5 -190q0 -154 -111 -245t-290 -91q-190 0 -290 87t-110 253h248q18 -151 158 -151q62 0 102 32t40 85
q-1 51 -30 80.5t-105 57.5l-127 41q-138 47 -201.5 122t-63.5 201zM593 1250h-219l-212 325h203l114 -201h10l113 201h203z" />
    <glyph glyph-name="Tcedilla" unicode="&#x162;" horiz-adv-x="1061" 
d="M662 0l-34 -91q159 -24 160 -176q0 -94 -63.5 -144.5t-170.5 -50.5q-76 0 -121 16v127q30 -15 90 -15q92 0 92 62q0 34 -24.5 48.5t-82.5 14.5h-39v91l46 118h-116v1223h-331v220h925v-220h-331v-1223z" />
    <glyph glyph-name="tcedilla" unicode="&#x163;" horiz-adv-x="689" 
d="M499 -7l-31 -84q159 -24 159 -176q0 -94 -63.5 -144.5t-170.5 -50.5q-77 0 -120 16v127q29 -15 89 -15q93 0 93 62q0 34 -25 48.5t-83 14.5h-39v91l49 126q-91 24 -131.5 90.5t-40.5 189.5v606h-134v197h134v256h255v-256h184v-197h-184v-563q0 -74 27.5 -106.5
t89.5 -32.5q42 0 67 4v-193q-50 -10 -124 -10h-1z" />
    <glyph glyph-name="Tcaron" unicode="&#x164;" horiz-adv-x="1061" 
d="M662 0h-263v1223h-331v220h925v-220h-331v-1223zM427 1560l-217 311h198l117 -191h10l117 191h198l-217 -311h-206z" />
    <glyph glyph-name="tcaron" unicode="&#x165;" horiz-adv-x="738" 
d="M532 1714h208l-47 -495h-161v495zM185 1347h255v-256h184v-197h-184v-563q0 -74 27.5 -106.5t89.5 -32.5q42 0 67 4v-193q-50 -10 -124 -10q-172 0 -243.5 67t-71.5 228v606h-134v197h134v256z" />
    <glyph glyph-name="Tbar" unicode="&#x166;" horiz-adv-x="1061" 
d="M993 1223h-331v-425h226v-191h-226v-607h-263v607h-227v191h227v425h-331v220h925v-220z" />
    <glyph glyph-name="tbar" unicode="&#x167;" horiz-adv-x="688" 
d="M628 500h-188v-169q0 -74 27.5 -106.5t89.5 -32.5q42 0 67 4v-193q-50 -10 -124 -10q-172 0 -243.5 67t-71.5 228v212h-134v146h134v248h-134v197h134v256h255v-256h184v-197h-184v-248h188v-146z" />
    <glyph glyph-name="Utilde" unicode="&#x168;" horiz-adv-x="1237" 
d="M393 1443v-940q0 -304 225 -304q226 0 226 304v940h264v-955q0 -246 -127.5 -381.5t-362.5 -135.5q-234 0 -361.5 135.5t-127.5 381.5v955h264zM738 1592q-36 0 -67 13.5t-51.5 32t-38 37.5t-35 32.5t-34.5 13.5q-55 0 -58 -119h-143q0 127 52 199.5t140 72.5
q44 0 81.5 -20t58 -44t43.5 -44t43 -20q56 0 57 118h144q0 -126 -52 -199t-140 -73z" />
    <glyph glyph-name="utilde" unicode="&#x169;" horiz-adv-x="1049" 
d="M930 1094v-1094h-248v149h-9q-69 -163 -264 -163q-140 0 -218.5 90t-78.5 255v763h255v-710q0 -94 35 -139.5t109 -45.5q77 0 120 48.5t45 141.5v705h254zM643 1250q-44 0 -81 20t-57.5 44t-44 44t-43.5 20q-55 0 -58 -119h-143q0 127 52 200t140 73q36 0 67 -13.5
t52 -32t38.5 -37.5t35 -32.5t34.5 -13.5q55 0 56 119h144q0 -126 -52 -199t-140 -73z" />
    <glyph glyph-name="Umacron" unicode="&#x16a;" horiz-adv-x="1237" 
d="M393 1443v-940q0 -304 225 -304q226 0 226 304v940h264v-955q0 -246 -127.5 -381.5t-362.5 -135.5q-234 0 -361.5 135.5t-127.5 381.5v955h264zM908 1771v-142h-579v142h579z" />
    <glyph glyph-name="umacron" unicode="&#x16b;" horiz-adv-x="1049" 
d="M930 1094v-1094h-248v149h-9q-69 -163 -264 -163q-140 0 -218.5 90t-78.5 255v763h255v-710q0 -94 35 -139.5t109 -45.5q77 0 120 48.5t45 141.5v705h254zM802 1449v-142h-561v142h561z" />
    <glyph glyph-name="Ubreve" unicode="&#x16c;" horiz-adv-x="1237" 
d="M393 1443v-940q0 -304 225 -304q226 0 226 304v940h264v-955q0 -246 -127.5 -381.5t-362.5 -135.5q-234 0 -361.5 135.5t-127.5 381.5v955h264zM313 1871h163q2 -80 39 -127.5t103 -47.5t103.5 47.5t38.5 127.5h164q-2 -142 -82.5 -228t-223.5 -86t-223 86t-82 228z" />
    <glyph glyph-name="ubreve" unicode="&#x16d;" horiz-adv-x="1049" 
d="M930 1094v-1094h-248v149h-9q-69 -163 -264 -163q-140 0 -218.5 90t-78.5 255v763h255v-710q0 -94 35 -139.5t109 -45.5q77 0 120 48.5t45 141.5v705h254zM214 1571h164q2 -85 39 -135t104 -50t104 50.5t39 134.5h163q-2 -147 -82 -236t-224 -89t-224.5 89t-82.5 236z
" />
    <glyph glyph-name="Uring" unicode="&#x16e;" horiz-adv-x="1237" 
d="M393 1443v-940q0 -304 225 -304q226 0 226 304v940h264v-955q0 -246 -127.5 -381.5t-362.5 -135.5q-234 0 -361.5 135.5t-127.5 381.5v955h264zM618 1533q-80 0 -132 53t-52 138t52 138t132 53t132 -53t52 -138t-52 -138t-132 -53zM618 1632q36 0 58.5 25t22.5 67
t-22.5 67t-58.5 25t-58 -25t-22 -67t22 -67t58 -25z" />
    <glyph glyph-name="uring" unicode="&#x16f;" horiz-adv-x="1049" 
d="M930 1094v-1094h-248v149h-9q-69 -163 -264 -163q-140 0 -218.5 90t-78.5 255v763h255v-710q0 -94 35 -139.5t109 -45.5q77 0 120 48.5t45 141.5v705h254zM523 1228q-89 0 -147 60t-58 154q0 93 58.5 153t146.5 60t145.5 -60t57.5 -153q0 -94 -57.5 -154t-145.5 -60z
M522 1339q38 0 62 28t24 74t-24 74t-62 28t-62 -28t-24 -74t24 -74t62 -28z" />
    <glyph glyph-name="Uhungarumlaut" unicode="&#x170;" horiz-adv-x="1237" 
d="M393 1443v-940q0 -304 225 -304q226 0 226 304v940h264v-955q0 -246 -127.5 -381.5t-362.5 -135.5q-234 0 -361.5 135.5t-127.5 381.5v955h264zM875 1564h-203l195 308h231zM526 1564h-203l195 308h231z" />
    <glyph glyph-name="uhungarumlaut" unicode="&#x171;" horiz-adv-x="1049" 
d="M930 1094v-1094h-248v149h-9q-69 -163 -264 -163q-140 0 -218.5 90t-78.5 255v763h255v-710q0 -94 35 -139.5t109 -45.5q77 0 120 48.5t45 141.5v705h254zM582 1246l162 320h215l-175 -320h-202zM240 1246l161 320h216l-175 -320h-202z" />
    <glyph glyph-name="Uogonek" unicode="&#x172;" horiz-adv-x="1237" 
d="M829 -450q-105 0 -173.5 60t-68.5 154q0 127 122 211v9q-36 -13 -91 -13q-233 0 -361 135t-128 382v955h264v-940q0 -298 225 -298q226 0 226 298v940h264v-955q0 -138 -46 -245.5t-143 -201.5q-127 -124 -127 -221q0 -49 29.5 -75.5t76.5 -26.5q36 0 52 6v-155
q-41 -19 -121 -19z" />
    <glyph glyph-name="uogonek" unicode="&#x173;" horiz-adv-x="1049" 
d="M910 -431q-44 -19 -119 -19q-105 0 -172 61.5t-67 157.5q0 132 132 231v151h-10q-68 -165 -265 -165q-140 0 -218.5 90t-78.5 255v763h255v-710q0 -94 35 -139.5t109 -45.5q78 0 121.5 49t43.5 141v705h254v-1094l-31 -13q-68 -32 -106.5 -78.5t-38.5 -99.5q0 -43 28 -67
t76 -24q36 0 52 6v-155z" />
    <glyph glyph-name="Wcircumflex" unicode="&#x174;" horiz-adv-x="1663" 
d="M826 1070l-198 -1070h-283l-276 1443h269l162 -1084h11l192 1084h257l194 -1084h11l161 1084h268l-276 -1443h-282l-199 1070h-11zM724 1871h212l218 -315h-202l-117 195h-9l-118 -195h-201z" />
    <glyph glyph-name="wcircumflex" unicode="&#x175;" horiz-adv-x="1441" 
d="M1393 1094l-222 -1094h-299l-148 815h-9l-148 -815h-296l-223 1094h251l132 -839h9l150 839h263l151 -839h9l131 839h249zM831 1556l201 -321h-201l-109 191h-9l-109 -191h-199l200 321h226z" />
    <glyph glyph-name="Ycircumflex" unicode="&#x176;" horiz-adv-x="1162" 
d="M711 0h-264v540l-389 903h278l240 -632h10l246 632h272l-392 -903zM474 1871h212l217 -315h-201l-118 195h-9l-117 -195h-202z" />
    <glyph glyph-name="ycircumflex" unicode="&#x177;" horiz-adv-x="1006" 
d="M225 -367q-56 0 -91 5v187q12 -3 57 -3q128 0 153 115q0 1 2.5 29t0.5 36l-303 1092h273l187 -885h11l183 885h264l-285 -1043q-41 -156 -96.5 -245.5t-140 -131t-215.5 -41.5zM617 1556l201 -321h-201l-109 191h-10l-108 -191h-199l200 321h226z" />
    <glyph glyph-name="Ydieresis" unicode="&#x178;" horiz-adv-x="1162" 
d="M711 0h-264v540l-389 903h278l240 -632h10l246 632h272l-392 -903zM396 1575q-56 0 -93.5 37.5t-37.5 91.5q0 55 37.5 92t93.5 37q55 0 92.5 -37t37.5 -92q0 -54 -37.5 -91.5t-92.5 -37.5zM764 1575q-55 0 -92.5 37.5t-37.5 91.5q0 55 37.5 92t92.5 37q56 0 93.5 -37
t37.5 -92q0 -54 -37.5 -91.5t-93.5 -37.5z" />
    <glyph glyph-name="Zacute" unicode="&#x179;" horiz-adv-x="1096" 
d="M100 0v178l576 1034v11h-564v220h867v-178l-574 -1034v-11h591v-220h-896zM650 1564h-214l202 308h246z" />
    <glyph glyph-name="zacute" unicode="&#x17a;" horiz-adv-x="924" 
d="M92 0v157l438 726v9h-429v202h719v-170l-425 -713v-9h436v-202h-739zM563 1246h-214l172 320h237z" />
    <glyph glyph-name="Zdotaccent" unicode="&#x17b;" horiz-adv-x="1096" 
d="M100 0v178l576 1034v11h-564v220h867v-178l-574 -1034v-11h591v-220h-896zM548 1582q-60 0 -98.5 39t-38.5 97t38.5 97t98.5 39q61 0 99 -38.5t38 -97.5q0 -58 -38 -97t-99 -39z" />
    <glyph glyph-name="zdotaccent" unicode="&#x17c;" horiz-adv-x="924" 
d="M92 0v157l438 726v9h-429v202h719v-170l-425 -713v-9h436v-202h-739zM464 1260q-62 0 -102.5 40t-40.5 100t40.5 100t102.5 40t102.5 -40t40.5 -100t-40 -100t-103 -40z" />
    <glyph glyph-name="Zcaron" unicode="&#x17d;" horiz-adv-x="1096" 
d="M100 0v178l576 1034v11h-564v220h867v-178l-574 -1034v-11h591v-220h-896zM445 1560l-217 311h198l117 -191h10l117 191h198l-216 -311h-207z" />
    <glyph glyph-name="zcaron" unicode="&#x17e;" horiz-adv-x="924" 
d="M92 0v157l438 726v9h-429v202h719v-170l-425 -713v-9h436v-202h-739zM572 1250h-218l-212 325h202l114 -201h10l114 201h203z" />
    <glyph glyph-name="florin" unicode="&#x192;" horiz-adv-x="1133" 
d="M1043 1431v-208q-53 31 -131 31q-82 0 -123.5 -48t-54.5 -155l-21 -183h278v-186h-299l-35 -314q-28 -205 -124 -298.5t-273 -93.5q-104 0 -172 35v215q69 -40 138 -40q77 0 116.5 47.5t52.5 158.5l33 290h-246v186h267l24 207q27 199 125.5 293t284.5 94q104 0 160 -31z
" />
    <glyph glyph-name="Ohorn" unicode="&#x1a0;" horiz-adv-x="1315" 
d="M635 201q131 0 200.5 132.5t69.5 387.5t-69.5 388t-200.5 133t-201 -133t-70 -388t69.5 -387.5t201.5 -132.5zM1038 1259v-10q64 -83 100 -220.5t36 -307.5q0 -362 -140 -556t-399 -194q-260 0 -400 194t-140 556t140.5 556.5t399.5 194.5q75 0 178.5 -23.5t167.5 -23.5
q47 0 66.5 21t19.5 71v155h198v-218q0 -94 -44 -144.5t-126 -50.5h-57z" />
    <glyph glyph-name="ohorn" unicode="&#x1a1;" horiz-adv-x="1106" 
d="M857 920v-7q48 -53 75 -151t27 -222q0 -268 -114 -413t-320 -145q-213 0 -326 145t-113 420q0 272 114 418.5t322 146.5q64 0 131 -16t105 -16q50 0 69 19t19 69v142h198v-210q0 -87 -38.5 -133.5t-112.5 -46.5h-36zM522 186q177 0 177 361t-177 361t-177 -361t177 -361z
" />
    <glyph glyph-name="Uhorn" unicode="&#x1af;" horiz-adv-x="1396" 
d="M618 -29q-234 0 -361.5 135.5t-127.5 381.5v955h264v-940q0 -298 225 -298q226 0 226 298v940h265q35 0 51 19t16 60v177h198v-224q0 -99 -48.5 -151.5t-137.5 -52.5h-80v-783q0 -246 -128 -381.5t-362 -135.5z" />
    <glyph glyph-name="uhorn" unicode="&#x1b0;" horiz-adv-x="1225" 
d="M673 149q-69 -163 -264 -163q-141 0 -219 90.5t-78 254.5v763h255v-710q0 -94 34.5 -139.5t109.5 -45.5q77 0 120 48.5t45 141.5v705h243q37 0 53 19t16 62v156h198v-205q0 -101 -49 -152.5t-143 -51.5h-64v-922h-248v149h-9z" />
    <glyph glyph-name="uni01C4" unicode="&#x1c4;" horiz-adv-x="2326" 
d="M131 1443h448q273 0 413.5 -179.5t140.5 -536.5q0 -361 -140.5 -544t-413.5 -183h-448v1443zM395 1222v-1000h148q164 0 242 123t78 380q0 497 -320 497h-148zM1331 0v178l576 1034v11h-564v220h867v-178l-574 -1034v-11h591v-220h-896zM1676 1560l-217 311h198l117 -191
h10l117 191h198l-217 -311h-206z" />
    <glyph glyph-name="uni01C5" unicode="&#x1c5;" horiz-adv-x="2155" 
d="M131 1443h448q273 0 413.5 -179.5t140.5 -536.5q0 -361 -140.5 -544t-413.5 -183h-448v1443zM395 1222v-1000h148q164 0 242 123t78 380q0 497 -320 497h-148zM1323 0v157l437 726v9h-429v202h719v-170l-424 -713v-9h436v-202h-739zM1803 1250h-219l-212 325h203
l114 -201h10l113 201h203z" />
    <glyph glyph-name="uni01C6" unicode="&#x1c6;" horiz-adv-x="2009" 
d="M439 -13q-170 0 -261.5 145.5t-91.5 416.5q0 270 91.5 415t261.5 145q94 0 159.5 -44t96.5 -125h10v530h255v-1470h-252v155h-10q-32 -79 -98.5 -123.5t-160.5 -44.5zM526 899q-179 0 -179 -350q0 -352 179 -352q180 0 180 351t-180 351zM1177 0v157l437 726v9h-429v202
h719v-170l-424 -713v-9h436v-202h-739zM1657 1250h-218l-212 325h202l114 -201h10l113 201h203z" />
    <glyph glyph-name="uni01C7" unicode="&#x1c7;" horiz-adv-x="1929" 
d="M864 221v-221h-733v1443h264v-1222h469zM991 449h254q5 -249 151 -249q72 0 106.5 57.5t34.5 176.5v1009h264v-1006q0 -226 -103.5 -346t-294.5 -120q-199 0 -306.5 126t-105.5 352z" />
    <glyph glyph-name="uni01C8" unicode="&#x1c8;" horiz-adv-x="1428" 
d="M1178 1251q-64 0 -105 38.5t-41 97.5t41 97.5t105 38.5q65 0 105.5 -38.5t40.5 -97.5t-40.5 -97.5t-105.5 -38.5zM1305 1094v-1119q0 -175 -81.5 -253t-235.5 -78q-47 0 -70 5v182l31 -1q57 0 79 30t22 102v1132h255zM864 221v-221h-733v1443h264v-1222h469z" />
    <glyph glyph-name="uni01C9" unicode="&#x1c9;" horiz-adv-x="995" 
d="M745 1251q-64 0 -105 38.5t-41 97.5t41 97.5t105 38.5q65 0 105 -38.5t40 -97.5t-40 -97.5t-105 -38.5zM872 1094v-1119q0 -175 -81.5 -253t-236.5 -78q-46 0 -69 5v182l31 -1q56 0 78.5 30t22.5 102v1132h255zM122 0v1470h255v-1470h-255z" />
    <glyph glyph-name="uni01CA" unicode="&#x1ca;" horiz-adv-x="2257" 
d="M368 0h-237v1443h271l480 -1004h9v1004h237v-1443h-270l-480 1005h-10v-1005zM1319 449h255q5 -249 151 -249q141 0 141 234v1009h263v-1006q0 -226 -103 -346t-295 -120q-199 0 -306.5 126.5t-105.5 351.5z" />
    <glyph glyph-name="uni01CB" unicode="&#x1cb;" horiz-adv-x="1757" 
d="M1506 1251q-63 0 -104 38.5t-41 97.5t41 97.5t104 38.5q65 0 105.5 -38.5t40.5 -97.5t-40.5 -97.5t-105.5 -38.5zM1634 1094v-1119q0 -175 -81.5 -253t-236.5 -78q-46 0 -69 5v182l30 -1q57 0 79.5 30t22.5 102v1132h255zM368 0h-237v1443h271l480 -1004h9v1004h237
v-1443h-270l-480 1005h-10v-1005z" />
    <glyph glyph-name="uni01CC" unicode="&#x1cc;" horiz-adv-x="1542" 
d="M1295 1251q-64 0 -105 38.5t-41 97.5t41 97.5t105 38.5q65 0 105.5 -38.5t40.5 -97.5t-40.5 -97.5t-105.5 -38.5zM1422 1094v-1119q0 -175 -81 -253t-236 -78q-47 0 -69 5v182l30 -1q57 0 79.5 30t22.5 102v1132h254zM119 0v1094h248v-156h10q33 82 102 127.5t166 45.5
q144 0 217.5 -89.5t73.5 -257.5v-764h-254v712q0 94 -36 139.5t-111 45.5q-77 0 -119 -53t-42 -151v-693h-255z" />
    <glyph glyph-name="Acaron" unicode="&#x1cd;" horiz-adv-x="1217" 
d="M878 0l-83 334h-388l-80 -334h-269l387 1443h327l386 -1443h-280zM592 1168l-141 -629h300l-146 629h-13zM503 1560l-216 311h197l118 -191h9l118 191h198l-217 -311h-207z" />
    <glyph glyph-name="acaron" unicode="&#x1ce;" horiz-adv-x="993" 
d="M466 179q73 0 118.5 50t45.5 134v136l-137 -19q-83 -14 -123.5 -51t-40.5 -107t36.5 -106.5t100.5 -36.5zM371 -14q-131 0 -212.5 85t-81.5 232q0 145 91 228t283 111l179 23v92q0 76 -35.5 114.5t-101.5 38.5q-131 0 -150 -138h-232q7 156 111.5 248t280.5 92
q184 0 280.5 -89.5t96.5 -260.5v-762h-248v131h-10q-31 -67 -98 -106t-153 -39zM613 1250h-218l-212 325h202l114 -201h10l113 201h203z" />
    <glyph glyph-name="Icaron" unicode="&#x1cf;" horiz-adv-x="526" 
d="M395 0h-264v1443h264v-1443zM159 1560l-216 311h198l117 -191h10l117 191h198l-217 -311h-207z" />
    <glyph glyph-name="icaron" unicode="&#x1d0;" horiz-adv-x="494" 
d="M119 0v1094h255v-1094h-255zM356 1250h-219l-212 325h203l113 -201h10l114 201h203z" />
    <glyph glyph-name="Ocaron" unicode="&#x1d1;" horiz-adv-x="1269" 
d="M635 1472q260 0 399.5 -194.5t139.5 -556.5t-139.5 -556t-399.5 -194q-261 0 -400.5 194t-139.5 556q0 361 140 556t400 195zM635 1247q-131 0 -200.5 -133t-69.5 -393q0 -261 69 -393t201 -132q131 0 200 132t69 393t-68.5 393.5t-200.5 132.5zM532 1560l-217 311h198
l118 -191h9l117 191h198l-216 -311h-207z" />
    <glyph glyph-name="ocaron" unicode="&#x1d2;" horiz-adv-x="1053" 
d="M526 -18q-213 0 -326.5 143t-113.5 422q0 276 114.5 420.5t325.5 144.5q212 0 326.5 -144t114.5 -421q0 -279 -113.5 -422t-327.5 -143zM526 186q92 0 136.5 88t44.5 273q0 184 -44.5 272.5t-136.5 88.5q-180 0 -180 -361q0 -185 44 -273t136 -88zM635 1250h-218
l-212 325h202l114 -201h10l114 201h203z" />
    <glyph glyph-name="Ucaron" unicode="&#x1d3;" horiz-adv-x="1237" 
d="M393 1443v-940q0 -304 225 -304q226 0 226 304v940h264v-955q0 -246 -127.5 -381.5t-362.5 -135.5q-234 0 -361.5 135.5t-127.5 381.5v955h264zM515 1560l-217 311h198l117 -191h10l117 191h198l-216 -311h-207z" />
    <glyph glyph-name="ucaron" unicode="&#x1d4;" horiz-adv-x="1049" 
d="M930 1094v-1094h-248v149h-9q-69 -163 -264 -163q-140 0 -218.5 90t-78.5 255v763h255v-710q0 -94 35 -139.5t109 -45.5q77 0 120 48.5t45 141.5v705h254zM631 1250h-219l-212 325h203l114 -201h9l114 201h203z" />
    <glyph glyph-name="Udieresismacron" unicode="&#x1d5;" horiz-adv-x="1237" 
d="M393 1443v-940q0 -304 225 -304q226 0 226 304v940h264v-955q0 -246 -127.5 -381.5t-362.5 -135.5q-234 0 -361.5 135.5t-127.5 381.5v955h264zM437 1823q53 0 89.5 -36.5t36.5 -88.5q0 -53 -36.5 -89t-89.5 -36q-54 0 -90 36t-36 89q0 52 36 88.5t90 36.5zM329 2081h579
v-138h-579v138zM800 1823q53 0 89.5 -36.5t36.5 -88.5q0 -53 -36.5 -89t-89.5 -36q-54 0 -90 36t-36 89q0 52 36 88.5t90 36.5z" />
    <glyph glyph-name="udieresismacron" unicode="&#x1d6;" horiz-adv-x="1049" 
d="M930 1094v-1094h-248v149h-9q-69 -163 -264 -163q-140 0 -218.5 90t-78.5 255v763h255v-710q0 -94 35 -139.5t109 -45.5q77 0 120 48.5t45 141.5v705h254zM342 1251q-54 0 -90 36.5t-36 88.5q0 53 36 89.5t90 36.5t90 -36.5t36 -89.5q0 -52 -36 -88.5t-90 -36.5z
M702 1251q-53 0 -89.5 36.5t-36.5 88.5q0 53 36.5 89.5t89.5 36.5q54 0 90.5 -36.5t36.5 -89.5q0 -52 -36.5 -88.5t-90.5 -36.5zM802 1800v-141h-561v141h561z" />
    <glyph glyph-name="Udieresisacute" unicode="&#x1d7;" horiz-adv-x="1237" 
d="M393 1443v-940q0 -304 225 -304q226 0 226 304v940h264v-955q0 -246 -127.5 -381.5t-362.5 -135.5q-234 0 -361.5 135.5t-127.5 381.5v955h264zM517 1888l151 231h228l-186 -231h-193zM437 1573q-54 0 -90.5 36.5t-36.5 89.5t36.5 89t90.5 36t90.5 -36t36.5 -89
t-36.5 -89.5t-90.5 -36.5zM800 1573q-54 0 -90.5 36.5t-36.5 89.5t36.5 89t90.5 36q53 0 90 -36.5t37 -88.5q0 -53 -37 -89.5t-90 -36.5z" />
    <glyph glyph-name="udieresisacute" unicode="&#x1d8;" horiz-adv-x="1049" 
d="M930 1094v-1094h-248v149h-9q-69 -163 -264 -163q-140 0 -218.5 90t-78.5 255v763h255v-710q0 -94 35 -139.5t109 -45.5q77 0 120 48.5t45 141.5v705h254zM422 1613l158 283h223l-186 -283h-195zM338 1232q-55 0 -92.5 37t-37.5 92q0 54 37.5 91.5t92.5 37.5
q56 0 93.5 -37.5t37.5 -91.5q0 -55 -37.5 -92t-93.5 -37zM707 1232q-56 0 -93 37t-37 92q0 54 37 91.5t93 37.5q55 0 92.5 -37.5t37.5 -91.5q0 -55 -37.5 -92t-92.5 -37z" />
    <glyph glyph-name="Udieresiscaron" unicode="&#x1d9;" horiz-adv-x="1237" 
d="M393 1443v-940q0 -304 225 -304q226 0 226 304v940h264v-955q0 -246 -127.5 -381.5t-362.5 -135.5q-234 0 -361.5 135.5t-127.5 381.5v955h264zM516 1879l-210 253h200l104 -141h16l104 141h200l-210 -253h-204zM437 1816q53 0 89.5 -36t36.5 -88q0 -51 -36.5 -87
t-89.5 -36t-89.5 36t-36.5 87q0 52 36.5 88t89.5 36zM800 1816q53 0 89 -36t36 -88q0 -51 -36 -87t-89 -36q-54 0 -90 36t-36 87q0 52 36 88t90 36z" />
    <glyph glyph-name="udieresiscaron" unicode="&#x1da;" horiz-adv-x="1049" 
d="M930 1094v-1094h-248v149h-9q-69 -163 -264 -163q-140 0 -218.5 90t-78.5 255v763h255v-710q0 -94 35 -139.5t109 -45.5q77 0 120 48.5t45 141.5v705h254zM342 1251q-54 0 -90 36.5t-36 88.5q0 53 36 89.5t90 36.5t90 -36.5t36 -89.5q0 -52 -36 -88.5t-90 -36.5z
M702 1251q-53 0 -89.5 36.5t-36.5 88.5q0 53 36.5 89.5t89.5 36.5q54 0 90.5 -36.5t36.5 -89.5q0 -52 -36.5 -88.5t-90.5 -36.5zM631 1601h-218l-209 303h199l114 -191h10l114 191h200z" />
    <glyph glyph-name="Udieresisgrave" unicode="&#x1db;" horiz-adv-x="1237" 
d="M393 1443v-940q0 -304 225 -304q226 0 226 304v940h264v-955q0 -246 -127.5 -381.5t-362.5 -135.5q-234 0 -361.5 135.5t-127.5 381.5v955h264zM723 1888h-193l-186 231h229zM437 1573q-54 0 -90.5 36.5t-36.5 89.5t36.5 89t90.5 36t90.5 -36t36.5 -89t-36.5 -89.5
t-90.5 -36.5zM800 1573q-54 0 -90.5 36.5t-36.5 89.5t36.5 89t90.5 36q53 0 90 -36.5t37 -88.5q0 -53 -37 -89.5t-90 -36.5z" />
    <glyph glyph-name="udieresisgrave" unicode="&#x1dc;" horiz-adv-x="1049" 
d="M930 1094v-1094h-248v149h-9q-69 -163 -264 -163q-140 0 -218.5 90t-78.5 255v763h255v-710q0 -94 35 -139.5t109 -45.5q77 0 120 48.5t45 141.5v705h254zM625 1618h-193l-188 282h231zM338 1233q-55 0 -92.5 37t-37.5 92q0 54 37.5 91.5t92.5 37.5q56 0 93.5 -37.5
t37.5 -91.5q0 -55 -37.5 -92t-93.5 -37zM707 1233q-56 0 -93 37t-37 92q0 54 37 91.5t93 37.5q55 0 92.5 -37.5t37.5 -91.5q0 -55 -37.5 -92t-92.5 -37z" />
    <glyph glyph-name="Adieresismacron" unicode="&#x1de;" horiz-adv-x="1217" 
d="M878 0l-83 334h-388l-80 -334h-269l387 1443h327l386 -1443h-280zM592 1168l-141 -629h300l-146 629h-13zM425 1823q54 0 90 -36.5t36 -88.5q0 -53 -36 -89t-90 -36q-53 0 -89.5 36t-36.5 89q0 52 36.5 88.5t89.5 36.5zM317 2081h579v-138h-579v138zM788 1823
q53 0 89.5 -36.5t36.5 -88.5q0 -53 -36.5 -89t-89.5 -36q-54 0 -90 36t-36 89q0 52 36 88.5t90 36.5z" />
    <glyph glyph-name="adieresismacron" unicode="&#x1df;" horiz-adv-x="993" 
d="M466 179q73 0 118.5 50t45.5 134v136l-137 -19q-83 -14 -123.5 -51t-40.5 -107t36.5 -106.5t100.5 -36.5zM371 -14q-131 0 -212.5 85t-81.5 232q0 145 91 228t283 111l179 23v92q0 76 -35.5 114.5t-101.5 38.5q-131 0 -150 -138h-232q7 156 111.5 248t280.5 92
q184 0 280.5 -89.5t96.5 -260.5v-762h-248v131h-10q-31 -67 -98 -106t-153 -39zM324 1251q-54 0 -90 36.5t-36 88.5q0 53 36 89.5t90 36.5t90 -36.5t36 -89.5q0 -52 -36 -88.5t-90 -36.5zM685 1251q-54 0 -90 36.5t-36 88.5q0 53 36 89.5t90 36.5q53 0 89.5 -36.5
t36.5 -89.5q0 -52 -36.5 -88.5t-89.5 -36.5zM784 1800v-141h-561v141h561z" />
    <glyph glyph-name="Adotmacron" unicode="&#x1e0;" horiz-adv-x="1217" 
d="M878 0l-83 334h-388l-80 -334h-269l387 1443h327l386 -1443h-280zM592 1168l-141 -629h300l-146 629h-13zM607 1565q-55 0 -93 37.5t-38 94.5t38 94.5t93 37.5q54 0 92 -37.5t38 -94.5t-38 -94.5t-92 -37.5zM896 2081v-138h-579v138h579z" />
    <glyph glyph-name="adotmacron" unicode="&#x1e1;" horiz-adv-x="993" 
d="M466 179q73 0 118.5 50t45.5 134v136l-137 -19q-83 -14 -123.5 -51t-40.5 -107t36.5 -106.5t100.5 -36.5zM371 -14q-131 0 -212.5 85t-81.5 232q0 145 91 228t283 111l179 23v92q0 76 -35.5 114.5t-101.5 38.5q-131 0 -150 -138h-232q7 156 111.5 248t280.5 92
q184 0 280.5 -89.5t96.5 -260.5v-762h-248v131h-10q-31 -67 -98 -106t-153 -39zM504 1257q-53 0 -90.5 38t-37.5 94t37.5 94t90.5 38q54 0 91.5 -38t37.5 -94t-37.5 -94t-91.5 -38zM784 1803v-142h-561v142h561z" />
    <glyph glyph-name="AEmacron" unicode="&#x1e2;" horiz-adv-x="1651" 
d="M699 1229l-193 -621h291v621h-98zM797 0v402h-352l-126 -402h-267l465 1443h1031v-220h-497v-390h468v-207h-468v-406h497v-220h-751zM1383 1771v-142h-579v142h579z" />
    <glyph glyph-name="aemacron" unicode="&#x1e3;" horiz-adv-x="1564" 
d="M1089 -18q-119 0 -205 53t-124 145h-9q-44 -93 -132 -144.5t-208 -51.5q-151 0 -242.5 85.5t-91.5 232.5q0 145 93.5 227.5t291.5 105.5l168 17v83q0 86 -36.5 130.5t-106.5 44.5q-132 0 -148 -135h-233q9 153 108 245t263 92q113 0 189.5 -43.5t108.5 -115.5h10
q40 72 120 115.5t183 43.5q188 0 291.5 -137.5t103.5 -401.5v-83h-586v-18q1 -138 51 -215t139 -77q120 0 157 138h232q-23 -157 -125.5 -246.5t-261.5 -89.5zM1075 915q-80 0 -125.5 -66.5t-50.5 -192.5h339q-6 259 -163 259zM467 179q74 0 118.5 52.5t44.5 141.5v119
l-116 -11q-98 -14 -141.5 -51.5t-43.5 -107.5t36.5 -106.5t101.5 -36.5zM1070 1449v-142h-561v142h561z" />
    <glyph glyph-name="Gcaron" unicode="&#x1e6;" horiz-adv-x="1241" 
d="M1148 595q0 -301 -129.5 -462.5t-373.5 -161.5q-266 0 -408 194.5t-142 560.5q0 361 140.5 553.5t400.5 192.5q219 0 348.5 -127t151.5 -359h-261q-42 262 -239 262q-272 0 -272 -520q0 -262 71.5 -397.5t211.5 -135.5q117 0 180 88t65 246v35h-254v199h510v-168z
M522 1560l-217 311h198l117 -191h10l117 191h198l-217 -311h-206z" />
    <glyph glyph-name="gcaron" unicode="&#x1e7;" horiz-adv-x="1078" 
d="M525 218q180 0 180 340q0 341 -180 341q-179 0 -179 -340q0 -341 179 -341zM525 -373q-182 0 -286.5 80t-114.5 219h241q24 -115 166 -115q89 0 131 52t42 171v145h-10q-67 -167 -256 -167q-170 0 -261.5 142t-91.5 405q0 265 92 407.5t262 142.5q94 0 160.5 -44.5
t98.5 -127.5h9v157h252v-1059q0 -408 -434 -408zM640 1250h-219l-211 325h202l114 -201h10l113 201h203z" />
    <glyph glyph-name="Kcaron" unicode="&#x1e8;" horiz-adv-x="1165" 
d="M395 0h-264v1443h264v-625h11l410 625h283l-423 -633l449 -810h-293l-337 614l-100 -143v-471zM471 1560l-216 311h198l117 -191h10l117 191h198l-217 -311h-207z" />
    <glyph glyph-name="kcaron" unicode="&#x1e9;" horiz-adv-x="1014" 
d="M386 650l310 444h271l-338 -469l359 -625h-281l-262 456l-68 -98v-358h-255v1470h255v-820h9zM146 1587l-217 311h198l117 -191h10l117 191h198l-217 -311h-206z" />
    <glyph glyph-name="Oogonek" unicode="&#x1ea;" horiz-adv-x="1269" 
d="M821 -450q-104 0 -173 60t-69 154q0 128 122 210l-1 9q-27 -12 -72 -12q-255 2 -394 195.5t-139 554.5t140.5 556t399.5 195t399 -194.5t140 -556.5q0 -237 -57.5 -399t-190.5 -281q-141 -126 -141 -224q0 -47 29 -73t77 -26q35 0 51 6v-155q-43 -19 -121 -19zM635 1242
q-131 0 -201 -133t-70 -388t69.5 -387.5t201.5 -132.5q131 0 200.5 132.5t69.5 387.5t-69.5 388t-200.5 133z" />
    <glyph glyph-name="oogonek" unicode="&#x1eb;" horiz-adv-x="1053" 
d="M699 -450q-108 0 -175.5 60t-67.5 155q0 120 121 216v9q-21 -8 -51 -8q-213 0 -326.5 143t-113.5 422q0 276 114.5 420.5t325.5 144.5q213 0 327 -144t114 -421q0 -170 -44.5 -289t-137.5 -212q-69 -72 -98 -125t-29 -108q0 -46 29 -70.5t77 -24.5q39 0 53 6v-155
q-41 -19 -118 -19zM526 186q92 0 136.5 88t44.5 273q0 184 -44.5 272.5t-136.5 88.5q-181 0 -181 -361q0 -185 44.5 -273t136.5 -88z" />
    <glyph glyph-name="Oogonekmacron" unicode="&#x1ec;" horiz-adv-x="1269" 
d="M821 -450q-104 0 -173 60t-69 154q0 128 122 210l-1 9q-27 -12 -72 -12q-255 2 -394 195.5t-139 554.5t140.5 556t399.5 195t399 -194.5t140 -556.5q0 -237 -57.5 -399t-190.5 -281q-141 -126 -141 -224q0 -47 29 -73t77 -26q35 0 51 6v-155q-43 -19 -121 -19zM635 1242
q-131 0 -201 -133t-70 -388t69.5 -387.5t201.5 -132.5q131 0 200.5 132.5t69.5 387.5t-69.5 388t-200.5 133zM930 1771v-142h-579v142h579z" />
    <glyph glyph-name="oogonekmacron" unicode="&#x1ed;" horiz-adv-x="1053" 
d="M699 -450q-108 0 -175.5 60t-67.5 155q0 120 121 216v9q-21 -8 -51 -8q-213 0 -326.5 143t-113.5 422q0 276 114.5 420.5t325.5 144.5q213 0 327 -144t114 -421q0 -170 -44.5 -289t-137.5 -212q-69 -72 -98 -125t-29 -108q0 -46 29 -70.5t77 -24.5q39 0 53 6v-155
q-41 -19 -118 -19zM526 186q92 0 136.5 88t44.5 273q0 184 -44.5 272.5t-136.5 88.5q-181 0 -181 -361q0 -185 44.5 -273t136.5 -88zM806 1449v-142h-560v142h560z" />
    <glyph glyph-name="uni01F1" unicode="&#x1f1;" horiz-adv-x="2326" 
d="M131 1443h448q273 0 413.5 -179.5t140.5 -536.5q0 -361 -140.5 -544t-413.5 -183h-448v1443zM395 1222v-1000h148q164 0 242 123t78 380q0 497 -320 497h-148zM1331 0v178l576 1034v11h-564v220h867v-178l-574 -1034v-11h591v-220h-896z" />
    <glyph glyph-name="uni01F2" unicode="&#x1f2;" horiz-adv-x="2155" 
d="M131 1443h448q273 0 413.5 -179.5t140.5 -536.5q0 -361 -140.5 -544t-413.5 -183h-448v1443zM395 1222v-1000h148q164 0 242 123t78 380q0 497 -320 497h-148zM1323 0v157l437 726v9h-429v202h719v-170l-424 -713v-9h436v-202h-739z" />
    <glyph glyph-name="uni01F3" unicode="&#x1f3;" horiz-adv-x="2009" 
d="M439 -13q-170 0 -261.5 145.5t-91.5 416.5q0 270 91.5 415t261.5 145q94 0 159.5 -44t96.5 -125h10v530h255v-1470h-252v155h-10q-32 -79 -98.5 -123.5t-160.5 -44.5zM526 899q-179 0 -179 -350q0 -352 179 -352q180 0 180 351t-180 351zM1177 0v157l437 726v9h-429v202
h719v-170l-424 -713v-9h436v-202h-739z" />
    <glyph glyph-name="Gacute" unicode="&#x1f4;" horiz-adv-x="1241" 
d="M1148 595q0 -301 -129.5 -462.5t-373.5 -161.5q-266 0 -408 194.5t-142 560.5q0 361 140.5 553.5t400.5 192.5q219 0 348.5 -127t151.5 -359h-261q-42 262 -239 262q-272 0 -272 -520q0 -262 71.5 -397.5t211.5 -135.5q117 0 180 88t65 246v35h-254v199h510v-168z
M727 1564h-214l202 308h246z" />
    <glyph glyph-name="gacute" unicode="&#x1f5;" horiz-adv-x="1078" 
d="M525 218q180 0 180 340q0 341 -180 341q-179 0 -179 -340q0 -341 179 -341zM525 -373q-182 0 -286.5 80t-114.5 219h241q24 -115 166 -115q89 0 131 52t42 171v145h-10q-67 -167 -256 -167q-170 0 -261.5 142t-91.5 405q0 265 92 407.5t262 142.5q94 0 160.5 -44.5
t98.5 -127.5h9v157h252v-1059q0 -408 -434 -408zM631 1246h-214l172 320h237z" />
    <glyph glyph-name="Ngrave" unicode="&#x1f8;" horiz-adv-x="1260" 
d="M368 0h-237v1443h271l480 -1004h9v1004h237v-1443h-270l-480 1005h-10v-1005zM527 1566l-234 308h246l202 -308h-214z" />
    <glyph glyph-name="ngrave" unicode="&#x1f9;" horiz-adv-x="1048" 
d="M119 0v1094h248v-156h10q33 82 102 127.5t166 45.5q144 0 217.5 -89.5t73.5 -257.5v-764h-254v712q0 94 -36 139.5t-111 45.5q-77 0 -119 -53t-42 -151v-693h-255zM643 1246h-212l-195 320h235z" />
    <glyph glyph-name="Aringacute" unicode="&#x1fa;" horiz-adv-x="1217" 
d="M878 0l-83 334h-388l-80 -334h-269l387 1443h327l386 -1443h-280zM592 1168l-141 -629h300l-146 629h-13zM607 1515q-81 0 -133.5 54t-52.5 138t52.5 137.5t133.5 53.5t133 -53.5t52 -137.5t-52 -138t-133 -54zM607 1618q33 0 54 24t21 64t-21 64t-54 24q-34 0 -55 -24
t-21 -64t21 -64t55 -24zM607 2155h217l-123 -189h-186z" />
    <glyph glyph-name="aringacute" unicode="&#x1fb;" horiz-adv-x="993" 
d="M466 179q73 0 118.5 50t45.5 134v136l-137 -19q-83 -14 -123.5 -51t-40.5 -107t36.5 -106.5t100.5 -36.5zM371 -14q-131 0 -212.5 85t-81.5 232q0 145 91 228t283 111l179 23v92q0 76 -35.5 114.5t-101.5 38.5q-131 0 -150 -138h-232q7 156 111.5 248t280.5 92
q184 0 280.5 -89.5t96.5 -260.5v-762h-248v131h-10q-31 -67 -98 -106t-153 -39zM504 1215q-82 0 -137 56.5t-55 144.5t55 144t137 56q83 0 138 -56t55 -144t-55 -144.5t-138 -56.5zM426 1416q0 -43 22 -68.5t56 -25.5t56.5 25.5t22.5 68.5t-22 68t-57 25q-34 0 -56 -25
t-22 -68zM422 1702l118 216h209l-150 -216h-177z" />
    <glyph glyph-name="AEacute" unicode="&#x1fc;" horiz-adv-x="1651" 
d="M699 1229l-193 -621h291v621h-98zM797 0v402h-352l-126 -402h-267l465 1443h1031v-220h-497v-390h468v-207h-468v-406h497v-220h-751zM1195 1564h-214l202 308h246z" />
    <glyph glyph-name="aeacute" unicode="&#x1fd;" horiz-adv-x="1564" 
d="M1089 -18q-119 0 -205 53t-124 145h-9q-44 -93 -132 -144.5t-208 -51.5q-151 0 -242.5 85.5t-91.5 232.5q0 145 93.5 227.5t291.5 105.5l168 17v83q0 86 -36.5 130.5t-106.5 44.5q-132 0 -148 -135h-233q9 153 108 245t263 92q113 0 189.5 -43.5t108.5 -115.5h10
q40 72 120 115.5t183 43.5q188 0 291.5 -137.5t103.5 -401.5v-83h-586v-18q1 -138 51 -215t139 -77q120 0 157 138h232q-23 -157 -125.5 -246.5t-261.5 -89.5zM1075 915q-80 0 -125.5 -66.5t-50.5 -192.5h339q-6 259 -163 259zM467 179q74 0 118.5 52.5t44.5 141.5v119
l-116 -11q-98 -14 -141.5 -51.5t-43.5 -107.5t36.5 -106.5t101.5 -36.5zM890 1246h-214l172 320h237z" />
    <glyph glyph-name="Oslashacute" unicode="&#x1fe;" horiz-adv-x="1262" 
d="M973 1872l-234 -308h-214l202 308h246zM873 1013l-420 -717q66 -100 182 -100q131 0 200 132t69 393q0 177 -31 292zM393 440l419 714q-66 93 -177 93q-131 0 -200.5 -133t-69.5 -393q0 -163 28 -281zM1125 1442l-94 -160q143 -195 143 -561q0 -362 -139.5 -556
t-399.5 -194q-185 0 -314 101l-55 -94l-130 24l97 165q-138 193 -138 554t140 556t400 195q183 0 307 -97l52 89z" />
    <glyph glyph-name="oslashacute" unicode="&#x1ff;" horiz-adv-x="1053" 
d="M816 1566l-194 -320h-215l172 320h237zM695 710l-284 -470q43 -54 115 -54q92 0 136.5 88t44.5 273q0 94 -12 163zM358 379l285 472q-43 57 -117 57q-180 0 -180 -361q0 -97 12 -168zM928 1095l-76 -126q115 -146 115 -422q0 -279 -113.5 -422t-327.5 -143
q-138 0 -234 60l-39 -64l-124 22l73 121q-116 145 -116 426q0 276 114.5 420.5t325.5 144.5q139 0 237 -62l40 66z" />
    <glyph glyph-name="Adblgrave" unicode="&#x200;" horiz-adv-x="1217" 
d="M878 0l-83 334h-388l-80 -334h-269l387 1443h327l386 -1443h-280zM592 1168l-141 -629h300l-146 629h-13zM685 1564l-223 308h232l194 -308h-203zM336 1564l-223 308h231l195 -308h-203z" />
    <glyph glyph-name="adblgrave" unicode="&#x201;" horiz-adv-x="993" 
d="M466 179q73 0 118.5 50t45.5 134v136l-137 -19q-83 -14 -123.5 -51t-40.5 -107t36.5 -106.5t100.5 -36.5zM371 -14q-131 0 -212.5 85t-81.5 232q0 145 91 228t283 111l179 23v92q0 76 -35.5 114.5t-101.5 38.5q-131 0 -150 -138h-232q7 156 111.5 248t280.5 92
q184 0 280.5 -89.5t96.5 -260.5v-762h-248v131h-10q-31 -67 -98 -106t-153 -39zM444 1246h-200l-185 320h220zM785 1246h-200l-178 320h220z" />
    <glyph glyph-name="Ainvertedbreve" unicode="&#x202;" horiz-adv-x="1217" 
d="M878 0l-83 334h-388l-80 -334h-269l387 1443h327l386 -1443h-280zM592 1168l-141 -629h300l-146 629h-13zM301 1557q2 142 82.5 228t223.5 86t223 -86t82 -228h-163q-2 80 -39 127.5t-103 47.5t-103.5 -47.5t-39.5 -127.5h-163z" />
    <glyph glyph-name="ainvertedbreve" unicode="&#x203;" horiz-adv-x="993" 
d="M466 179q73 0 118.5 50t45.5 134v136l-137 -19q-83 -14 -123.5 -51t-40.5 -107t36.5 -106.5t100.5 -36.5zM371 -14q-131 0 -212.5 85t-81.5 232q0 145 91 228t283 111l179 23v92q0 76 -35.5 114.5t-101.5 38.5q-131 0 -150 -138h-232q7 156 111.5 248t280.5 92
q184 0 280.5 -89.5t96.5 -260.5v-762h-248v131h-10q-31 -67 -98 -106t-153 -39zM198 1250q2 147 82 236t224 89t224.5 -89t82.5 -236h-164q-2 85 -39 135t-104 50t-104 -50.5t-39 -134.5h-163z" />
    <glyph glyph-name="Edblgrave" unicode="&#x204;" horiz-adv-x="1006" 
d="M903 220v-220h-772v1443h772v-220h-508v-387h479v-208h-479v-408h508zM595 1564l-223 308h232l195 -308h-204zM247 1564l-224 308h232l195 -308h-203z" />
    <glyph glyph-name="edblgrave" unicode="&#x205;" horiz-adv-x="999" 
d="M511 914q-161 0 -173 -260h340q-7 260 -167 260zM678 325h232q-23 -167 -126.5 -255t-270.5 -88q-208 0 -317.5 142t-109.5 419q0 276 110 422.5t312 146.5q198 0 305 -139t107 -405v-82h-585v-15q1 -144 48 -217.5t135 -73.5q132 0 160 145zM446 1246h-200l-185 320h220
zM787 1246h-200l-178 320h220z" />
    <glyph glyph-name="Einvertedbreve" unicode="&#x206;" horiz-adv-x="1006" 
d="M903 220v-220h-772v1443h772v-220h-508v-387h479v-208h-479v-408h508zM212 1557q2 142 82 228t223 86t223 -86t82 -228h-163q-2 80 -39 127.5t-103 47.5t-103.5 -47.5t-38.5 -127.5h-163z" />
    <glyph glyph-name="einvertedbreve" unicode="&#x207;" horiz-adv-x="999" 
d="M511 914q-161 0 -173 -260h340q-7 260 -167 260zM678 325h232q-23 -167 -126.5 -255t-270.5 -88q-208 0 -317.5 142t-109.5 419q0 276 110 422.5t312 146.5q198 0 305 -139t107 -405v-82h-585v-15q1 -144 48 -217.5t135 -73.5q132 0 160 145zM199 1250q2 147 82.5 236
t224.5 89t224.5 -89t82.5 -236h-164q-2 85 -39 135t-104 50t-104 -50.5t-39 -134.5h-164z" />
    <glyph glyph-name="Idblgrave" unicode="&#x208;" horiz-adv-x="526" 
d="M395 0h-264v1443h264v-1443zM341 1564l-223 308h232l194 -308h-203zM-8 1564l-223 308h232l194 -308h-203z" />
    <glyph glyph-name="idblgrave" unicode="&#x209;" horiz-adv-x="494" 
d="M119 0v1094h255v-1094h-255zM187 1246h-201l-185 320h221zM528 1246h-200l-179 320h221z" />
    <glyph glyph-name="Iinvertedbreve" unicode="&#x20a;" horiz-adv-x="526" 
d="M395 0h-264v1443h264v-1443zM-43 1557q2 142 82.5 228t223.5 86t223 -86t82 -228h-163q-2 80 -39 127.5t-103 47.5t-103.5 -47.5t-38.5 -127.5h-164z" />
    <glyph glyph-name="iinvertedbreve" unicode="&#x20b;" horiz-adv-x="494" 
d="M119 0v1094h255v-1094h-255zM-60 1250q2 147 82.5 236t224.5 89t224 -89t82 -236h-163q-2 84 -39 134.5t-104 50.5t-104 -50t-39 -135h-164z" />
    <glyph glyph-name="Odblgrave" unicode="&#x20c;" horiz-adv-x="1269" 
d="M635 1472q260 0 399.5 -194.5t139.5 -556.5t-139.5 -556t-399.5 -194q-261 0 -400.5 194t-139.5 556q0 361 140 556t400 195zM635 1247q-131 0 -200.5 -133t-69.5 -393q0 -261 69 -393t201 -132q131 0 200 132t69 393t-68.5 393.5t-200.5 132.5zM714 1564l-223 308h231
l195 -308h-203zM365 1564l-223 308h231l195 -308h-203z" />
    <glyph glyph-name="odblgrave" unicode="&#x20d;" horiz-adv-x="1053" 
d="M526 -18q-213 0 -326.5 143t-113.5 422q0 276 114.5 420.5t325.5 144.5q212 0 326.5 -144t114.5 -421q0 -279 -113.5 -422t-327.5 -143zM526 186q92 0 136.5 88t44.5 273q0 184 -44.5 272.5t-136.5 88.5q-180 0 -180 -361q0 -185 44 -273t136 -88zM466 1246h-200
l-185 320h220zM808 1246h-201l-178 320h220z" />
    <glyph glyph-name="Oinvertedbreve" unicode="&#x20e;" horiz-adv-x="1269" 
d="M635 1472q260 0 399.5 -194.5t139.5 -556.5t-139.5 -556t-399.5 -194q-261 0 -400.5 194t-139.5 556q0 361 140 556t400 195zM635 1247q-131 0 -200.5 -133t-69.5 -393q0 -261 69 -393t201 -132q131 0 200 132t69 393t-68.5 393.5t-200.5 132.5zM330 1557q2 142 82 228
t223 86t223.5 -86t82.5 -228h-163q-2 80 -39.5 127.5t-103.5 47.5t-103 -47.5t-39 -127.5h-163z" />
    <glyph glyph-name="oinvertedbreve" unicode="&#x20f;" horiz-adv-x="1053" 
d="M526 -18q-213 0 -326.5 143t-113.5 422q0 276 114.5 420.5t325.5 144.5q212 0 326.5 -144t114.5 -421q0 -279 -113.5 -422t-327.5 -143zM526 186q92 0 136.5 88t44.5 273q0 184 -44.5 272.5t-136.5 88.5q-180 0 -180 -361q0 -185 44 -273t136 -88zM220 1250
q2 147 82.5 236t223.5 89q144 0 224.5 -89t82.5 -236h-164q-2 85 -39 135t-104 50t-103.5 -50t-38.5 -135h-164z" />
    <glyph glyph-name="Rdblgrave" unicode="&#x210;" horiz-adv-x="1129" 
d="M271 1564l-223 308h232l194 -308h-203zM620 1564l-223 308h232l195 -308h-204zM395 561v-561h-264v1443h459q220 0 333 -112.5t113 -326.5q0 -140 -59 -246t-167 -153l258 -605h-288l-226 561h-159zM395 1232v-473h166q104 0 154.5 58t50.5 178q0 237 -202 237h-169z" />
    <glyph glyph-name="rdblgrave" unicode="&#x211;" horiz-adv-x="728" 
d="M119 0v1094h248v-175h9q46 189 220 189q49 0 82 -11v-232q-37 15 -100 15q-99 0 -152 -65.5t-53 -187.5v-627h-254zM312 1246h-200l-185 320h220zM654 1246h-201l-178 320h220z" />
    <glyph glyph-name="Rinvertedbreve" unicode="&#x212;" horiz-adv-x="1129" 
d="M400 1557h-163q2 142 82 228t223 86t223 -86t82 -228h-163q-2 80 -39 127.5t-103 47.5t-103.5 -47.5t-38.5 -127.5zM395 561v-561h-264v1443h459q220 0 333 -112.5t113 -326.5q0 -140 -59 -246t-167 -153l258 -605h-288l-226 561h-159zM395 1232v-473h166q104 0 154.5 58
t50.5 178q0 237 -202 237h-169z" />
    <glyph glyph-name="rinvertedbreve" unicode="&#x213;" horiz-adv-x="728" 
d="M119 0v1094h248v-175h9q46 189 220 189q49 0 82 -11v-232q-37 15 -100 15q-99 0 -152 -65.5t-53 -187.5v-627h-254zM66 1250q2 147 82.5 236t223.5 89q144 0 224.5 -89t82.5 -236h-164q-2 85 -39 135t-104 50t-103.5 -50t-38.5 -135h-164z" />
    <glyph glyph-name="Udblgrave" unicode="&#x214;" horiz-adv-x="1237" 
d="M393 1443v-940q0 -304 225 -304q226 0 226 304v940h264v-955q0 -246 -127.5 -381.5t-362.5 -135.5q-234 0 -361.5 135.5t-127.5 381.5v955h264zM697 1564l-223 308h231l195 -308h-203zM348 1564l-223 308h231l195 -308h-203z" />
    <glyph glyph-name="udblgrave" unicode="&#x215;" horiz-adv-x="1049" 
d="M930 1094v-1094h-248v149h-9q-69 -163 -264 -163q-140 0 -218.5 90t-78.5 255v763h255v-710q0 -94 35 -139.5t109 -45.5q77 0 120 48.5t45 141.5v705h254zM462 1246h-200l-185 320h220zM803 1246h-200l-178 320h220z" />
    <glyph glyph-name="Uinvertedbreve" unicode="&#x216;" horiz-adv-x="1237" 
d="M393 1443v-940q0 -304 225 -304q226 0 226 304v940h264v-955q0 -246 -127.5 -381.5t-362.5 -135.5q-234 0 -361.5 135.5t-127.5 381.5v955h264zM313 1557q2 142 82 228t223 86t223.5 -86t82.5 -228h-164q-1 80 -38.5 127.5t-103.5 47.5t-103 -47.5t-39 -127.5h-163z" />
    <glyph glyph-name="uinvertedbreve" unicode="&#x217;" horiz-adv-x="1049" 
d="M930 1094v-1094h-248v149h-9q-69 -163 -264 -163q-140 0 -218.5 90t-78.5 255v763h255v-710q0 -94 35 -139.5t109 -45.5q77 0 120 48.5t45 141.5v705h254zM215 1250q2 147 82.5 236t224.5 89t224.5 -89t82.5 -236h-164q-2 85 -39 135t-104 50t-104 -50.5t-39 -134.5h-164
z" />
    <glyph glyph-name="Scommaaccent" unicode="&#x218;" horiz-adv-x="1102" 
d="M91 405h253q8 -105 64.5 -162t153.5 -57q90 0 141.5 48.5t51.5 132.5q0 73 -46 123t-158 100l-133 58q-157 68 -230 165.5t-73 247.5q0 186 120 298.5t324 112.5q203 0 317.5 -114.5t118.5 -312.5h-246q-6 103 -55 158.5t-136 55.5q-86 0 -133 -46t-47 -128
q0 -72 46.5 -123.5t155.5 -101.5l110 -45q181 -80 254 -172.5t72 -246.5q0 -195 -123 -309.5t-340 -114.5q-219 0 -338 112.5t-124 320.5zM542 -491h-205l107 356h236z" />
    <glyph glyph-name="scommaaccent" unicode="&#x219;" horiz-adv-x="963" 
d="M104 790q0 146 105 234t277 88q181 0 275.5 -87t99.5 -252h-234q-12 150 -143 150q-60 0 -97 -31.5t-37 -85.5q0 -50 33 -82t111 -60l125 -38q144 -49 204.5 -118t60.5 -190q0 -154 -111 -245t-290 -91q-190 0 -290 87t-110 253h248q18 -151 158 -151q62 0 102 32t40 85
q-1 51 -30 80.5t-105 57.5l-127 41q-138 47 -201.5 122t-63.5 201zM473 -491h-205l106 356h236z" />
    <glyph glyph-name="Tcommaaccent" unicode="&#x21a;" horiz-adv-x="1061" 
d="M662 0h-263v1223h-331v220h925v-220h-331v-1223zM520 -491h-205l106 356h236z" />
    <glyph glyph-name="tcommaaccent" unicode="&#x21b;" horiz-adv-x="689" 
d="M185 1347h255v-256h184v-197h-184v-563q0 -74 27.5 -106.5t89.5 -32.5q42 0 67 4v-193q-50 -10 -124 -10q-172 0 -243.5 67t-71.5 228v606h-134v197h134v256zM411 -491h-205l106 356h236z" />
    <glyph glyph-name="Hcaron" unicode="&#x21e;" horiz-adv-x="1280" 
d="M1148 0h-263v624h-490v-624h-264v1443h264v-599h490v599h263v-1443zM536 1560l-217 311h198l118 -191h9l117 191h198l-216 -311h-207z" />
    <glyph glyph-name="hcaron" unicode="&#x21f;" horiz-adv-x="1055" 
d="M122 0v1470h254v-533h9q33 82 102 127.5t165 45.5q143 0 217 -89.5t74 -257.5v-763h-255v711q0 185 -146 185q-79 0 -122 -53t-43 -151v-692h-255zM145 1587l-217 311h198l117 -191h10l117 191h198l-216 -311h-207z" />
    <glyph glyph-name="Adotaccent" unicode="&#x226;" horiz-adv-x="1217" 
d="M878 0l-83 334h-388l-80 -334h-269l387 1443h327l386 -1443h-280zM592 1168l-141 -629h300l-146 629h-13zM607 1582q-61 0 -99 39t-38 97q0 59 38 97.5t99 38.5q60 0 98 -39t38 -97t-38 -97t-98 -39z" />
    <glyph glyph-name="adotaccent" unicode="&#x227;" horiz-adv-x="993" 
d="M466 179q73 0 118.5 50t45.5 134v136l-137 -19q-83 -14 -123.5 -51t-40.5 -107t36.5 -106.5t100.5 -36.5zM371 -14q-131 0 -212.5 85t-81.5 232q0 145 91 228t283 111l179 23v92q0 76 -35.5 114.5t-101.5 38.5q-131 0 -150 -138h-232q7 156 111.5 248t280.5 92
q184 0 280.5 -89.5t96.5 -260.5v-762h-248v131h-10q-31 -67 -98 -106t-153 -39zM504 1260q-61 0 -102 40t-41 100q0 59 41 99.5t102 40.5q63 0 103 -40t40 -100q0 -61 -40 -100.5t-103 -39.5z" />
    <glyph glyph-name="Ecedilla" unicode="&#x228;" horiz-adv-x="1006" 
d="M903 1223h-508v-387h479v-208h-479v-408h508v-220h-304l-35 -91q160 -24 160 -176q0 -94 -63.5 -144.5t-170.5 -50.5q-76 0 -121 16v127q30 -15 90 -15q93 0 93 62q0 34 -25 48.5t-83 14.5h-39v91l46 118h-320v1443h772v-220z" />
    <glyph glyph-name="ecedilla" unicode="&#x229;" horiz-adv-x="999" 
d="M338 654h340q-7 260 -167 260q-161 0 -173 -260zM920 486h-585v-15q1 -144 48 -217.5t135 -73.5q132 0 160 145h232q-21 -149 -105 -235t-221 -104l-29 -77q159 -24 159 -176q1 -94 -62.5 -144.5t-170.5 -50.5q-76 0 -121 16v127q28 -15 89 -15q93 0 93 62
q0 34 -24.5 48.5t-82.5 14.5h-40v91l41 105q-171 26 -260.5 166t-89.5 390q0 276 110 422.5t312 146.5q198 0 305 -139t107 -405v-82z" />
    <glyph glyph-name="Odieresismacron" unicode="&#x22a;" horiz-adv-x="1269" 
d="M635 1472q260 0 399.5 -194.5t139.5 -556.5t-139.5 -556t-399.5 -194q-261 0 -400.5 194t-139.5 556q0 361 140 556t400 195zM635 1247q-131 0 -200.5 -133t-69.5 -393q0 -261 69 -393t201 -132q131 0 200 132t69 393t-68.5 393.5t-200.5 132.5zM454 1823q54 0 90 -36.5
t36 -88.5q0 -53 -36 -89t-90 -36q-53 0 -89.5 36t-36.5 89q0 52 36.5 88.5t89.5 36.5zM346 2081h579v-138h-579v138zM817 1823q53 0 89.5 -36.5t36.5 -88.5q0 -53 -36.5 -89t-89.5 -36q-54 0 -90 36t-36 89q0 52 36 88.5t90 36.5z" />
    <glyph glyph-name="odieresismacron" unicode="&#x22b;" horiz-adv-x="1053" 
d="M526 -18q-213 0 -326.5 143t-113.5 422q0 276 114.5 420.5t325.5 144.5q212 0 326.5 -144t114.5 -421q0 -279 -113.5 -422t-327.5 -143zM526 186q92 0 136.5 88t44.5 273q0 184 -44.5 272.5t-136.5 88.5q-180 0 -180 -361q0 -185 44 -273t136 -88zM346 1251
q-54 0 -90 36.5t-36 88.5q0 53 36 89.5t90 36.5t90 -36.5t36 -89.5q0 -52 -36 -88.5t-90 -36.5zM707 1251q-54 0 -90 36.5t-36 88.5q0 53 36 89.5t90 36.5t90 -36.5t36 -89.5q0 -52 -36 -88.5t-90 -36.5zM806 1800v-141h-560v141h560z" />
    <glyph glyph-name="Otildemacron" unicode="&#x22c;" horiz-adv-x="1269" 
d="M635 1472q260 0 399.5 -194.5t139.5 -556.5t-139.5 -556t-399.5 -194q-261 0 -400.5 194t-139.5 556q0 361 140 556t400 195zM635 1247q-131 0 -200.5 -133t-69.5 -393q0 -261 69 -393t201 -132q131 0 200 132t69 393t-68.5 393.5t-200.5 132.5zM751 1551q-34 0 -62.5 14
t-47.5 33.5t-35.5 39.5t-34.5 34t-37 14q-57 0 -62 -120h-142q0 124 52.5 194.5t136.5 70.5q42 0 76.5 -21t53.5 -46.5t42.5 -46.5t45.5 -21q57 0 61 121h142q0 -123 -52.5 -194.5t-136.5 -71.5zM925 2081v-141h-579v141h579z" />
    <glyph glyph-name="otildemacron" unicode="&#x22d;" horiz-adv-x="1053" 
d="M526 -18q-213 0 -326.5 143t-113.5 422q0 276 114.5 420.5t325.5 144.5q212 0 326.5 -144t114.5 -421q0 -279 -113.5 -422t-327.5 -143zM526 186q92 0 136.5 88t44.5 273q0 184 -44.5 272.5t-136.5 88.5q-180 0 -180 -361q0 -185 44 -273t136 -88zM644 1244
q-36 0 -67 13.5t-51.5 32t-38 37.5t-35 32.5t-34.5 13.5q-55 0 -58 -119h-143q0 127 52 199.5t140 72.5q44 0 81.5 -20t58 -44t43.5 -44t43 -20q56 0 57 118h144q0 -126 -52 -199t-140 -73zM806 1802v-142h-560v142h560z" />
    <glyph glyph-name="Odotaccent" unicode="&#x22e;" horiz-adv-x="1269" 
d="M635 1472q260 0 399.5 -194.5t139.5 -556.5t-139.5 -556t-399.5 -194q-261 0 -400.5 194t-139.5 556q0 361 140 556t400 195zM635 1247q-131 0 -200.5 -133t-69.5 -393q0 -261 69 -393t201 -132q131 0 200 132t69 393t-68.5 393.5t-200.5 132.5zM635 1582q-60 0 -98 39
t-38 97t38 97t98 39q61 0 99 -38.5t38 -97.5q0 -58 -38 -97t-99 -39z" />
    <glyph glyph-name="odotaccent" unicode="&#x22f;" horiz-adv-x="1053" 
d="M526 -18q-213 0 -326.5 143t-113.5 422q0 276 114.5 420.5t325.5 144.5q212 0 326.5 -144t114.5 -421q0 -279 -113.5 -422t-327.5 -143zM526 186q92 0 136.5 88t44.5 273q0 184 -44.5 272.5t-136.5 88.5q-180 0 -180 -361q0 -185 44 -273t136 -88zM526 1260
q-61 0 -101.5 40t-40.5 100t40.5 100t101.5 40q63 0 103.5 -40t40.5 -100t-40.5 -100t-103.5 -40z" />
    <glyph glyph-name="Odotaccentmacron" unicode="&#x230;" horiz-adv-x="1269" 
d="M635 1472q260 0 399.5 -194.5t139.5 -556.5t-139.5 -556t-399.5 -194q-261 0 -400.5 194t-139.5 556q0 361 140 556t400 195zM635 1247q-131 0 -200.5 -133t-69.5 -393q0 -261 69 -393t201 -132q131 0 200 132t69 393t-68.5 393.5t-200.5 132.5zM635 1565
q-54 0 -92.5 37.5t-38.5 94.5t38.5 94.5t92.5 37.5q55 0 93 -37.5t38 -94.5t-38 -94.5t-93 -37.5zM925 2081v-138h-579v138h579z" />
    <glyph glyph-name="odotaccentmacron" unicode="&#x231;" horiz-adv-x="1053" 
d="M526 -18q-213 0 -326.5 143t-113.5 422q0 276 114.5 420.5t325.5 144.5q212 0 326.5 -144t114.5 -421q0 -279 -113.5 -422t-327.5 -143zM526 186q92 0 136.5 88t44.5 273q0 184 -44.5 272.5t-136.5 88.5q-180 0 -180 -361q0 -185 44 -273t136 -88zM526 1257
q-53 0 -90.5 38t-37.5 94t37.5 94t90.5 38q54 0 91.5 -38t37.5 -94t-37.5 -94t-91.5 -38zM806 1803v-142h-560v142h560z" />
    <glyph glyph-name="Ymacron" unicode="&#x232;" horiz-adv-x="1162" 
d="M711 0h-264v540l-389 903h278l240 -632h10l246 632h272l-392 -903zM869 1771v-142h-579v142h579z" />
    <glyph glyph-name="ymacron" unicode="&#x233;" horiz-adv-x="1006" 
d="M225 -367q-56 0 -91 5v187q12 -3 57 -3q128 0 153 115q0 1 2.5 29t0.5 36l-303 1092h273l187 -885h11l183 885h264l-285 -1043q-41 -156 -96.5 -245.5t-140 -131t-215.5 -41.5zM785 1449v-142h-560v142h560z" />
    <glyph glyph-name="dotlessj" unicode="&#x237;" horiz-adv-x="494" 
d="M374 1094v-1119q0 -176 -81.5 -254t-235.5 -78q-48 0 -70 5v182h31q57 0 79 29.5t22 101.5v1133h255z" />
    <glyph glyph-name="quoteright" unicode="&#x2bc;" horiz-adv-x="544" 
d="M315 884h-193l72 559h241z" />
    <glyph glyph-name="quoteright" unicode="&#x2019;" horiz-adv-x="544" 
d="M315 884h-193l72 559h241z" />
    <glyph glyph-name="circumflex" unicode="&#x2c6;" horiz-adv-x="866" 
d="M546 1556l201 -321h-201l-109 191h-10l-108 -191h-199l200 321h226z" />
    <glyph glyph-name="caron" unicode="&#x2c7;" horiz-adv-x="866" 
d="M542 1250h-218l-212 325h203l113 -201h10l114 201h203z" />
    <glyph glyph-name="breve" unicode="&#x2d8;" horiz-adv-x="843" 
d="M114 1571h164q2 -85 39 -135t105 -50q67 0 103.5 50t38.5 135h164q-2 -147 -82.5 -236t-223.5 -89q-145 0 -225.5 88.5t-82.5 236.5z" />
    <glyph glyph-name="dotaccent" unicode="&#x2d9;" horiz-adv-x="833" 
d="M416 1260q-62 0 -102.5 40t-40.5 100t40.5 100t102.5 40t102.5 -40t40.5 -100t-40 -100t-103 -40z" />
    <glyph glyph-name="ring" unicode="&#x2da;" horiz-adv-x="870" 
d="M435 1228q-88 0 -146 60t-58 154q0 93 58 153t146 60t146 -60t58 -153q0 -94 -58 -154t-146 -60zM435 1339q38 0 62 28t24 74t-24 74t-62 28t-62 -28t-24 -74t24 -74t62 -28z" />
    <glyph glyph-name="ogonek" unicode="&#x2db;" horiz-adv-x="843" 
d="M584 -297v-145q-43 -20 -115 -20q-92 0 -146 54t-54 146q0 78 33 142t108 125h145q-66 -61 -93.5 -109t-27.5 -104q0 -46 24.5 -72.5t67.5 -26.5q31 0 58 10z" />
    <glyph glyph-name="tilde" unicode="&#x2dc;" horiz-adv-x="866" 
d="M550 1257q-44 0 -81 20t-57.5 44t-44 44t-43.5 20q-56 0 -57 -119h-144q0 127 52 199.5t141 72.5q44 0 81 -20t57.5 -44t44 -44t43.5 -20q55 0 56 118h144q0 -125 -52 -198t-140 -73z" />
    <glyph glyph-name="hungarumlaut" unicode="&#x2dd;" horiz-adv-x="843" 
d="M398 1246l162 320h215l-175 -320h-202zM55 1246l162 320h215l-175 -320h-202z" />
    <glyph glyph-name="gravecmb" unicode="&#x300;" 
d="M114 1246h-212l-195 320h235z" />
    <glyph glyph-name="acutecmb" unicode="&#x301;" 
d="M100 1246h-214l172 320h237z" />
    <glyph glyph-name="circumflexcmb" unicode="&#x302;" 
d="M112 1556l200 -321h-200l-109 191h-10l-109 -191h-199l201 321h226z" />
    <glyph glyph-name="tildecmb" unicode="&#x303;" 
d="M121 1250q-44 0 -81 20t-57.5 44t-44 44t-43.5 20q-55 0 -58 -119h-143q0 127 52 200t140 73q36 0 67 -13.5t52 -32t38.5 -37.5t35 -32.5t34.5 -13.5q55 0 56 119h144q0 -126 -52 -199t-140 -73z" />
    <glyph glyph-name="macroncmb" unicode="&#x304;" 
d="M280 1449v-142h-561v142h561z" />
    <glyph glyph-name="brevecmb" unicode="&#x306;" 
d="M-308 1571h163q2 -85 39 -135t105 -50q67 0 104 50t39 135h163q-2 -147 -82.5 -236t-223.5 -89q-145 0 -225 89t-82 236z" />
    <glyph glyph-name="dotaccentcmb" unicode="&#x307;" 
d="M0 1260q-62 0 -102.5 40t-40.5 100t40.5 100t102.5 40t102.5 -40t40.5 -100t-40 -100t-103 -40z" />
    <glyph glyph-name="dieresiscmb" unicode="&#x308;" 
d="M-184 1231q-55 0 -92.5 37.5t-37.5 91.5q0 55 37.5 92t92.5 37q56 0 93.5 -37t37.5 -92q0 -54 -37.5 -91.5t-93.5 -37.5zM185 1231q-56 0 -93.5 37.5t-37.5 91.5q0 55 37.5 92t93.5 37q55 0 92.5 -37t37.5 -92q0 -54 -37.5 -91.5t-92.5 -37.5z" />
    <glyph glyph-name="hookabovecmb" unicode="&#x309;" 
d="M-137 1472v130q47 26 124 26q93 0 147 -53t54 -144q0 -74 -42 -133t-118 -93l-75 101q81 37 81 109q0 35 -23 56.5t-63 21.5q-52 0 -85 -21z" />
    <glyph glyph-name="ringcmb" unicode="&#x30a;" 
d="M0 1228q-88 0 -146 60t-58 154q0 93 58 153t146 60t146 -60t58 -153q0 -95 -58 -154.5t-146 -59.5zM0 1339q38 0 62 28t24 74t-24 74t-62 28t-62 -28t-24 -74t24 -74t62 -28z" />
    <glyph glyph-name="hungarumlautcmb" unicode="&#x30b;" 
d="M60 1246l162 320h215l-175 -320h-202zM-282 1246l161 320h216l-175 -320h-202z" />
    <glyph glyph-name="caroncmb" unicode="&#x30c;" 
d="M109 1250h-219l-212 325h203l114 -201h9l114 201h203z" />
    <glyph glyph-name="dblgravecmb" unicode="&#x30f;" 
d="M-60 1246h-200l-185 320h220zM281 1246h-200l-178 320h220z" />
    <glyph glyph-name="invertedbrevecmb" unicode="&#x311;" 
d="M-307 1250q2 147 82.5 236t224.5 89t224.5 -89t82.5 -236h-164q-2 84 -39 134.5t-104 50.5t-104 -50.5t-39 -134.5h-164z" />
    <glyph glyph-name="horncmb" unicode="&#x31b;" 
d="M0 938v177q27 -28 51 -27q31 1 44 33t13 107v154h191v-206q0 -126 -52 -198t-144 -72q-69 0 -103 32z" />
    <glyph glyph-name="dotbelowcmb" unicode="&#x323;" 
d="M0 -418q-60 0 -98.5 39t-38.5 97t38.5 97t98.5 39q61 0 99 -38.5t38 -97.5t-38 -97.5t-99 -38.5z" />
    <glyph glyph-name="dieresisbelowcmb" unicode="&#x324;" 
d="M-184 -431q-55 0 -92.5 37.5t-37.5 91.5q0 55 37.5 92t92.5 37q56 0 93.5 -37t37.5 -92q0 -54 -37.5 -91.5t-93.5 -37.5zM185 -431q-56 0 -93.5 37.5t-37.5 91.5q0 55 37.5 92t93.5 37q55 0 92.5 -37t37.5 -92q0 -54 -37.5 -91.5t-92.5 -37.5z" />
    <glyph glyph-name="ringbelowcmb" unicode="&#x325;" 
d="M0 -528q-88 0 -146 60t-58 154t58 153.5t146 59.5t146 -59.5t58 -153.5t-58 -154t-146 -60zM0 -416q38 0 62 28t24 74q0 45 -24 73t-62 28t-62 -28t-24 -73q0 -46 24 -74t62 -28z" />
    <glyph glyph-name="commabelowcmb" unicode="&#x326;" 
d="M-10 -491h-205l106 356h236z" />
    <glyph glyph-name="cedillacmb" unicode="&#x327;" 
d="M-112 -209v91l54 138h140v-20l-34 -91q159 -24 159 -176q0 -94 -63.5 -144.5t-170.5 -50.5q-76 0 -121 16v127q30 -15 90 -15q93 0 93 62q0 34 -25 48.5t-83 14.5h-39z" />
    <glyph glyph-name="ogonekcmb" unicode="&#x328;" 
d="M119 -298v-145q-46 -20 -114 -20q-92 0 -146.5 54t-54.5 146q0 78 33 142t108 125h146q-66 -61 -93.5 -109t-27.5 -103q0 -47 24 -73.5t67 -26.5q31 0 58 10z" />
    <glyph glyph-name="circumflexbelowcmb" unicode="&#x32d;" 
d="M-106 -154h212l218 -316h-202l-117 195h-10l-117 -195h-202z" />
    <glyph glyph-name="brevebelowcmb" unicode="&#x32e;" 
d="M-305 -137h163q2 -80 39 -127.5t103 -47.5t103 47.5t39 127.5h163q-2 -142 -82 -228t-223 -86t-223 86t-82 228z" />
    <glyph glyph-name="tildebelowcmb" unicode="&#x330;" 
d="M119 -434q-44 0 -81 20t-57.5 44t-44 44t-43.5 20q-56 0 -57 -119h-144q0 127 52 199.5t141 72.5q36 0 67 -13t51.5 -32t38.5 -38t35.5 -32t33.5 -13q54 0 57 118h143q0 -126 -51.5 -198.5t-140.5 -72.5z" />
    <glyph glyph-name="macronbelowcmb" unicode="&#x331;" 
d="M290 -233v-142h-580v142h580z" />
    <glyph glyph-name="greekquestionmark" unicode="&#x37e;" horiz-adv-x="550" 
d="M275 692q-65 0 -108.5 42.5t-43.5 106.5t43.5 107t108.5 43q66 0 109.5 -42.5t43.5 -107.5q0 -64 -43.5 -106.5t-109.5 -42.5zM287 -307h-188l62 548h252z" />
    <glyph glyph-name="tonosgreek" unicode="&#x384;" horiz-adv-x="760" 
d="M212 1251l66 338h261l-125 -338h-202z" />
    <glyph glyph-name="dieresistonosgreek" unicode="&#x385;" horiz-adv-x="1100" 
d="M251 1253q-52 0 -86.5 36t-34.5 89t34.5 89t86.5 36t86.5 -36t34.5 -89t-34.5 -89t-86.5 -36zM850 1253q-52 0 -86.5 36t-34.5 89t34.5 89t86.5 36t86.5 -36t34.5 -89t-34.5 -89t-86.5 -36zM437 1251l18 338h245l-88 -338h-175z" />
    <glyph glyph-name="Alphatonosgreek" unicode="&#x386;" horiz-adv-x="1223" 
d="M885 0l-83 334h-388l-80 -334h-269l387 1443h327l386 -1443h-280zM599 1168l-142 -629h301l-146 629h-13zM11 1105l66 338h261l-125 -338h-202z" />
    <glyph glyph-name="anoteleia" unicode="&#x387;" horiz-adv-x="550" 
d="M275 504q-65 0 -108.5 43t-43.5 106q0 64 43.5 107t108.5 43q66 0 109.5 -42.5t43.5 -107.5q0 -63 -43.5 -106t-109.5 -43z" />
    <glyph glyph-name="Epsilontonosgreek" unicode="&#x388;" horiz-adv-x="1348" 
d="M49 1105l66 338h261l-125 -338h-202zM1246 220v-220h-772v1443h772v-220h-509v-387h479v-208h-479v-408h509z" />
    <glyph glyph-name="Etatonosgreek" unicode="&#x389;" horiz-adv-x="1622" 
d="M49 1105l66 338h261l-125 -338h-202zM1491 0h-264v624h-490v-624h-263v1443h263v-599h490v599h264v-1443z" />
    <glyph glyph-name="Iotatonosgreek" unicode="&#x38a;" horiz-adv-x="869" 
d="M49 1105l66 338h261l-125 -338h-202zM737 0h-263v1443h263v-1443z" />
    <glyph glyph-name="Omicrontonosgreek" unicode="&#x38c;" horiz-adv-x="1487" 
d="M49 1105l66 338h261l-125 -338h-202zM853 1472q260 0 399.5 -194.5t139.5 -556.5t-139.5 -556t-399.5 -194q-261 0 -400.5 194t-139.5 556q0 361 140 556t400 195zM853 1247q-132 0 -201 -133t-69 -393q0 -261 69 -393t201 -132q131 0 200 132t69 393t-68.5 393.5
t-200.5 132.5z" />
    <glyph glyph-name="Upsilontonosgreek" unicode="&#x38e;" horiz-adv-x="1528" 
d="M49 1105l66 338h261l-125 -338h-202zM1077 0h-264v540l-389 903h277l240 -632h10l246 632h272l-392 -903v-540z" />
    <glyph glyph-name="Omegatonosgreek" unicode="&#x38f;" horiz-adv-x="1523" 
d="M49 1105l66 338h261l-125 -338h-202zM1162 785q0 222 -71 342t-208 120q-136 0 -207.5 -120t-71.5 -342q0 -185 45 -306t150 -213v-266h-454v217h214v11q-220 189 -220 577q0 307 144 487t400 180q257 0 400.5 -179.5t143.5 -487.5q0 -387 -220 -577v-11h214v-217h-454
v266q105 92 150 213t45 306z" />
    <glyph glyph-name="iotadieresistonosgreek" unicode="&#x390;" horiz-adv-x="599" 
d="M119 1094h255v-767q0 -71 28 -103t89 -32q19 0 56 5l6 -192q-51 -12 -120 -12q-171 0 -242.5 67t-71.5 225v809zM-35 1253q-52 0 -86.5 36t-34.5 89t34.5 89t86.5 36t86.5 -36t34.5 -89t-34.5 -89t-86.5 -36zM564 1253q-52 0 -86.5 36t-34.5 89t34.5 89t86.5 36t86.5 -36
t34.5 -89t-34.5 -89t-86.5 -36zM151 1251l18 338h245l-88 -338h-175z" />
    <glyph glyph-name="Alphagreek" unicode="&#x391;" horiz-adv-x="1217" 
d="M878 0l-83 334h-388l-80 -334h-269l387 1443h327l386 -1443h-280zM592 1168l-141 -629h300l-146 629h-13z" />
    <glyph glyph-name="Betagreek" unicode="&#x392;" horiz-adv-x="1145" 
d="M637 0h-506v1443h501q184 0 284 -95t100 -265q0 -124 -65 -210t-171 -107v-12q127 -15 204.5 -106t77.5 -238q0 -195 -112 -302.5t-313 -107.5zM395 1240v-404h145q217 0 217 205q0 98 -49 148.5t-141 50.5h-172zM395 203h174q223 0 223 227q0 114 -57 168.5t-177 54.5
h-163v-450z" />
    <glyph glyph-name="Gammagreek" unicode="&#x393;" horiz-adv-x="955" 
d="M395 0h-264v1443h745v-220h-481v-1223z" />
    <glyph glyph-name="Deltagreek" unicode="&#x394;" horiz-adv-x="1233" 
d="M1145 0h-1057v156l366 1287h326l365 -1287v-156zM359 224v-11h501v11l-247 951h-12z" />
    <glyph glyph-name="Epsilongreek" unicode="&#x395;" horiz-adv-x="1006" 
d="M903 220v-220h-772v1443h772v-220h-508v-387h479v-208h-479v-408h508z" />
    <glyph glyph-name="Zetagreek" unicode="&#x396;" horiz-adv-x="1096" 
d="M100 0v178l576 1034v11h-564v220h867v-178l-574 -1034v-11h591v-220h-896z" />
    <glyph glyph-name="Etagreek" unicode="&#x397;" horiz-adv-x="1280" 
d="M1148 0h-263v624h-490v-624h-264v1443h264v-599h490v599h263v-1443z" />
    <glyph glyph-name="Thetagreek" unicode="&#x398;" horiz-adv-x="1316" 
d="M849 610h-383v214h383v-214zM658 1472q276 0 419.5 -195t143.5 -555q0 -363 -144.5 -557t-418.5 -194t-418.5 194t-144.5 557q0 360 144 555t419 195zM658 1248q-298 0 -298 -526q0 -527 298 -527t298 527q0 526 -298 526z" />
    <glyph glyph-name="Iotagreek" unicode="&#x399;" horiz-adv-x="526" 
d="M395 0h-264v1443h264v-1443z" />
    <glyph glyph-name="Kappagreek" unicode="&#x39a;" horiz-adv-x="1165" 
d="M395 0h-264v1443h264v-625h11l410 625h283l-423 -633l449 -810h-293l-337 614l-100 -143v-471z" />
    <glyph glyph-name="Lambdagreek" unicode="&#x39b;" horiz-adv-x="1208" 
d="M867 0l-264 1147h-13l-260 -1147h-268l380 1443h327l380 -1443h-282z" />
    <glyph glyph-name="Mugreek" unicode="&#x39c;" horiz-adv-x="1502" 
d="M1371 0h-238v1025h-12l-279 -1002h-183l-278 1002h-12v-1025h-238v1443h330l285 -1032h11l286 1032h328v-1443z" />
    <glyph glyph-name="Nugreek" unicode="&#x39d;" horiz-adv-x="1260" 
d="M368 0h-237v1443h271l480 -1004h9v1004h237v-1443h-270l-480 1005h-10v-1005z" />
    <glyph glyph-name="Xigreek" unicode="&#x39e;" horiz-adv-x="1080" 
d="M102 1443h875v-226h-875v226zM908 624h-737v213h737v-213zM102 226h875v-226h-875v226z" />
    <glyph glyph-name="Omicrongreek" unicode="&#x39f;" horiz-adv-x="1269" 
d="M635 1472q260 0 399.5 -194.5t139.5 -556.5t-139.5 -556t-399.5 -194q-261 0 -400.5 194t-139.5 556q0 361 140 556t400 195zM635 1247q-131 0 -200.5 -133t-69.5 -393q0 -261 69 -393t201 -132q131 0 200 132t69 393t-68.5 393.5t-200.5 132.5z" />
    <glyph glyph-name="Pigreek" unicode="&#x3a0;" horiz-adv-x="1260" 
d="M1128 0h-263v1223h-470v-1223h-264v1443h997v-1443z" />
    <glyph glyph-name="Rhogreek" unicode="&#x3a1;" horiz-adv-x="1115" 
d="M131 1443h480q199 0 311.5 -130.5t112.5 -356.5q0 -223 -117 -354t-322 -131h-201v-471h-264v1443zM395 1230v-548h153q219 0 219 274t-218 274h-154z" />
    <glyph glyph-name="Sigmagreek" unicode="&#x3a3;" horiz-adv-x="1091" 
d="M403 231v-11h585v-220h-888v175l308 561l-296 515v192h856v-220h-538v-11l253 -447v-17z" />
    <glyph glyph-name="Taugreek" unicode="&#x3a4;" horiz-adv-x="1061" 
d="M662 0h-263v1223h-331v220h925v-220h-331v-1223z" />
    <glyph glyph-name="Upsilongreek" unicode="&#x3a5;" horiz-adv-x="1162" 
d="M711 0h-264v540l-389 903h278l240 -632h10l246 632h272l-392 -903z" />
    <glyph glyph-name="Phigreek" unicode="&#x3a6;" horiz-adv-x="1513" 
d="M1170 716q0 423 -297 453v-906q297 32 297 453zM343 716q0 -421 296 -453v906q-296 -32 -296 -453zM876 -79h-239v138q-262 19 -406.5 191t-144.5 465t144.5 466.5t406.5 192.5v141h239v-141q261 -19 406 -192.5t145 -466.5q0 -292 -145 -464.5t-406 -191.5v-138z" />
    <glyph glyph-name="Chigreek" unicode="&#x3a7;" horiz-adv-x="1216" 
d="M71 0l367 729v5l-365 709h298l240 -517h11l240 517h283l-383 -718v-5l381 -720h-289l-251 503h-13l-245 -503h-274z" />
    <glyph glyph-name="Psigreek" unicode="&#x3a8;" horiz-adv-x="1433" 
d="M841 0h-249v313q-473 22 -473 549v581h248v-590q0 -163 53.5 -240.5t174.5 -85.5v916h243v-916q121 8 174.5 85.5t53.5 240.5v590h248v-580q0 -266 -120.5 -403t-352.5 -147v-313z" />
    <glyph glyph-name="Omegagreek" unicode="&#x3a9;" horiz-adv-x="1280" 
d="M919 785q0 222 -71 342t-208 120q-136 0 -207.5 -120t-71.5 -342q0 -185 44.5 -306t149.5 -213v-266h-453v217h214v11q-220 189 -220 577q0 307 143.5 487t400.5 180t400.5 -179.5t143.5 -487.5q0 -387 -221 -577v-11h215v-217h-454v266q105 92 150 213t45 306z" />
    <glyph glyph-name="Iotadieresisgreek" unicode="&#x3aa;" horiz-adv-x="526" 
d="M395 0h-264v1443h264v-1443zM79 1575q-56 0 -93 37.5t-37 91.5q0 55 37 92t93 37q55 0 92.5 -37t37.5 -92q0 -54 -37.5 -91.5t-92.5 -37.5zM447 1575q-55 0 -92.5 37.5t-37.5 91.5q0 55 37.5 92t92.5 37q56 0 93.5 -37t37.5 -92q0 -54 -37.5 -91.5t-93.5 -37.5z" />
    <glyph glyph-name="Upsilondieresisgreek" unicode="&#x3ab;" horiz-adv-x="1162" 
d="M711 0h-264v540l-389 903h278l240 -632h10l246 632h272l-392 -903zM396 1575q-56 0 -93.5 37.5t-37.5 91.5q0 55 37.5 92t93.5 37q55 0 92.5 -37t37.5 -92q0 -54 -37.5 -91.5t-92.5 -37.5zM764 1575q-55 0 -92.5 37.5t-37.5 91.5q0 55 37.5 92t92.5 37q56 0 93.5 -37
t37.5 -92q0 -54 -37.5 -91.5t-93.5 -37.5z" />
    <glyph glyph-name="alphatonosgreek" unicode="&#x3ac;" horiz-adv-x="1126" 
d="M516 197q87 0 132 92t45 258q0 170 -44 261t-128 91q-87 0 -131.5 -90t-44.5 -262q0 -169 43.5 -259.5t127.5 -90.5zM441 -13q-176 0 -267 145.5t-91 415.5q0 266 92 413.5t266 147.5q188 0 247 -183h9v168h247v-806q0 -55 17 -76.5t54 -21.5q19 0 43 6l6 -192
q-48 -13 -120 -13q-94 0 -151.5 36t-79.5 119l-7 20h-9q-67 -179 -256 -179zM402 1251l66 338h261l-125 -338h-202z" />
    <glyph glyph-name="epsilontonosgreek" unicode="&#x3ad;" horiz-adv-x="973" 
d="M482 -19q-188 0 -295 84t-107 231q0 92 43 156.5t120 95.5v9q-145 68 -145 234q0 149 107 234.5t288 85.5q192 0 298.5 -94.5t120.5 -272.5h-240q-24 163 -177 163q-71 0 -112 -36t-41 -97q0 -128 159 -128h100v-190h-99q-167 0 -167 -134q0 -68 42.5 -102t112.5 -34
q159 0 191 176h248q-16 -174 -138 -277.5t-309 -103.5zM392 1251l65 338h261l-124 -338h-202z" />
    <glyph glyph-name="etatonosgreek" unicode="&#x3ae;" horiz-adv-x="1120" 
d="M1008 -348h-254v1057q0 93 -34.5 140.5t-110.5 47.5t-117 -53t-41 -152v-692h-255v804q0 54 -19 77t-59 23q-23 0 -44 -6l-3 192q52 13 123 13q96 0 154.5 -36t81.5 -116q0 -8 5 -18h9q33 84 102.5 131t165.5 47q148 0 222 -92.5t74 -255.5v-1111zM414 1251l66 338h261
l-125 -338h-202z" />
    <glyph glyph-name="iotatonosgreek" unicode="&#x3af;" horiz-adv-x="599" 
d="M119 1094h255v-767q0 -71 28 -103t89 -32q19 0 56 5l6 -192q-51 -12 -120 -12q-171 0 -242.5 67t-71.5 225v809zM137 1251l66 338h261l-125 -338h-202z" />
    <glyph glyph-name="upsilondieresistonosgreek" unicode="&#x3b0;" horiz-adv-x="1009" 
d="M499 -14q-390 0 -390 418v690h245v-687q0 -109 36 -158.5t115 -49.5q48 0 80.5 25t48.5 74.5t22 104.5t6 132q0 313 -79 559h246q83 -221 83 -562q0 -288 -106 -417t-307 -129zM208 1253q-52 0 -86.5 36t-34.5 89t34.5 89t86.5 36t87 -36t35 -89t-35 -89t-87 -36z
M807 1253q-52 0 -86.5 36t-34.5 89t34.5 89t86.5 36t87 -36t35 -89t-35 -89t-87 -36zM395 1251l18 338h245l-88 -338h-175z" />
    <glyph glyph-name="alphagreek" unicode="&#x3b1;" horiz-adv-x="1126" 
d="M516 197q87 0 132 92t45 258q0 170 -44 261t-128 91q-87 0 -131.5 -90t-44.5 -262q0 -169 43.5 -259.5t127.5 -90.5zM441 -13q-176 0 -267 145.5t-91 415.5q0 266 92 413.5t266 147.5q188 0 247 -183h9v168h247v-806q0 -55 17 -76.5t54 -21.5q19 0 43 6l6 -192
q-48 -13 -120 -13q-94 0 -151.5 36t-79.5 119l-7 20h-9q-67 -179 -256 -179z" />
    <glyph glyph-name="betagreek" unicode="&#x3b2;" horiz-adv-x="1080" 
d="M465 688v191h47q86 0 126 51t40 156q0 99 -38 151t-113 52q-81 0 -118 -59t-37 -177v-551q0 -149 48.5 -227t143.5 -78q81 0 125.5 61.5t44.5 170.5q0 133 -52.5 196t-167.5 63h-49zM119 1016q0 477 405 477q181 0 282 -97t101 -273q0 -227 -167 -313v-10
q132 -35 193 -129t61 -252q0 -202 -91 -317t-260 -115q-93 0 -161 41.5t-99 124.5h-9v-501h-255v1364z" />
    <glyph glyph-name="gammagreek" unicode="&#x3b3;" horiz-adv-x="1020" 
d="M607 -346h-250v275l-316 1165h258l199 -857h10q94 203 132.5 344.5t38.5 313.5q0 98 -16 199h250q17 -87 17 -176q0 -239 -76.5 -453.5t-246.5 -500.5v-310z" />
    <glyph glyph-name="deltagreek" unicode="&#x3b4;" horiz-adv-x="1011" 
d="M508 -18q-214 0 -327 135t-113 374q0 186 81.5 306.5t219.5 158.5v10q-160 93 -160 252q0 133 97.5 204t256.5 71q186 0 295 -65l-5 -195q-125 65 -255 65q-65 0 -100 -24.5t-35 -69.5q0 -41 30.5 -72.5t121.5 -87.5q173 -105 248.5 -226.5t75.5 -315.5q0 -244 -114 -382
t-317 -138zM506 171q87 0 132.5 84t45.5 245q0 154 -47 237.5t-132 83.5q-86 0 -132.5 -85.5t-46.5 -236.5q0 -159 45.5 -243.5t134.5 -84.5z" />
    <glyph glyph-name="epsilongreek" unicode="&#x3b5;" horiz-adv-x="973" 
d="M482 -18q-188 0 -295 83.5t-107 230.5q0 93 43 157t120 95v9q-145 68 -145 234q0 149 107 235t288 86q192 0 298.5 -94.5t120.5 -273.5h-240q-24 163 -177 163q-71 0 -112 -36t-41 -97q0 -128 159 -128h100v-189h-99q-167 0 -167 -135q0 -67 42.5 -101t112.5 -34
q159 0 191 175h248q-16 -174 -138 -277t-309 -103z" />
    <glyph glyph-name="zetagreek" unicode="&#x3b6;" horiz-adv-x="854" 
d="M711 -349l-195 60q76 127 76 199q0 52 -31.5 87.5t-128.5 80.5q-195 89 -278 204t-83 279q0 187 100 357.5t289 336.5v9h-338v206h684v-186q-253 -202 -364.5 -366t-111.5 -334q0 -110 49.5 -176t195.5 -140q148 -73 202.5 -138.5t54.5 -171.5q0 -133 -121 -307z" />
    <glyph glyph-name="etagreek" unicode="&#x3b7;" horiz-adv-x="1120" 
d="M1008 -348h-254v1057q0 93 -34.5 140.5t-110.5 47.5t-117 -53t-41 -152v-692h-255v804q0 54 -19 77t-59 23q-23 0 -44 -6l-3 192q52 13 123 13q96 0 154.5 -36t81.5 -116q0 -8 5 -18h9q33 84 102.5 131t165.5 47q148 0 222 -92.5t74 -255.5v-1111z" />
    <glyph glyph-name="thetagreek" unicode="&#x3b8;" horiz-adv-x="1064" 
d="M533 -18q-230 0 -336 182t-106 579q0 394 107.5 572t334.5 178t334 -178.5t107 -573.5q0 -396 -106 -577.5t-335 -181.5zM533 179q101 0 143.5 106.5t43.5 366.5h-376q2 -260 44 -366.5t145 -106.5zM344 846h376q-4 248 -47 348.5t-140 100.5q-98 0 -141.5 -100.5
t-47.5 -348.5z" />
    <glyph glyph-name="iotagreek" unicode="&#x3b9;" horiz-adv-x="599" 
d="M119 1094h255v-767q0 -71 28 -103t89 -32q19 0 56 5l6 -192q-51 -12 -120 -12q-171 0 -242.5 67t-71.5 225v809z" />
    <glyph glyph-name="kappagreek" unicode="&#x3ba;" horiz-adv-x="1048" 
d="M119 0v1094h251v-445h9l186 253q85 122 143 161.5t150 39.5q54 0 100 -13v-192q-18 6 -52 6q-44 0 -74.5 -24.5t-85.5 -103.5l-101 -142l346 -634h-266l-242 454l-113 -145v-309h-251z" />
    <glyph glyph-name="lambdagreek" unicode="&#x3bb;" horiz-adv-x="1060" 
d="M27 0l382 1026l-28 92q-34 109 -71.5 142.5t-106.5 33.5q-24 0 -51 -6l-6 192q52 13 110 13q69 0 117.5 -15t92 -55t78 -109t68.5 -178l253 -830q20 -67 46.5 -91.5t70.5 -24.5q12 0 42 6l7 -192q-48 -13 -113 -13q-114 0 -171 46t-92 165l-139 462h-9l-227 -664h-253z
" />
    <glyph glyph-name="nugreek" unicode="&#x3bd;" horiz-adv-x="1020" 
d="M338 0l-297 1094h258l199 -858h10q95 205 133 346.5t38 313.5q0 99 -16 198h250q17 -87 17 -176q0 -225 -69.5 -431.5t-231.5 -486.5h-291z" />
    <glyph glyph-name="xigreek" unicode="&#x3be;" horiz-adv-x="887" 
d="M717 -349l-194 60q76 126 76 200q0 52 -32 87.5t-134 81.5q-203 94 -279 178t-76 205q0 104 61.5 182.5t172.5 112.5v9q-95 41 -143 100.5t-48 153.5q0 89 52.5 150.5t140.5 83.5v9h-189v206h685v-180l-97 -15q-185 -27 -266 -82t-81 -147q0 -157 264 -157h120v-201h-120
q-151 0 -223.5 -51t-72.5 -139q0 -69 48.5 -115.5t194.5 -114.5q150 -70 206 -137t56 -172q0 -77 -31.5 -150.5t-90.5 -157.5z" />
    <glyph glyph-name="omicrongreek" unicode="&#x3bf;" horiz-adv-x="1043" 
d="M521 -18q-211 0 -324.5 143.5t-113.5 421.5q0 276 115 420.5t323 144.5q209 0 323.5 -144t114.5 -421q0 -278 -113.5 -421.5t-324.5 -143.5zM521 186q90 0 134 88t44 273q0 361 -178 361q-177 0 -177 -361q0 -185 44 -273t133 -88z" />
    <glyph glyph-name="pigreek" unicode="&#x3c0;" horiz-adv-x="1251" 
d="M250 0v888h-187v206h1103v-206h-186v-600q0 -55 17 -76.5t60 -21.5q26 0 44 6l7 -192q-46 -13 -121 -13q-139 0 -195.5 67.5t-56.5 222.5v607h-240v-888h-245z" />
    <glyph glyph-name="rhogreek" unicode="&#x3c1;" horiz-adv-x="1068" 
d="M543 197q181 0 181 357q0 354 -181 354t-181 -361q0 -350 181 -350zM109 -348v897q0 277 112.5 420t324.5 143q216 0 327 -147t111 -413q0 -270 -91.5 -417.5t-263.5 -147.5q-192 0 -255 166h-10v-501h-255z" />
    <glyph glyph-name="sigmafinalgreek" unicode="&#x3c2;" horiz-adv-x="965" 
d="M845 -42q0 -75 -30.5 -147.5t-90.5 -159.5l-195 60q76 124 76 200q0 51 -31.5 86t-129.5 81q-197 92 -279 207.5t-82 300.5q0 245 110.5 385.5t311.5 140.5q176 0 277.5 -106t111.5 -296h-236q-10 98 -46 146.5t-103 48.5q-79 0 -123 -76.5t-44 -224.5q0 -128 47 -193.5
t199 -142.5q148 -72 202.5 -138t54.5 -172z" />
    <glyph glyph-name="sigmagreek" unicode="&#x3c3;" horiz-adv-x="1136" 
d="M512 -18q-210 0 -322.5 143.5t-112.5 407.5q0 263 121 412t342 149h533v-206h-222v-9q45 -57 71.5 -146t26.5 -194q0 -268 -112.5 -412.5t-324.5 -144.5zM516 185q178 0 178 353q0 173 -45.5 261t-131.5 88q-180 0 -180 -353q0 -349 179 -349z" />
    <glyph glyph-name="taugreek" unicode="&#x3c4;" horiz-adv-x="946" 
d="M638 -7q-171 0 -244 67t-73 225v603h-270v206h820v-206h-294v-560q0 -71 28 -103.5t89 -32.5q33 0 63 5l6 -192q-51 -12 -125 -12z" />
    <glyph glyph-name="upsilongreek" unicode="&#x3c5;" horiz-adv-x="1009" 
d="M499 -14q-390 0 -390 418v690h245v-687q0 -109 36 -158.5t115 -49.5q48 0 80.5 25t48.5 74.5t22 104.5t6 132q0 313 -79 559h246q83 -221 83 -562q0 -288 -106 -417t-307 -129z" />
    <glyph glyph-name="phigreek" unicode="&#x3c6;" horiz-adv-x="1345" 
d="M555 -348v329q-222 15 -347 161t-125 405q0 262 128 407t344 159v234h235v-234q217 -14 344.5 -159t127.5 -407q0 -258 -125.5 -404.5t-346.5 -161.5v-329h-235zM784 179q232 26 232 368t-232 369v-737zM561 179v737q-232 -25 -232 -369q0 -341 232 -368z" />
    <glyph glyph-name="chigreek" unicode="&#x3c7;" horiz-adv-x="1041" 
d="M71 -348l324 717l-175 418q-29 70 -55 93.5t-71 23.5q-22 0 -43 -6v192q54 13 112 13q101 0 155 -43t98 -151l120 -307h9l194 492h250l-324 -721l173 -413q29 -70 54.5 -94t72.5 -24q24 0 41 6l7 -192q-41 -13 -116 -13q-100 0 -155 40.5t-95 144.5l-123 314h-9
l-193 -490h-251z" />
    <glyph glyph-name="psigreek" unicode="&#x3c8;" horiz-adv-x="1325" 
d="M536 -348v333q-215 5 -321 115.5t-106 340.5v653h242v-655q0 -124 43 -181t139 -58v1147h244v-1147q107 2 155.5 77.5t48.5 240.5q1 330 -78 576h243q34 -84 58 -231t24 -317q0 -270 -105.5 -411t-348.5 -150v-333h-238z" />
    <glyph glyph-name="omegagreek" unicode="&#x3c9;" horiz-adv-x="1392" 
d="M962 -18q-99 0 -164 49.5t-97 158.5h-10q-60 -208 -260 -208q-333 0 -333 507q0 179 36.5 336.5t98.5 268.5h250q-134 -273 -134 -607q0 -153 27 -222t92 -69q55 0 84 51.5t29 151.5v381h230v-381q0 -100 29 -151.5t84 -51.5q64 0 91.5 69t27.5 222q0 337 -134 607h250
q62 -111 98.5 -268.5t36.5 -336.5q0 -507 -332 -507z" />
    <glyph glyph-name="iotadieresisgreek" unicode="&#x3ca;" horiz-adv-x="599" 
d="M119 1094h255v-767q0 -71 28 -103t89 -32q19 0 56 5l6 -192q-51 -12 -120 -12q-171 0 -242.5 67t-71.5 225v809zM53 1231q-56 0 -93 37.5t-37 91.5q0 55 37 92t93 37q55 0 92.5 -37t37.5 -92q0 -54 -37.5 -91.5t-92.5 -37.5zM421 1231q-55 0 -92.5 37.5t-37.5 91.5
q0 55 37.5 92t92.5 37q56 0 93.5 -37t37.5 -92q0 -54 -37.5 -91.5t-93.5 -37.5z" />
    <glyph glyph-name="upsilondieresisgreek" unicode="&#x3cb;" horiz-adv-x="1009" 
d="M499 -14q-390 0 -390 418v690h245v-687q0 -109 36 -158.5t115 -49.5q48 0 80.5 25t48.5 74.5t22 104.5t6 132q0 313 -79 559h246q83 -221 83 -562q0 -288 -106 -417t-307 -129zM302 1231q-55 0 -92.5 37.5t-37.5 91.5q0 55 37.5 92t92.5 37q56 0 93.5 -37t37.5 -92
q0 -54 -37.5 -91.5t-93.5 -37.5zM671 1231q-56 0 -93 37.5t-37 91.5q0 55 37 92t93 37q55 0 92.5 -37t37.5 -92q0 -54 -37.5 -91.5t-92.5 -37.5z" />
    <glyph glyph-name="omicrontonosgreek" unicode="&#x3cc;" horiz-adv-x="1043" 
d="M521 -18q-211 0 -324.5 143.5t-113.5 421.5q0 276 115 420.5t323 144.5q209 0 323.5 -144t114.5 -421q0 -278 -113.5 -421.5t-324.5 -143.5zM521 186q90 0 134 88t44 273q0 361 -178 361q-177 0 -177 -361q0 -185 44 -273t133 -88zM415 1251l66 338h260l-124 -338h-202z
" />
    <glyph glyph-name="upsilontonosgreek" unicode="&#x3cd;" horiz-adv-x="1009" 
d="M499 -14q-390 0 -390 418v690h245v-687q0 -109 36 -158.5t115 -49.5q48 0 80.5 25t48.5 74.5t22 104.5t6 132q0 313 -79 559h246q83 -221 83 -562q0 -288 -106 -417t-307 -129zM380 1251l65 338h261l-124 -338h-202z" />
    <glyph glyph-name="omegatonosgreek" unicode="&#x3ce;" horiz-adv-x="1392" 
d="M962 -18q-99 0 -164 49.5t-97 158.5h-10q-60 -208 -260 -208q-333 0 -333 507q0 179 36.5 336.5t98.5 268.5h250q-134 -273 -134 -607q0 -153 27 -222t92 -69q55 0 84 51.5t29 151.5v381h230v-381q0 -100 29 -151.5t84 -51.5q64 0 91.5 69t27.5 222q0 337 -134 607h250
q62 -111 98.5 -268.5t36.5 -336.5q0 -507 -332 -507zM606 1251l66 338h261l-125 -338h-202z" />
    <glyph glyph-name="uni0400" unicode="&#x400;" horiz-adv-x="1019" 
d="M910 220v-220h-772v1443h772v-220h-508v-387h479v-208h-479v-408h508zM422 1566l-233 308h245l202 -308h-214z" />
    <glyph glyph-name="Iocyrillic" unicode="&#x401;" horiz-adv-x="1019" 
d="M910 220v-220h-772v1443h772v-220h-508v-387h479v-208h-479v-408h508zM340 1575q-56 0 -93 37.5t-37 91.5q0 55 37 92t93 37q55 0 92.5 -37t37.5 -92q0 -54 -37.5 -91.5t-92.5 -37.5zM708 1575q-55 0 -92.5 37.5t-37.5 91.5q0 55 37.5 92t92.5 37q56 0 93.5 -37t37.5 -92
q0 -54 -37.5 -91.5t-93.5 -37.5z" />
    <glyph glyph-name="Djecyrillic" unicode="&#x402;" horiz-adv-x="1456" 
d="M945 -52q-47 0 -82.5 6t-44.5 12v211q23 -14 92 -14q91 0 139.5 67t48.5 193q0 122 -53 191t-153 69q-82 0 -142 -32.5t-80 -68.5v-582h-264v1223h-331v220h926v-220h-331v-403h11q38 34 109 61t159 27q203 0 308.5 -126.5t105.5 -348.5q0 -223 -108.5 -354t-309.5 -131z
" />
    <glyph glyph-name="Gjecyrillic" unicode="&#x403;" horiz-adv-x="970" 
d="M402 0h-264v1443h755v-220h-491v-1223zM604 1560h-213l201 308h246z" />
    <glyph glyph-name="Ecyrillic" unicode="&#x404;" horiz-adv-x="1218" 
d="M1123 463q-16 -236 -145 -364t-346 -128q-258 0 -395 194.5t-137 556.5q0 363 136.5 556.5t395.5 193.5q214 0 345.5 -134t145.5 -378h-256q-16 135 -77 209t-158 74q-115 0 -181 -104.5t-78 -299.5h416v-212h-417q9 -206 75 -316.5t186 -110.5q99 0 159 68t76 195h255z
" />
    <glyph glyph-name="Dzecyrillic" unicode="&#x405;" horiz-adv-x="1116" 
d="M98 405h253q8 -105 64.5 -162t153.5 -57q89 0 141 48.5t52 132.5q0 73 -46 123t-158 100l-133 58q-157 68 -230 165.5t-73 247.5q0 186 120 298.5t323 112.5q204 0 318.5 -114.5t118.5 -312.5h-246q-7 103 -56 158.5t-135 55.5t-133 -46t-47 -128q0 -72 46.5 -123.5
t155.5 -101.5l110 -45q180 -80 253 -172.5t73 -246.5q0 -195 -123 -309.5t-340 -114.5q-220 0 -338.5 112.5t-123.5 320.5z" />
    <glyph glyph-name="Icyrillic" unicode="&#x406;" horiz-adv-x="540" 
d="M402 0h-264v1443h264v-1443z" />
    <glyph glyph-name="Yicyrillic" unicode="&#x407;" horiz-adv-x="540" 
d="M402 0h-264v1443h264v-1443zM86 1575q-56 0 -93.5 37.5t-37.5 91.5q0 55 37.5 92t93.5 37q55 0 92.5 -37t37.5 -92q0 -54 -37.5 -91.5t-92.5 -37.5zM454 1575q-55 0 -92.5 37.5t-37.5 91.5q0 55 37.5 92t92.5 37q56 0 93.5 -37t37.5 -92q0 -54 -37.5 -91.5t-93.5 -37.5z
" />
    <glyph glyph-name="Jecyrillic" unicode="&#x408;" horiz-adv-x="1011" 
d="M66 449h255q5 -249 151 -249q141 0 141 234v1009h264v-1006q0 -226 -103.5 -346t-294.5 -120q-199 0 -307 126t-106 352z" />
    <glyph glyph-name="Ljecyrillic" unicode="&#x409;" horiz-adv-x="1820" 
d="M494 559q-5 -141 -25 -242t-60 -177t-106 -113.5t-160 -37.5q-62 0 -94 12v230q28 -7 54 -7q35 0 61 17.5t41.5 46t25.5 75.5t14.5 95.5t6.5 116.5l33 868h818v-500h209q194 0 309.5 -128t115.5 -344t-111 -343.5t-299 -127.5h-488v1223h-318zM1103 215h153
q213 0 213 256q0 258 -214 258h-152v-514z" />
    <glyph glyph-name="Njecyrillic" unicode="&#x40a;" horiz-adv-x="1851" 
d="M402 635v-635h-264v1443h264v-589h467v589h264v-588h209q194 0 309.5 -114.5t115.5 -307.5q0 -199 -111 -316t-300 -117h-487v635h-467zM1133 215h165q202 0 202 218q0 210 -203 210h-164v-428z" />
    <glyph glyph-name="Tshecyrillic" unicode="&#x40b;" horiz-adv-x="1473" 
d="M886 683q-61 0 -112 -22t-71.5 -41.5t-32.5 -37.5v-582h-264v1223h-331v220h926v-220h-331v-404h11q38 33 109 61t166 28q195 0 299 -126t104 -340v-442h-264v431q0 122 -52.5 187t-156.5 65z" />
    <glyph glyph-name="Kjecyrillic" unicode="&#x40c;" horiz-adv-x="1179" 
d="M918 1868l-233 -308h-214l202 308h245zM651 751l484 -751h-296l-415 642h-20v-642h-264v1443h264v-627h19l404 627h281z" />
    <glyph glyph-name="uni040D" unicode="&#x40d;" horiz-adv-x="1302" 
d="M905 0v986h-9l-510 -986h-248v1443h259v-987h9l510 987h248v-1443h-259zM560 1566l-234 308h246l202 -308h-214z" />
    <glyph glyph-name="Ushortcyrillic" unicode="&#x40e;" horiz-adv-x="1147" 
d="M317 -12q-38 0 -69 5t-35 9v218q15 -9 72 -9q58 0 95.5 28t63.5 96l-380 1108h270l241 -812h11l233 812h267l-352 -1031q-77 -232 -165.5 -328t-251.5 -96zM282 1869h164q2 -80 36.5 -126.5t92.5 -46.5q59 0 93.5 46.5t36.5 126.5h164q0 -142 -79.5 -225t-214.5 -83
t-214 83t-79 225z" />
    <glyph glyph-name="Dzhecyrillic" unicode="&#x40f;" horiz-adv-x="1282" 
d="M515 0h-377v1443h264v-1223h478v1223h264v-1443h-377v-285h-252v285z" />
    <glyph glyph-name="Acyrillic" unicode="&#x410;" horiz-adv-x="1230" 
d="M884 0l-82 334h-389l-80 -334h-268l387 1443h327l386 -1443h-281zM599 1168l-142 -629h300l-145 629h-13z" />
    <glyph glyph-name="Becyrillic" unicode="&#x411;" horiz-adv-x="1115" 
d="M1027 447q0 -205 -110 -326t-295 -121h-484v1443h783v-220h-519v-333h210q189 0 302 -120t113 -323zM402 215h155q202 0 202 233q0 235 -203 235h-154v-468z" />
    <glyph glyph-name="Vecyrillic" unicode="&#x412;" horiz-adv-x="1159" 
d="M644 0h-506v1443h500q184 0 284.5 -95t100.5 -265q0 -124 -65 -210t-171 -107v-12q127 -15 204 -106t77 -238q0 -195 -111.5 -302.5t-312.5 -107.5zM402 1240v-404h144q218 0 218 205q0 98 -49 148.5t-141 50.5h-172zM402 203h174q223 0 223 227q0 114 -57 168.5
t-177 54.5h-163v-450z" />
    <glyph glyph-name="Gecyrillic" unicode="&#x413;" horiz-adv-x="970" 
d="M402 0h-264v1443h755v-220h-491v-1223z" />
    <glyph glyph-name="Decyrillic" unicode="&#x414;" horiz-adv-x="1308" 
d="M469 594q-6 -142 -22 -223t-53 -140v-11h452v1004h-349zM275 0v-285h-238v505h78q57 46 80 132.5t30 253.5l39 837h846v-1223h143v-505h-238v285h-740z" />
    <glyph glyph-name="Iecyrillic" unicode="&#x415;" horiz-adv-x="1019" 
d="M910 220v-220h-772v1443h772v-220h-508v-387h479v-208h-479v-408h508z" />
    <glyph glyph-name="Zhecyrillic" unicode="&#x416;" horiz-adv-x="1713" 
d="M1234 753l433 -753h-295l-365 643h-20v-643h-262v643h-21l-364 -643h-293l431 748l-407 695h283l351 -628h20v628h262v-628h20l352 628h280z" />
    <glyph glyph-name="Zecyrillic" unicode="&#x417;" horiz-adv-x="1098" 
d="M382 630v212h144q94 0 146 58.5t52 159.5q0 98 -46.5 150t-134.5 52t-138 -56t-54 -160h-243q5 200 122 313t320 113q195 0 310.5 -104t115.5 -282q0 -123 -60.5 -211t-164.5 -116v-12q125 -17 194.5 -108t69.5 -240q0 -193 -130.5 -310.5t-341.5 -117.5
q-204 0 -326.5 116t-130.5 316h252q5 -103 59 -159.5t150 -56.5q93 0 145.5 59.5t52.5 165.5q0 108 -55.5 163t-162.5 55h-145z" />
    <glyph glyph-name="Iicyrillic" unicode="&#x418;" horiz-adv-x="1302" 
d="M905 0v986h-9l-510 -986h-248v1443h259v-987h9l510 987h248v-1443h-259z" />
    <glyph glyph-name="Iishortcyrillic" unicode="&#x419;" horiz-adv-x="1302" 
d="M905 0v986h-9l-510 -986h-248v1443h259v-987h9l510 987h248v-1443h-259zM360 1869h164q2 -80 36.5 -126.5t92.5 -46.5q59 0 93.5 46.5t36.5 126.5h164q0 -142 -79.5 -225t-214.5 -83t-214 83t-79 225z" />
    <glyph glyph-name="Kacyrillic" unicode="&#x41a;" horiz-adv-x="1180" 
d="M649 751l484 -751h-297l-414 642h-20v-642h-264v1443h264v-627h19l404 627h281z" />
    <glyph glyph-name="Elcyrillic" unicode="&#x41b;" horiz-adv-x="1237" 
d="M1100 0h-264v1223h-319l-26 -664q-12 -299 -89.5 -434.5t-262.5 -135.5q-61 0 -93 12v230q26 -7 53 -7q80 0 112 82t38 267l32 870h819v-1443z" />
    <glyph glyph-name="Emcyrillic" unicode="&#x41c;" horiz-adv-x="1515" 
d="M1377 0h-237v1025h-13l-278 -1002h-183l-278 1002h-12v-1025h-238v1443h330l285 -1032h11l285 1032h328v-1443z" />
    <glyph glyph-name="Encyrillic" unicode="&#x41d;" horiz-adv-x="1293" 
d="M1155 0h-264v624h-489v-624h-264v1443h264v-599h489v599h264v-1443z" />
    <glyph glyph-name="Ocyrillic" unicode="&#x41e;" horiz-adv-x="1283" 
d="M642 1472q259 0 399 -194.5t140 -556.5t-139.5 -556t-399.5 -194q-261 0 -400.5 194t-139.5 556q0 361 140 556t400 195zM642 1247q-132 0 -201.5 -133t-69.5 -393t69.5 -392.5t201.5 -132.5t200.5 132t68.5 393t-69 393.5t-200 132.5z" />
    <glyph glyph-name="Pecyrillic" unicode="&#x41f;" horiz-adv-x="1282" 
d="M1144 0h-264v1223h-478v-1223h-264v1443h1006v-1443z" />
    <glyph glyph-name="Ercyrillic" unicode="&#x420;" horiz-adv-x="1129" 
d="M138 1443h480q199 0 311.5 -130.5t112.5 -356.5q0 -223 -117.5 -354t-321.5 -131h-201v-471h-264v1443zM402 1230v-548h153q219 0 219 274t-218 274h-154z" />
    <glyph glyph-name="Escyrillic" unicode="&#x421;" horiz-adv-x="1213" 
d="M632 -29q-257 0 -393.5 192t-136.5 559t136 558.5t392 191.5q220 0 348 -137.5t140 -387.5h-255q-13 148 -72.5 224.5t-158.5 76.5q-129 0 -195 -133.5t-66 -391.5q0 -261 66 -394.5t195 -133.5q205 0 231 281h256q-15 -242 -140.5 -373.5t-346.5 -131.5z" />
    <glyph glyph-name="Tecyrillic" unicode="&#x422;" horiz-adv-x="1075" 
d="M669 0h-264v1223h-331v220h926v-220h-331v-1223z" />
    <glyph glyph-name="Ucyrillic" unicode="&#x423;" horiz-adv-x="1147" 
d="M317 -12q-38 0 -69 5t-35 9v218q15 -9 72 -9q58 0 95.5 28t63.5 96l-380 1108h270l241 -812h11l233 812h267l-352 -1031q-77 -232 -165.5 -328t-251.5 -96z" />
    <glyph glyph-name="Efcyrillic" unicode="&#x424;" horiz-adv-x="1517" 
d="M632 342v765q-134 -8 -207 -106.5t-73 -275.5q0 -178 73 -276.5t207 -106.5zM1165 724q0 178 -73 277t-206 106v-765q133 8 206 106.5t73 275.5zM629 126q-254 10 -398 166t-144 433q0 276 144.5 431.5t397.5 166.5v147h260v-147q253 -10 397 -166t144 -433
q0 -276 -144.5 -431.5t-396.5 -166.5v-153h-260v153z" />
    <glyph glyph-name="Xacyrillic" unicode="&#x425;" horiz-adv-x="1229" 
d="M78 0l367 729v5l-365 709h298l240 -517h11l240 517h283l-383 -718v-5l381 -720h-290l-250 503h-13l-245 -503h-274z" />
    <glyph glyph-name="Tsecyrillic" unicode="&#x426;" horiz-adv-x="1342" 
d="M1287 -285h-235v285h-914v1443h264v-1223h478v1223h264v-1223h143v-505z" />
    <glyph glyph-name="Checyrillic" unicode="&#x427;" horiz-adv-x="1219" 
d="M1081 0h-264v605h-10q-45 -36 -118 -58t-154 -22q-202 0 -314 124.5t-112 338.5v455h264v-440q0 -124 57 -188t167 -64q71 0 130.5 24t89.5 56v612h264v-1443z" />
    <glyph glyph-name="Shacyrillic" unicode="&#x428;" horiz-adv-x="1692" 
d="M138 0v1443h264v-1223h312v1223h264v-1223h313v1223h264v-1443h-1417z" />
    <glyph glyph-name="Shchacyrillic" unicode="&#x429;" horiz-adv-x="1751" 
d="M1696 -285h-235v285h-1323v1443h264v-1223h312v1223h264v-1223h313v1223h264v-1223h141v-505z" />
    <glyph glyph-name="Hardsigncyrillic" unicode="&#x42a;" horiz-adv-x="1325" 
d="M824 0h-480v1224h-264v219h528v-500h201q197 0 315 -128t118 -344t-113.5 -343.5t-304.5 -127.5zM608 214h146q220 0 220 257q0 259 -221 259h-145v-516z" />
    <glyph glyph-name="Yericyrillic" unicode="&#x42b;" horiz-adv-x="1609" 
d="M138 0v1443h264v-500h200q197 0 315 -128.5t118 -343.5q0 -216 -113.5 -343.5t-304.5 -127.5h-479zM402 214h145q220 0 220 257q0 259 -221 259h-144v-516zM1473 0h-264v1443h264v-1443z" />
    <glyph glyph-name="Softsigncyrillic" unicode="&#x42c;" horiz-adv-x="1120" 
d="M138 0v1443h264v-500h200q197 0 315 -128.5t118 -343.5q0 -216 -113.5 -343.5t-304.5 -127.5h-479zM402 214h145q220 0 220 257q0 259 -221 259h-144v-516z" />
    <glyph glyph-name="Ereversedcyrillic" unicode="&#x42d;" horiz-adv-x="1212" 
d="M586 -29q-221 0 -351 128t-147 364h256q17 -128 78 -195.5t161 -67.5q117 0 183 110.5t74 316.5h-414v212h413q-11 196 -76.5 300t-178.5 104q-99 0 -161 -74t-78 -209h-256q14 239 145 375.5t355 136.5q252 0 387.5 -194t135.5 -555q0 -363 -136 -557.5t-390 -194.5z
" />
    <glyph glyph-name="IUcyrillic" unicode="&#x42e;" horiz-adv-x="1734" 
d="M1098 -29q-235 0 -371.5 169.5t-155.5 483.5h-169v-624h-264v1443h264v-599h170q22 303 158.5 465.5t367.5 162.5q255 0 395 -194t140 -556t-140 -556.5t-395 -194.5zM1096 1247q-125 0 -193 -136t-68 -389t68 -389.5t193 -136.5q129 0 198.5 136.5t69.5 389.5
q0 252 -70 388.5t-198 136.5z" />
    <glyph glyph-name="IAcyrillic" unicode="&#x42f;" horiz-adv-x="1158" 
d="M757 742v490h-166q-98 0 -151 -63.5t-53 -181.5q0 -245 213 -245h157zM623 540l-266 -540h-283l296 579q-120 43 -186.5 152t-66.5 258q0 213 118 333.5t334 120.5h451v-1443h-263v540h-134z" />
    <glyph glyph-name="acyrillic" unicode="&#x430;" horiz-adv-x="1003" 
d="M470 179q74 0 119.5 50t45.5 134v136l-137 -19q-83 -14 -123.5 -51t-40.5 -107t36 -106.5t100 -36.5zM375 -14q-131 0 -212 85t-81 232q0 145 91 228t283 111l179 23v92q0 76 -35.5 114.5t-101.5 38.5q-131 0 -150 -138h-232q7 156 111.5 248t280.5 92q184 0 280.5 -89.5
t96.5 -260.5v-762h-248v131h-10q-31 -67 -98 -106t-154 -39z" />
    <glyph glyph-name="becyrillic" unicode="&#x431;" horiz-adv-x="1062" 
d="M532 186q181 0 181 339q0 327 -181 327q-182 0 -182 -327q0 -339 182 -339zM284 844h9q83 207 297 207q179 0 281.5 -138t102.5 -383q0 -260 -114 -404t-322 -144q-225 0 -337 157.5t-112 480.5q0 430 114 624t381 205l105 4q89 3 155 18.5t77 27.5v-201
q-7 -9 -28.5 -18.5t-72 -19.5t-115.5 -12l-99 -3q-89 -4 -148.5 -30.5t-95 -81t-52.5 -121.5t-26 -168z" />
    <glyph glyph-name="vecyrillic" unicode="&#x432;" horiz-adv-x="1005" 
d="M504 920h-125v-274h119q134 0 134 140q0 134 -128 134zM509 485h-130v-311h135q76 0 112.5 37.5t36.5 116.5q0 82 -37.5 119.5t-116.5 37.5zM125 0v1094h443q151 0 232.5 -72.5t81.5 -204.5q0 -88 -45 -153t-118 -82v-11q93 -16 147 -83.5t54 -170.5q0 -150 -90.5 -233.5
t-252.5 -83.5h-452z" />
    <glyph glyph-name="gecyrillic" unicode="&#x433;" horiz-adv-x="813" 
d="M747 896h-367v-896h-255v1094h622v-198z" />
    <glyph glyph-name="decyrillic" unicode="&#x434;" horiz-adv-x="1120" 
d="M692 198v699h-257q0 -28 -18 -388q-11 -208 -63 -300v-11h338zM259 -285h-228v483h66q48 35 68.5 115t27.5 210q2 59 15 314.5t13 256.5h725v-896h135v-483h-228v285h-594v-285z" />
    <glyph glyph-name="iecyrillic" unicode="&#x435;" horiz-adv-x="1013" 
d="M518 914q-79 0 -123.5 -66t-50.5 -194h340q-6 260 -166 260zM685 325h232q-23 -167 -127 -255t-271 -88q-208 0 -317.5 142t-109.5 419q0 276 110.5 422.5t312.5 146.5q198 0 305 -139t107 -405v-82h-585v-15q1 -144 48 -217.5t134 -73.5q133 0 161 145z" />
    <glyph glyph-name="zhecyrillic" unicode="&#x436;" horiz-adv-x="1437" 
d="M1081 585l320 -585h-280l-254 485h-24v-485h-252v485h-23l-255 -485h-277l318 582l-305 512h271l249 -452h22v452h252v-452h23l249 452h268z" />
    <glyph glyph-name="zecyrillic" unicode="&#x437;" horiz-adv-x="966" 
d="M481 -18q-174 0 -281 89t-120 258h243q24 -148 158 -148q69 0 106 38.5t37 107.5q0 77 -37 111t-119 34h-110v183h107q71 0 103 32t32 99q0 60 -31 94t-93 34q-125 0 -141 -137h-239q13 160 111 247.5t270 87.5q179 0 275 -80t96 -223q0 -83 -37 -143t-102 -83v-12
q170 -50 170 -242q0 -158 -104.5 -252.5t-293.5 -94.5z" />
    <glyph glyph-name="iicyrillic" unicode="&#x438;" horiz-adv-x="1094" 
d="M374 0h-249v1094h251v-692h9l335 692h249v-1094h-250v699h-10z" />
    <glyph glyph-name="iishortcyrillic" unicode="&#x439;" horiz-adv-x="1094" 
d="M374 0h-249v1094h251v-692h9l335 692h249v-1094h-250v699h-10zM243 1575h165q2 -86 36.5 -138t94.5 -52t94.5 52t36.5 138h164q0 -148 -79.5 -236.5t-215.5 -88.5t-216 88.5t-80 236.5z" />
    <glyph glyph-name="kacyrillic" unicode="&#x43a;" horiz-adv-x="1006" 
d="M618 585l353 -585h-283l-287 483h-21v-483h-255v1094h255v-451h20l283 451h271z" />
    <glyph glyph-name="elcyrillic" unicode="&#x43b;" horiz-adv-x="1056" 
d="M440 509q-10 -267 -79.5 -393.5t-238.5 -126.5q-49 0 -80 12v218q29 -8 51 -8q31 0 52 20t33.5 63.5t18.5 96t10 132.5q1 36 11 270.5t12 300.5h701v-1094h-255v896h-220q-1 -32 -7.5 -182t-8.5 -205z" />
    <glyph glyph-name="emcyrillic" unicode="&#x43c;" horiz-adv-x="1366" 
d="M361 0h-236v1094h332l222 -742h10l223 742h328v-1094h-236v748h-10l-220 -718h-183l-220 718h-10v-748z" />
    <glyph glyph-name="encyrillic" unicode="&#x43d;" horiz-adv-x="1085" 
d="M704 0v464h-324v-464h-255v1094h255v-432h324v432h255v-1094h-255z" />
    <glyph glyph-name="ocyrillic" unicode="&#x43e;" horiz-adv-x="1066" 
d="M533 -18q-214 0 -327.5 143t-113.5 422q0 276 115 420.5t326 144.5q212 0 326.5 -144t114.5 -421q0 -279 -113.5 -422t-327.5 -143zM533 186q92 0 136.5 88t44.5 273q0 361 -181 361q-91 0 -135.5 -88.5t-44.5 -272.5q0 -185 44 -273t136 -88z" />
    <glyph glyph-name="pecyrillic" unicode="&#x43f;" horiz-adv-x="1075" 
d="M695 0v896h-315v-896h-255v1094h825v-1094h-255z" />
    <glyph glyph-name="ercyrillic" unicode="&#x440;" horiz-adv-x="1092" 
d="M646 1109q170 0 261.5 -144.5t91.5 -415.5q0 -272 -91 -417t-261 -145q-96 0 -161 43.5t-96 122.5h-10v-501h-255v1442h252v-156h10q32 82 98 126.5t161 44.5zM559 197q179 0 179 352q0 350 -179 350q-180 0 -180 -351t180 -351z" />
    <glyph glyph-name="escyrillic" unicode="&#x441;" horiz-adv-x="990" 
d="M911 710h-235q-18 195 -152 195q-174 0 -174 -357q0 -359 174 -359q68 0 105 44.5t46 144.5h236q-9 -193 -110 -294.5t-279 -101.5q-210 0 -320 143t-110 423q0 277 110.5 420.5t318.5 143.5q177 0 278.5 -106t111.5 -296z" />
    <glyph glyph-name="tecyrillic" unicode="&#x442;" horiz-adv-x="896" 
d="M834 1094v-196h-259v-898h-254v898h-259v196h772z" />
    <glyph glyph-name="ucyrillic" unicode="&#x443;" horiz-adv-x="1020" 
d="M232 -367q-56 0 -91 5v187q12 -3 57 -3q63 0 100.5 26.5t51.5 88.5q0 2 3 29.5t1 35.5l-304 1092h274l187 -885h10l184 885h264l-285 -1043q-41 -156 -96.5 -245.5t-140 -131t-215.5 -41.5z" />
    <glyph glyph-name="efcyrillic" unicode="&#x444;" horiz-adv-x="1406" 
d="M580 182v730q-114 -8 -174 -100t-60 -265q0 -348 234 -365zM1061 547q0 173 -60 265t-175 100v-730q114 8 174.5 100.5t60.5 264.5zM578 -15q-234 9 -363 154.5t-129 407.5q0 260 130 406.5t362 155.5v333h252v-333q233 -9 361.5 -154.5t128.5 -407.5
q0 -260 -129.5 -406.5t-360.5 -155.5v-333h-252v333z" />
    <glyph glyph-name="hacyrillic" unicode="&#x445;" horiz-adv-x="1003" 
d="M498 383h-6l-175 -383h-258l281 546l-281 548h279l167 -375h6l166 375h267l-281 -540l281 -554h-269z" />
    <glyph glyph-name="tsecyrillic" unicode="&#x446;" horiz-adv-x="1119" 
d="M1083 -285h-228v285h-730v1094h255v-896h313v896h255v-896h135v-483z" />
    <glyph glyph-name="checyrillic" unicode="&#x447;" horiz-adv-x="1043" 
d="M918 0h-255v448h-11q-76 -81 -218 -81q-159 0 -245 103.5t-86 282.5v341h255v-331q0 -91 38.5 -138.5t113.5 -47.5q102 0 153 58v459h255v-1094z" />
    <glyph glyph-name="shacyrillic" unicode="&#x448;" horiz-adv-x="1513" 
d="M125 0v1094h255v-896h249v896h255v-896h249v896h255v-1094h-1263z" />
    <glyph glyph-name="shchacyrillic" unicode="&#x449;" horiz-adv-x="1557" 
d="M1521 -285h-228v285h-1168v1094h255v-896h249v896h255v-896h249v896h255v-896h133v-483z" />
    <glyph glyph-name="hardsigncyrillic" unicode="&#x44a;" horiz-adv-x="1132" 
d="M704 0h-417v896h-225v198h480v-326h162q169 0 264.5 -102.5t95.5 -282.5t-95.5 -281.5t-264.5 -101.5zM658 572h-116v-376h116q74 0 114 50t40 138q0 89 -40 138.5t-114 49.5z" />
    <glyph glyph-name="yericyrillic" unicode="&#x44b;" horiz-adv-x="1405" 
d="M1027 0v1094h255v-1094h-255zM496 572h-116v-376h116q74 0 114 49.5t40 138.5t-40 138.5t-114 49.5zM125 0v1094h255v-326h159q171 0 267.5 -102.5t96.5 -282.5t-96.5 -281.5t-267.5 -101.5h-414z" />
    <glyph glyph-name="softsigncyrillic" unicode="&#x44c;" horiz-adv-x="971" 
d="M496 572h-116v-376h116q74 0 114 49.5t40 138.5t-40 138.5t-114 49.5zM125 0v1094h255v-326h159q171 0 267.5 -102.5t96.5 -282.5t-96.5 -281.5t-267.5 -101.5h-414z" />
    <glyph glyph-name="ereversedcyrillic" unicode="&#x44d;" horiz-adv-x="994" 
d="M317 357q22 -168 153 -168q77 0 122 72t50 210h-290v182h288q-9 123 -53.5 187.5t-117.5 64.5q-63 0 -101.5 -44t-49.5 -124h-236q15 173 116 274t275 101q205 0 317 -147t112 -417q0 -274 -111.5 -420t-317.5 -146q-180 0 -278.5 98.5t-112.5 276.5h235z" />
    <glyph glyph-name="iucyrillic" unicode="&#x44e;" horiz-adv-x="1466" 
d="M932 -18q-191 0 -302.5 123t-127.5 359h-122v-464h-255v1094h255v-432h124q22 219 133.5 334.5t294.5 115.5q213 0 326.5 -145t113.5 -420q0 -277 -112.5 -421t-327.5 -144zM934 186q178 0 178 361t-178 361q-177 0 -177 -361t177 -361z" />
    <glyph glyph-name="iacyrillic" unicode="&#x44f;" horiz-adv-x="993" 
d="M493 554h124v344h-124q-70 0 -107.5 -46t-37.5 -130q0 -79 37.5 -123.5t107.5 -44.5zM617 0v368h-88l-190 -368h-274l228 416q-95 34 -146 113.5t-51 192.5q0 172 99 272t276 100h396v-1094h-250z" />
    <glyph glyph-name="uni0450" unicode="&#x450;" horiz-adv-x="1013" 
d="M518 914q-79 0 -123.5 -66t-50.5 -194h340q-6 260 -166 260zM685 325h232q-23 -167 -127 -255t-271 -88q-208 0 -317.5 142t-109.5 419q0 276 110.5 422.5t312.5 146.5q198 0 305 -139t107 -405v-82h-585v-15q1 -144 48 -217.5t134 -73.5q133 0 161 145zM627 1246h-212
l-195 320h235z" />
    <glyph glyph-name="iocyrillic" unicode="&#x451;" horiz-adv-x="1013" 
d="M518 914q-79 0 -123.5 -66t-50.5 -194h340q-6 260 -166 260zM685 325h232q-23 -167 -127 -255t-271 -88q-208 0 -317.5 142t-109.5 419q0 276 110.5 422.5t312.5 146.5q198 0 305 -139t107 -405v-82h-585v-15q1 -144 48 -217.5t134 -73.5q133 0 161 145zM329 1231
q-55 0 -92.5 37.5t-37.5 91.5q0 55 37.5 92t92.5 37q56 0 93 -37t37 -92q0 -54 -37 -91.5t-93 -37.5zM698 1231q-56 0 -93.5 37.5t-37.5 91.5q0 55 37.5 92t93.5 37q55 0 92.5 -37t37.5 -92q0 -54 -37.5 -91.5t-92.5 -37.5z" />
    <glyph glyph-name="djecyrillic" unicode="&#x452;" horiz-adv-x="1068" 
d="M381 939h10q33 81 102.5 126t165.5 45q142 0 217 -90.5t75 -259.5v-780q0 -168 -80.5 -249t-241.5 -81q-39 0 -72 3v193q6 -1 32 -1q60 0 83.5 31.5t23.5 109.5v721q0 190 -148 190q-80 0 -122.5 -54.5t-42.5 -154.5v-688h-255v1221h-102v142h102v107h253v-107h178v-142
h-178v-282z" />
    <glyph glyph-name="gjecyrillic" unicode="&#x453;" horiz-adv-x="813" 
d="M747 896h-367v-896h-255v1094h622v-198zM525 1246h-214l172 320h237z" />
    <glyph glyph-name="ecyrillic" unicode="&#x454;" horiz-adv-x="991" 
d="M675 357h236q-14 -181 -113.5 -278t-275.5 -97q-208 0 -319 145.5t-111 420.5q0 271 111.5 417.5t317.5 146.5q174 0 274.5 -101t115.5 -274h-236q-24 168 -150 168q-73 0 -117.5 -64.5t-53.5 -186.5h291v-183h-293q4 -137 49 -209.5t124 -72.5q130 0 150 168z" />
    <glyph glyph-name="dzecyrillic" unicode="&#x455;" horiz-adv-x="977" 
d="M111 790q0 146 105 234t277 88q181 0 275.5 -87t99.5 -252h-234q-12 150 -143 150q-61 0 -98 -31.5t-37 -85.5q0 -50 33 -82t112 -60l125 -38q144 -49 204 -118t60 -190q0 -154 -110.5 -245t-290.5 -91q-189 0 -289 87t-110 253h248q8 -75 49 -113t109 -38q62 0 102 32
t39 85q0 51 -29 80.5t-105 57.5l-127 41q-138 47 -201.5 122t-63.5 201z" />
    <glyph glyph-name="icyrillic" unicode="&#x456;" horiz-adv-x="507" 
d="M126 0v1094h255v-1094h-255zM253 1251q-63 0 -104 38.5t-41 97.5t41 97.5t104 38.5q65 0 105.5 -38.5t40.5 -97.5t-40.5 -97.5t-105.5 -38.5z" />
    <glyph glyph-name="yicyrillic" unicode="&#x457;" horiz-adv-x="507" 
d="M105 1237q-52 0 -85.5 36.5t-33.5 94.5t33.5 94.5t85.5 36.5t85.5 -36.5t33.5 -94.5t-33.5 -94.5t-85.5 -36.5zM401 1237q-52 0 -85 36.5t-33 94.5t33 94.5t85 36.5t85.5 -36.5t33.5 -94.5t-33.5 -94.5t-85.5 -36.5zM126 0v1094h255v-1094h-255z" />
    <glyph glyph-name="jecyrillic" unicode="&#x458;" horiz-adv-x="507" 
d="M254 1251q-64 0 -105 38.5t-41 97.5t41 97.5t105 38.5q65 0 105.5 -38.5t40.5 -97.5t-40.5 -97.5t-105.5 -38.5zM381 1094v-1119q0 -175 -81.5 -253t-235.5 -78q-47 0 -70 5v182l31 -1q56 0 78.5 30t22.5 102v1132h255z" />
    <glyph glyph-name="ljecyrillic" unicode="&#x459;" horiz-adv-x="1523" 
d="M442 509q-5 -131 -21.5 -221.5t-51.5 -160.5t-94.5 -104t-147.5 -34q-49 0 -83 12v218q29 -8 50 -8q31 0 52.5 20t34 63.5t18.5 96t10 132.5q2 50 11.5 284t11.5 287h701v-326h159q171 0 267 -102.5t96 -282.5t-96 -281.5t-267 -101.5h-415v896h-219q-1 -28 -7.5 -180.5
t-8.5 -206.5zM1049 572h-116v-376h116q74 0 114 50t40 138q0 89 -40 138.5t-114 49.5z" />
    <glyph glyph-name="njecyrillic" unicode="&#x45a;" horiz-adv-x="1532" 
d="M1078 504h-131v-310h131q67 0 102 41t35 114t-35 114t-102 41zM692 0v500h-312v-500h-255v1094h255v-399h312v399h255v-397h167q165 0 258 -92.5t93 -256.5t-93 -256t-258 -92h-422z" />
    <glyph glyph-name="tshecyrillic" unicode="&#x45b;" horiz-adv-x="1067" 
d="M381 937h9q33 82 102 127.5t165 45.5q142 0 216.5 -89.5t74.5 -257.5v-763h-255v711q0 185 -146 185q-79 0 -122 -53t-43 -151v-692h-255v1221h-117v142h117v107h254v-107h163v-142h-163v-284z" />
    <glyph glyph-name="kjecyrillic" unicode="&#x45c;" horiz-adv-x="1006" 
d="M813 1566l-195 -320h-214l172 320h237zM618 585l353 -585h-283l-287 483h-21v-483h-255v1094h255v-451h20l283 451h271z" />
    <glyph glyph-name="uni045D" unicode="&#x45d;" horiz-adv-x="1094" 
d="M374 0h-249v1094h251v-692h9l335 692h249v-1094h-250v699h-10zM662 1246h-213l-195 320h236z" />
    <glyph glyph-name="ushortcyrillic" unicode="&#x45e;" horiz-adv-x="1020" 
d="M232 -367q-56 0 -91 5v187q12 -3 57 -3q63 0 100.5 26.5t51.5 88.5q0 2 3 29.5t1 35.5l-304 1092h274l187 -885h10l184 885h264l-285 -1043q-41 -156 -96.5 -245.5t-140 -131t-215.5 -41.5zM217 1575h165q2 -86 36.5 -138t94.5 -52t94.5 52t36.5 138h164
q0 -148 -79.5 -236.5t-215.5 -88.5t-216 88.5t-80 236.5z" />
    <glyph glyph-name="dzhecyrillic" unicode="&#x45f;" horiz-adv-x="1075" 
d="M950 0h-298v-285h-228v285h-299v1094h255v-896h315v896h255v-1094z" />
    <glyph glyph-name="uni0462" unicode="&#x462;" horiz-adv-x="1279" 
d="M561 214h149q215 0 215 250q0 252 -216 252h-148v-502zM561 929h202q197 0 314 -126t117 -339t-113 -338.5t-304 -125.5h-480v1132h-263v193h263v162h264v-162h324v-193h-324v-203z" />
    <glyph glyph-name="uni0463" unicode="&#x463;" horiz-adv-x="1075" 
d="M485 196h116q74 0 114 50t40 138q0 89 -40 138.5t-114 49.5h-116v-376zM485 768h161q170 0 265.5 -102.5t95.5 -282.5t-95.5 -281.5t-265.5 -101.5h-416v940h-204v154h204v376h255v-376h312v-154h-312v-172z" />
    <glyph glyph-name="uni0472" unicode="&#x472;" horiz-adv-x="1283" 
d="M642 195q119 0 186.5 107.5t80.5 319.5q-52 -46 -123 -46q-47 0 -91 16t-73 35t-66.5 34.5t-72.5 15.5q-74 0 -109 -52q12 -213 80 -321.5t188 -108.5zM642 1248q-116 0 -184.5 -104t-82.5 -308q49 40 114 40q58 0 111 -25.5t101 -51t94 -25.5q79 0 113 58
q-13 206 -81 311t-185 105zM642 1472q259 0 399 -194.5t140 -556.5t-139.5 -556t-399.5 -194q-261 0 -400.5 194t-139.5 556q0 361 140 556t400 195z" />
    <glyph glyph-name="uni0473" unicode="&#x473;" horiz-adv-x="1066" 
d="M533 185q160 0 179 273q-35 -32 -92 -32q-45 0 -99.5 31.5t-89.5 31.5q-56 0 -75 -44q22 -260 177 -260zM533 908q-164 0 -179 -292q38 41 95 41q46 1 100.5 -30t90.5 -31q55 0 72 42q-21 270 -179 270zM533 1112q212 0 326.5 -144t114.5 -421q0 -279 -113.5 -422
t-327.5 -143t-327.5 143t-113.5 422q0 276 115 420.5t326 144.5z" />
    <glyph glyph-name="uni0474" unicode="&#x474;" horiz-adv-x="1335" 
d="M767 0h-332l-376 1443h290l249 -1146h12l177 819q24 110 53 176t73 107q66 62 178 62t196 -53l-71 -209q-35 18 -70 18q-36 0 -58 -27q-22 -26 -46 -114z" />
    <glyph glyph-name="uni0475" unicode="&#x475;" horiz-adv-x="1069" 
d="M1071 1070l-64 -191q-32 16 -65 16q-37 0 -58 -28q-20 -26 -41 -105l-191 -762h-330l-277 1094h261l177 -851h10l118 558q37 180 106 249q62 65 177 65q105 0 177 -45z" />
    <glyph glyph-name="uni048A" unicode="&#x48a;" horiz-adv-x="1334" 
d="M783 1869h164q0 -142 -79.5 -225t-214.5 -83t-214 83t-79 225h164q2 -80 36.5 -126.5t92.5 -46.5q59 0 93.5 46.5t36.5 126.5zM1164 219h145v-58l-99 -446h-231l65 285h-139v986h-9l-510 -986h-248v1443h259v-987h9l510 987h248v-1224z" />
    <glyph glyph-name="uni048B" unicode="&#x48b;" horiz-adv-x="1137" 
d="M670 1575h164q0 -148 -79.5 -236.5t-215.5 -88.5t-216 88.5t-80 236.5h165q2 -86 36.5 -138t94.5 -52t94.5 52t36.5 138zM969 198h141v-61l-90 -422h-230l62 285h-133v699h-10l-335 -699h-249v1094h251v-692h9l335 692h249v-896z" />
    <glyph glyph-name="uni048C" unicode="&#x48c;" horiz-adv-x="1279" 
d="M561 214h149q215 0 215 250q0 252 -216 252h-148v-502zM561 929h202q197 0 314 -126t117 -339t-113 -338.5t-304 -125.5h-480v1132h-263v193h263v162h264v-162h324v-193h-324v-203z" />
    <glyph glyph-name="uni048D" unicode="&#x48d;" horiz-adv-x="1075" 
d="M485 196h116q74 0 114 50t40 138q0 89 -40 138.5t-114 49.5h-116v-376zM485 768h161q170 0 265.5 -102.5t95.5 -282.5t-95.5 -281.5t-265.5 -101.5h-416v940h-204v154h204v376h255v-376h312v-154h-312v-172z" />
    <glyph glyph-name="uni048E" unicode="&#x48e;" horiz-adv-x="1129" 
d="M402 680h153q13 0 37 2l-100 160l126 83l107 -170q51 69 51 201q0 274 -220 274h-154v-550zM138 1443h482q197 0 309.5 -131t112.5 -356q0 -131 -44 -233.5t-127 -164.5l114 -181l-158 -108l-131 213q-47 -10 -104 -10h-190v-472h-264v1443z" />
    <glyph glyph-name="uni048F" unicode="&#x48f;" horiz-adv-x="1092" 
d="M610 472l92 -166q36 89 36 242q0 171 -45.5 261t-133.5 90q-179 0 -181 -352q2 -352 181 -352q26 0 44 7l-108 200zM377 938h9q32 82 99.5 126.5t163.5 44.5q170 0 260 -146t90 -415q0 -331 -134 -471l97 -175l-158 -99l-105 188q-21 -4 -51 -4q-96 0 -162 43t-97 123h-9
v-501h-255v1442h252v-156z" />
    <glyph glyph-name="Geupturncyrillic" unicode="&#x490;" horiz-adv-x="970" 
d="M402 1223v-1223h-264v1443h519v284h236v-504h-491z" />
    <glyph glyph-name="geupturncyrillic" unicode="&#x491;" horiz-adv-x="813" 
d="M747 896h-366v-896h-256v1094h394v287h228v-485z" />
    <glyph glyph-name="uni0492" unicode="&#x492;" horiz-adv-x="986" 
d="M908 1223h-490v-431h324v-191h-324v-601h-265v601h-119v191h119v651h755v-220z" />
    <glyph glyph-name="uni0493" unicode="&#x493;" horiz-adv-x="830" 
d="M764 896h-367v-273h236v-172h-236v-451h-254v451h-127v172h127v471h621v-198z" />
    <glyph glyph-name="uni0494" unicode="&#x494;" horiz-adv-x="1188" 
d="M881 1443v-220h-479v-403h10q39 33 110 60.5t158 27.5q203 0 309 -126.5t106 -348.5q0 -225 -109.5 -355t-313.5 -130q-93 0 -123 18v211q23 -14 92 -14q91 0 140 67t49 195q0 123 -53.5 190.5t-153.5 67.5q-80 0 -140 -32t-81 -69v-582h-264v1443h743z" />
    <glyph glyph-name="uni0495" unicode="&#x495;" horiz-adv-x="1046" 
d="M380 553h10q80 78 218 78q171 0 265 -126t94 -335q0 -237 -104 -368t-286 -131q-82 0 -119 17v193q30 -9 85 -9q83 0 125 75.5t42 214.5q0 116 -41 184t-120 68q-61 0 -104.5 -23t-64.5 -59v-332h-255v1094h647v-198h-392v-343z" />
    <glyph glyph-name="uni0496" unicode="&#x496;" horiz-adv-x="1733" 
d="M1540 220h148v-505h-235v285h-81l-365 643h-20v-643h-262v643h-21l-364 -643h-293l431 748l-407 695h283l351 -628h20v628h262v-628h20l352 628h280l-405 -690z" />
    <glyph glyph-name="uni0497" unicode="&#x497;" horiz-adv-x="1471" 
d="M1293 198h144v-483h-228v285h-88l-254 485h-24v-485h-252v485h-23l-255 -485h-277l318 582l-305 512h271l249 -452h22v452h252v-452h23l249 452h268l-302 -509z" />
    <glyph glyph-name="uni0498" unicode="&#x498;" horiz-adv-x="1098" 
d="M751 759v-12q125 -17 194.5 -108t69.5 -240q0 -161 -93 -271.5t-252 -143.5v-269h-236v266q-158 29 -249.5 140t-98.5 282h252q5 -103 59 -159.5t150 -56.5q93 0 145.5 59.5t52.5 165.5q0 108 -55.5 163t-162.5 55h-145v212h144q94 0 146 58.5t52 159.5q0 98 -46.5 150
t-134.5 52t-138 -56t-54 -160h-243q5 200 122 313t320 113q195 0 310.5 -104t115.5 -282q0 -123 -60.5 -211t-164.5 -116z" />
    <glyph glyph-name="uni0499" unicode="&#x499;" horiz-adv-x="966" 
d="M709 583v-12q170 -50 170 -242q0 -131 -72.5 -220t-207.5 -116v-278h-228v277q-127 25 -203.5 111t-87.5 226h243q24 -148 158 -148q69 0 106 38.5t37 107.5q0 77 -37 111t-119 34h-110v183h107q71 0 103 32t32 99q0 60 -31 94t-93 34q-125 0 -141 -137h-239
q13 160 111 247.5t270 87.5q179 0 275 -80t96 -223q0 -83 -37 -143t-102 -83z" />
    <glyph glyph-name="uni049A" unicode="&#x49a;" horiz-adv-x="1198" 
d="M991 220h163v-505h-235v285h-83l-414 642h-20v-642h-264v1443h264v-627h19l404 627h281l-457 -692z" />
    <glyph glyph-name="uni049B" unicode="&#x49b;" horiz-adv-x="1033" 
d="M851 198h148v-483h-229v285h-82l-287 483h-21v-483h-255v1094h255v-451h20l283 451h271l-336 -509z" />
    <glyph glyph-name="uni049C" unicode="&#x49c;" horiz-adv-x="1289" 
d="M892 738l346 -738h-290l-285 627h-22v-307h-155v307h-84v-627h-264v1443h264v-621h84v304h155v-304h21l283 621h271z" />
    <glyph glyph-name="uni049D" unicode="&#x49d;" horiz-adv-x="1174" 
d="M840 584l297 -584h-278l-227 469h-19v-257h-153v257h-80v-469h-255v1094h255v-437h80v259h153v-259h18l222 437h267z" />
    <glyph glyph-name="uni049E" unicode="&#x49e;" horiz-adv-x="1184" 
d="M655 751l482 -751h-296l-413 642h-26v-642h-264v1125h-129v192h129v126h264v-126h149v-192h-149v-309h25l403 627h281z" />
    <glyph glyph-name="uni049F" unicode="&#x49f;" horiz-adv-x="1025" 
d="M631 625l358 -625h-281l-262 456l-67 -98v-358h-255v1221h-119v142h119v107h255v-107h159v-142h-159v-571h8l310 444h272z" />
    <glyph glyph-name="uni04A0" unicode="&#x4a0;" horiz-adv-x="1603" 
d="M1073 751l484 -751h-297l-415 642h-19v-642h-264v1224h-486v219h750v-627h19l404 627h281z" />
    <glyph glyph-name="uni04A1" unicode="&#x4a1;" horiz-adv-x="1311" 
d="M923 585l352 -585h-282l-287 483h-21v-483h-255v896h-368v198h623v-451h20l283 451h270z" />
    <glyph glyph-name="uni04A2" unicode="&#x4a2;" horiz-adv-x="1350" 
d="M1155 220h143v-505h-235v285h-172v624h-489v-624h-264v1443h264v-599h489v599h264v-1223z" />
    <glyph glyph-name="uni04A3" unicode="&#x4a3;" horiz-adv-x="1119" 
d="M959 198h135v-483h-228v285h-162v464h-324v-464h-255v1094h255v-432h324v432h255v-896z" />
    <glyph glyph-name="uni04A4" unicode="&#x4a4;" horiz-adv-x="1718" 
d="M1640 1443v-219h-485v-1224h-264v624h-489v-624h-264v1443h264v-599h489v599h749z" />
    <glyph glyph-name="uni04A5" unicode="&#x4a5;" horiz-adv-x="1390" 
d="M1326 1094v-194h-367v-900h-255v464h-324v-464h-255v1094h255v-432h324v432h622z" />
    <glyph glyph-name="uni04A6" unicode="&#x4a6;" horiz-adv-x="1887" 
d="M138 1443h963v-628h11q41 34 110.5 61t157.5 27q199 0 306.5 -123t107.5 -348q0 -229 -111.5 -356.5t-312.5 -127.5q-83 0 -121 18v211q28 -14 92 -14q92 0 140 67t48 192q0 122 -53 189t-153 67q-81 0 -141 -32t-81 -69v-577h-263v1223h-436v-1223h-264v1443z" />
    <glyph glyph-name="uni04A7" unicode="&#x4a7;" horiz-adv-x="1614" 
d="M125 1094h824v-541h9q82 78 218 78q170 0 264.5 -125.5t94.5 -332.5q0 -239 -104 -370.5t-286 -131.5q-78 0 -119 17v193q27 -9 86 -9q82 0 124.5 76t42.5 212q0 118 -41 186t-121 68q-61 0 -104 -23t-64 -58v-333h-255v896h-314v-896h-255v1094z" />
    <glyph glyph-name="uni04A8" unicode="&#x4a8;" horiz-adv-x="1672" 
d="M1082 1080q-83 0 -123.5 -81.5t-40.5 -223.5q0 -299 157 -466q81 81 125.5 204t44.5 271q0 136 -42 216t-121 80zM1537 244l82 -191q-109 -86 -262 -86q-168 0 -295 82q-132 -80 -306 -80q-307 0 -481.5 211.5t-174.5 567.5q0 199 65.5 358t189 258.5t289.5 119.5v-237
q-137 -40 -207 -171.5t-70 -329.5q0 -255 108 -405t290 -150q61 0 110 10q-210 210 -210 566q0 237 112.5 385.5t303.5 148.5q195 0 306.5 -137.5t111.5 -375.5q0 -184 -64 -338t-174 -256q47 -12 99 -12q100 0 177 62z" />
    <glyph glyph-name="uni04A9" unicode="&#x4a9;" horiz-adv-x="1470" 
d="M959 859q-65 0 -100 -62t-35 -172q0 -104 33 -194t95 -150q69 53 105.5 144t36.5 204q0 104 -35.5 167t-99.5 63zM1345 210l69 -169q-90 -60 -225 -60q-149 0 -262 74q-119 -74 -293 -74q-259 0 -400.5 155.5t-141.5 431.5q0 237 117 387.5t333 175.5v-219
q-197 -54 -197 -343q0 -178 86 -285t232 -107q45 0 89 9q-177 160 -177 442q0 198 103.5 316t280.5 118q176 0 280 -117t104 -308q0 -147 -56.5 -266.5t-158.5 -192.5q31 -7 71 -7q86 0 146 39z" />
    <glyph glyph-name="uni04AA" unicode="&#x4aa;" horiz-adv-x="1216" 
d="M863 476h256q-14 -221 -120.5 -350.5t-294.5 -150.5l-25 -66q159 -24 159 -176q0 -94 -63.5 -144.5t-170.5 -50.5q-77 0 -120 16v127q28 -15 89 -15q93 0 93 62q0 34 -25 48.5t-83 14.5h-39v91l37 94q-221 28 -337.5 218t-116.5 528q0 367 136 558.5t392 191.5
q220 0 348 -137.5t140 -387.5h-255q-13 148 -72.5 224.5t-158.5 76.5q-129 0 -195 -133.5t-66 -391.5q0 -261 66 -394.5t195 -133.5q205 0 231 281z" />
    <glyph glyph-name="uni04AB" unicode="&#x4ab;" horiz-adv-x="990" 
d="M910 710h-236q-18 195 -151 195q-174 0 -174 -357q0 -359 174 -359q68 0 105 44.5t46 144.5h236q-9 -172 -89.5 -271.5t-223.5 -119.5l-29 -78q159 -24 160 -176q0 -94 -63.5 -144.5t-170.5 -50.5q-76 0 -121 16v127q29 -15 90 -15q92 0 92 62q0 34 -24.5 48.5
t-82.5 14.5h-39v91l41 104q-176 23 -267.5 164.5t-91.5 397.5q0 277 110.5 420.5t318.5 143.5q177 0 278.5 -106t111.5 -296z" />
    <glyph glyph-name="uni04AC" unicode="&#x4ac;" horiz-adv-x="1075" 
d="M1000 1223h-331v-1003h143v-505h-235v285h-172v1223h-331v220h926v-220z" />
    <glyph glyph-name="uni04AD" unicode="&#x4ad;" horiz-adv-x="896" 
d="M834 898h-259v-700h136v-483h-229v285h-161v898h-259v196h772v-196z" />
    <glyph glyph-name="uni04AE" unicode="&#x4ae;" horiz-adv-x="1169" 
d="M715 0h-264v540l-389 903h277l240 -632h10l246 632h272l-392 -903v-540z" />
    <glyph glyph-name="uni04AF" unicode="&#x4af;" horiz-adv-x="976" 
d="M666 1094h265l-313 -1094v-354h-255v357l-318 1091h272l171 -794h8z" />
    <glyph glyph-name="uni04B0" unicode="&#x4b0;" horiz-adv-x="1165" 
d="M1105 1443l-361 -832h263v-182h-294v-429h-264v429h-295v182h264l-358 832h277l240 -632h10l246 632h272z" />
    <glyph glyph-name="uni04B1" unicode="&#x4b1;" horiz-adv-x="976" 
d="M931 1094l-313 -1094h173v-168h-173v-186h-255v186h-176v168h176v3l-318 1091h272l171 -794h8l170 794h265z" />
    <glyph glyph-name="uni04B2" unicode="&#x4b2;" horiz-adv-x="1244" 
d="M1034 220h156v-505h-235v285h-95l-250 503h-13l-245 -503h-274l367 729v5l-365 709h298l240 -517h11l240 517h283l-383 -718v-5z" />
    <glyph glyph-name="uni04B3" unicode="&#x4b3;" horiz-adv-x="1020" 
d="M841 198h142v-483h-229v285h-82l-178 383h-5l-175 -383h-258l281 546l-281 548h279l167 -375h6l166 375h266l-280 -540z" />
    <glyph glyph-name="uni04B4" unicode="&#x4b4;" horiz-adv-x="1614" 
d="M1416 220h141v-505h-235v285h-922v1223h-323v220h904v-220h-317v-1003h488v1223h264v-1223z" />
    <glyph glyph-name="uni04B5" unicode="&#x4b5;" horiz-adv-x="1294" 
d="M1123 198h135v-483h-228v285h-730v896h-238v198h686v-198h-193v-698h313v896h255v-896z" />
    <glyph glyph-name="uni04B6" unicode="&#x4b6;" horiz-adv-x="1276" 
d="M1081 220h143v-505h-235v285h-172v605h-10q-45 -36 -118 -58t-154 -22q-202 0 -314 124.5t-112 338.5v455h264v-440q0 -124 57 -188t167 -64q71 0 130.5 24t89.5 56v612h264v-1223z" />
    <glyph glyph-name="uni04B7" unicode="&#x4b7;" horiz-adv-x="1084" 
d="M918 198h135v-483h-229v285h-161v448h-11q-76 -81 -218 -81q-159 0 -245 103.5t-86 282.5v341h255v-331q0 -91 38.5 -138.5t113.5 -47.5q102 0 153 58v459h255v-896z" />
    <glyph glyph-name="uni04B8" unicode="&#x4b8;" horiz-adv-x="1248" 
d="M846 1443h264v-1443h-264v606h-11q-51 -37 -136 -60v-277h-170v257q-195 4 -307.5 129t-112.5 336v452h264v-443q0 -204 156 -242v299h170v-297q97 20 147 70v613z" />
    <glyph glyph-name="uni04B9" unicode="&#x4b9;" horiz-adv-x="1088" 
d="M707 1094h256v-1094h-256v449h-10q-35 -35 -85 -54v-226h-162v200q-169 3 -258 106t-89 286v333h255v-326q0 -144 92 -180v278h162v-281q60 15 95 50v459z" />
    <glyph glyph-name="uni04BA" unicode="&#x4ba;" horiz-adv-x="1226" 
d="M138 1443h264v-603h10q113 90 286 90q192 0 302 -125.5t110 -344.5v-460h-264v448q0 124 -57 189.5t-161 65.5q-85 0 -145.5 -32t-80.5 -69v-602h-264v1443z" />
    <glyph glyph-name="uni04BB" unicode="&#x4bb;" horiz-adv-x="1065" 
d="M125 0v1470h254v-533h9q33 82 102 127.5t165 45.5q143 0 217 -89.5t74 -257.5v-763h-255v711q0 185 -146 185q-79 0 -122 -53t-43 -151v-692h-255z" />
    <glyph glyph-name="uni04BC" unicode="&#x4bc;" horiz-adv-x="1494" 
d="M630 875h488q-8 179 -69 273.5t-171 94.5q-106 0 -170 -96t-78 -272zM1392 676h-766v-25q0 -212 69.5 -331.5t197.5 -119.5q184 0 227 206h262q-25 -197 -158.5 -316t-329.5 -119q-251 0 -391.5 183t-148.5 521q-152 1 -233.5 86t-81.5 228q0 91 28 163h205
q-23 -73 -23 -137q0 -133 112 -134q31 282 166 436.5t354 154.5q251 0 382 -181t131 -519z" />
    <glyph glyph-name="uni04BD" unicode="&#x4bd;" horiz-adv-x="1252" 
d="M584 654h340q-7 260 -167 260q-161 0 -173 -260zM1166 486h-584v-15q1 -143 48 -217t134 -74q132 0 160 145h232q-23 -167 -126.5 -255t-270.5 -88q-197 0 -305.5 127t-120.5 374h-4q-138 0 -213.5 73t-75.5 203q0 76 28 145h185q-22 -64 -22 -131q0 -56 26 -86t76 -30h4
q22 222 129.5 338.5t288.5 116.5q198 0 304.5 -139t106.5 -405v-82z" />
    <glyph glyph-name="uni04BE" unicode="&#x4be;" horiz-adv-x="1494" 
d="M630 875h488q-8 179 -69 273.5t-171 94.5q-106 0 -170 -96t-78 -272zM1392 676h-766v-25q0 -212 69.5 -331.5t197.5 -119.5q184 0 227 206h262q-22 -167 -122.5 -279.5t-253.5 -144.5v-267h-235v269q-195 42 -302.5 219.5t-114.5 471.5q-152 1 -233.5 86t-81.5 228
q0 91 28 163h205q-23 -73 -23 -137q0 -133 112 -134q31 282 166 436.5t354 154.5q251 0 382 -181t131 -519z" />
    <glyph glyph-name="uni04BF" unicode="&#x4bf;" horiz-adv-x="1252" 
d="M584 654h340q-7 260 -167 260q-161 0 -173 -260zM1166 486h-584v-15q1 -143 48 -217t134 -74q132 0 160 145h232q-19 -138 -93 -222t-194 -110v-270h-228v272q-287 70 -308 488h-4q-138 0 -213.5 73t-75.5 203q0 76 28 145h185q-22 -64 -22 -131q0 -56 26 -86t76 -30h4
q22 222 129.5 338.5t288.5 116.5q198 0 304.5 -139t106.5 -405v-82z" />
    <glyph glyph-name="uni04C0" unicode="&#x4c0;" horiz-adv-x="540" 
d="M402 0h-264v1443h264v-1443z" />
    <glyph glyph-name="uni04C1" unicode="&#x4c1;" horiz-adv-x="1713" 
d="M996 1871h163q-2 -143 -82.5 -228.5t-223.5 -85.5t-223 86t-82 228h163q2 -80 39 -127.5t103 -47.5t103.5 47.5t39.5 127.5zM1234 753l433 -753h-295l-365 643h-20v-643h-262v643h-21l-364 -643h-293l431 748l-407 695h283l351 -628h20v628h262v-628h20l352 628h280z" />
    <glyph glyph-name="uni04C2" unicode="&#x4c2;" horiz-adv-x="1437" 
d="M843 1571h165q0 -148 -80 -236.5t-216 -88.5t-215.5 88.5t-79.5 236.5h165q2 -85 36 -137t94 -52t94.5 52t36.5 137zM1081 585l320 -585h-280l-254 485h-24v-485h-252v485h-23l-255 -485h-277l318 582l-305 512h271l249 -452h22v452h252v-452h23l249 452h268z" />
    <glyph glyph-name="uni04C3" unicode="&#x4c3;" horiz-adv-x="1169" 
d="M1108 1443l-440 -658q184 -54 287 -210.5t103 -381.5q0 -270 -128 -430t-345 -160q-61 0 -102 9v213q29 -6 68 -6q116 0 178.5 99.5t62.5 267.5q0 193 -98 304.5t-272 111.5h-20v-602h-264v1443h264v-621h21l399 621h286z" />
    <glyph glyph-name="uni04C4" unicode="&#x4c4;" horiz-adv-x="1020" 
d="M528 -358q-64 0 -101 9v200q31 -6 66 -6q91 0 139.5 74t48.5 215q0 149 -72.5 233.5t-203.5 84.5h-25v-452h-255v1094h255v-445h27l275 445h275l-318 -479v-6q141 -49 218.5 -173.5t77.5 -298.5q0 -233 -108.5 -364t-298.5 -131z" />
    <glyph glyph-name="uni04C5" unicode="&#x4c5;" horiz-adv-x="1266" 
d="M1100 219h140v-58l-99 -446h-232l66 285h-139v1223h-319l-26 -664q-12 -299 -89.5 -434.5t-262.5 -135.5q-61 0 -93 12v230q26 -7 53 -7q80 0 112 82t38 267l32 870h819v-1224z" />
    <glyph glyph-name="uni04C6" unicode="&#x4c6;" horiz-adv-x="1097" 
d="M931 198h139v-61l-91 -422h-230l62 285h-136v198h1v698h-220q-1 -32 -7.5 -182t-8.5 -205q-10 -267 -79.5 -393.5t-238.5 -126.5q-49 0 -80 12v218q29 -8 51 -8q31 0 52 20t33.5 63.5t18.5 96t10 132.5q1 36 11 270.5t12 300.5h701v-896z" />
    <glyph glyph-name="uni04C7" unicode="&#x4c7;" horiz-adv-x="1293" 
d="M891 1443h264v-1463q0 -177 -83.5 -255t-243.5 -78q-47 0 -70 5v191h31q57 0 79 28.5t22 95.5v370h1v287h-489v-624h-264v1443h264v-599h489v599z" />
    <glyph glyph-name="uni04C8" unicode="&#x4c8;" horiz-adv-x="1085" 
d="M704 1094h255v-1115q0 -175 -81 -253t-236 -78q-47 0 -69 5v182h30q57 0 79.5 30t22.5 101v34h-1v464h-324v-464h-255v1094h255v-432h324v432z" />
    <glyph glyph-name="uni04C9" unicode="&#x4c9;" horiz-adv-x="1323" 
d="M1155 219h141v-58l-99 -446h-232l66 285h-140v624h-489v-624h-264v1443h264v-599h489v599h264v-1224z" />
    <glyph glyph-name="uni04CA" unicode="&#x4ca;" horiz-adv-x="1126" 
d="M959 198h139v-61l-90 -422h-230l62 285h-136v464h-324v-464h-255v1094h255v-432h324v432h255v-896z" />
    <glyph glyph-name="uni04CB" unicode="&#x4cb;" horiz-adv-x="1219" 
d="M817 1443h264v-1443h-171v-285h-235v505h142v385h-10q-45 -36 -118 -58t-154 -22q-202 0 -314 124.5t-112 338.5v455h264v-440q0 -124 57 -188t167 -64q71 0 130.5 24t89.5 56v612z" />
    <glyph glyph-name="uni04CC" unicode="&#x4cc;" horiz-adv-x="1043" 
d="M663 1094h255v-1094h-161v-285h-229v483h135v263h-11q-77 -90 -229 -90q-153 0 -236.5 102.5t-83.5 281.5v339h255v-325q0 -91 37.5 -139t109.5 -48q108 0 158 69v443z" />
    <glyph glyph-name="uni04CD" unicode="&#x4cd;" horiz-adv-x="1554" 
d="M1377 220h156v-59l-98 -446h-232l66 285h-129v1025h-13l-278 -1002h-183l-278 1002h-12v-1025h-238v1443h330l285 -1032h11l285 1032h328v-1223z" />
    <glyph glyph-name="uni04CE" unicode="&#x4ce;" horiz-adv-x="1412" 
d="M1240 198h147v-61l-90 -422h-230l62 285h-125v748h-10l-220 -718h-183l-220 718h-10v-748h-236v1094h332l222 -742h10l223 742h328v-896z" />
    <glyph glyph-name="uni04CF" unicode="&#x4cf;" horiz-adv-x="516" 
d="M131 0v1470h255v-1470h-255z" />
    <glyph glyph-name="uni04D0" unicode="&#x4d0;" horiz-adv-x="1230" 
d="M884 0l-82 334h-389l-80 -334h-268l387 1443h327l386 -1443h-281zM599 1168l-142 -629h300l-145 629h-13zM315 1869h164q2 -80 37 -126.5t93 -46.5t92.5 46.5t36.5 126.5h164q0 -142 -79.5 -225t-213.5 -83q-135 0 -214.5 83t-79.5 225z" />
    <glyph glyph-name="uni04D1" unicode="&#x4d1;" horiz-adv-x="1003" 
d="M470 179q74 0 119.5 50t45.5 134v136l-137 -19q-83 -14 -123.5 -51t-40.5 -107t36 -106.5t100 -36.5zM375 -14q-131 0 -212 85t-81 232q0 145 91 228t283 111l179 23v92q0 76 -35.5 114.5t-101.5 38.5q-131 0 -150 -138h-232q7 156 111.5 248t280.5 92q184 0 280.5 -89.5
t96.5 -260.5v-762h-248v131h-10q-31 -67 -98 -106t-154 -39zM212 1571h165q2 -85 36.5 -137t94.5 -52t94 52t36 137h165q0 -148 -80 -236.5t-215 -88.5q-136 0 -216 88.5t-80 236.5z" />
    <glyph glyph-name="uni04D2" unicode="&#x4d2;" horiz-adv-x="1230" 
d="M884 0l-82 334h-389l-80 -334h-268l387 1443h327l386 -1443h-281zM599 1168l-142 -629h300l-145 629h-13zM430 1575q-56 0 -93.5 37.5t-37.5 91.5q0 55 37.5 92t93.5 37q55 0 92.5 -37t37.5 -92q0 -54 -37.5 -91.5t-92.5 -37.5zM798 1575q-55 0 -92.5 37.5t-37.5 91.5
q0 55 37.5 92t92.5 37q56 0 93 -37t37 -92q0 -54 -37 -91.5t-93 -37.5z" />
    <glyph glyph-name="uni04D3" unicode="&#x4d3;" horiz-adv-x="1007" 
d="M472 179q74 0 119.5 50t45.5 134v136l-137 -19q-83 -14 -123.5 -51t-40.5 -107t36 -106.5t100 -36.5zM377 -14q-131 0 -212 85t-81 232q0 145 91 228t283 111l179 23v92q0 76 -35.5 114.5t-101.5 38.5q-131 0 -150 -138h-233q8 157 112.5 248.5t280.5 91.5
q183 0 280 -89.5t97 -260.5v-762h-249v131h-9q-31 -67 -98 -106t-154 -39zM327 1231q-55 0 -92.5 37.5t-37.5 91.5q0 55 37.5 92t92.5 37q56 0 93.5 -37t37.5 -92q0 -54 -37.5 -91.5t-93.5 -37.5zM696 1231q-56 0 -93.5 37.5t-37.5 91.5q0 55 37.5 92t93.5 37q55 0 92.5 -37
t37.5 -92q0 -54 -37.5 -91.5t-92.5 -37.5z" />
    <glyph glyph-name="uni04D4" unicode="&#x4d4;" horiz-adv-x="1664" 
d="M705 1229l-192 -621h291v621h-99zM804 0v402h-352l-127 -402h-267l465 1443h1032v-220h-497v-390h467v-207h-467v-406h497v-220h-751z" />
    <glyph glyph-name="uni04D5" unicode="&#x4d5;" horiz-adv-x="1575" 
d="M1096 -18q-120 0 -205.5 53t-123.5 145h-10q-44 -93 -131.5 -144.5t-207.5 -51.5q-152 0 -243 85.5t-91 232.5q0 145 93.5 227.5t290.5 105.5l168 17v83q0 86 -36.5 130.5t-106.5 44.5q-131 0 -148 -135h-232q9 153 108 245t263 92q113 0 189.5 -43.5t107.5 -115.5h10
q40 72 120 115.5t183 43.5q188 0 291.5 -137.5t103.5 -401.5v-83h-586v-18q1 -138 51.5 -215t138.5 -77q120 0 157 138h233q-24 -157 -126.5 -246.5t-260.5 -89.5zM1081 915q-80 0 -125.5 -66.5t-50.5 -192.5h340q-4 129 -46 194t-118 65zM473 179q75 0 119 52.5t44 141.5
v119l-116 -11q-98 -14 -141.5 -51.5t-43.5 -107.5t36.5 -106.5t101.5 -36.5z" />
    <glyph glyph-name="uni04D6" unicode="&#x4d6;" horiz-adv-x="1019" 
d="M910 220v-220h-772v1443h772v-220h-508v-387h479v-208h-479v-408h508zM231 1869h164q2 -80 36.5 -126.5t92.5 -46.5q59 0 93.5 46.5t36.5 126.5h164q0 -142 -79.5 -225t-214.5 -83t-214 83t-79 225z" />
    <glyph glyph-name="uni04D7" unicode="&#x4d7;" horiz-adv-x="1013" 
d="M518 914q-79 0 -123.5 -66t-50.5 -194h340q-6 260 -166 260zM685 325h232q-23 -167 -127 -255t-271 -88q-208 0 -317.5 142t-109.5 419q0 276 110.5 422.5t312.5 146.5q198 0 305 -139t107 -405v-82h-585v-15q1 -144 48 -217.5t134 -73.5q133 0 161 145zM213 1571h165
q2 -85 36.5 -137t94.5 -52q59 0 94 52t37 137h164q0 -148 -79.5 -236.5t-215.5 -88.5t-216 88.5t-80 236.5z" />
    <glyph glyph-name="uni04D8" unicode="&#x4d8;" horiz-adv-x="1236" 
d="M611 -32q-255 0 -387.5 188t-133.5 529l2 97h769v15q1 212 -68 331t-196 119q-181 0 -227 -209h-266q36 203 166.5 320.5t327.5 117.5q255 0 396 -195.5t141 -557.5q0 -354 -140 -554.5t-384 -200.5zM611 196q107 0 172 101t76 286h-493q7 -187 70 -287t175 -100z" />
    <glyph glyph-name="uni04D9" unicode="&#x4d9;" horiz-adv-x="1033" 
d="M508 173q80 0 128 72t52 200h-355q2 -130 47.5 -201t127.5 -71zM329 789h-234q31 155 137.5 241t274.5 86q207 0 320.5 -148.5t113.5 -416.5q0 -271 -113.5 -422t-320.5 -151q-199 0 -309 146t-110 412l1 75h601v12q0 142 -48 220t-139 78q-133 0 -174 -132z" />
    </font>
</defs>
</svg>
